<svg width="57" height="57" viewBox="0 0 57 57" fill="none" xmlns="http://www.w3.org/2000/svg">
<path d="M21.6165 32.8169C20.9572 32.8176 20.3252 33.0798 19.859 33.546C19.3928 34.0122 19.1306 34.6442 19.1299 35.3035V39.6328C19.1299 39.81 19.2003 39.9799 19.3255 40.1052C19.4508 40.2304 19.6207 40.3008 19.7979 40.3008C19.975 40.3008 20.1449 40.2304 20.2702 40.1052C20.3954 39.9799 20.4658 39.81 20.4658 39.6328V37.7033H22.7667V39.6328C22.7667 39.81 22.8371 39.9799 22.9624 40.1052C23.0877 40.2304 23.2576 40.3008 23.4347 40.3008C23.6119 40.3008 23.7818 40.2304 23.907 40.1052C24.0323 39.9799 24.1027 39.81 24.1027 39.6328V35.3035C24.102 34.6443 23.8398 34.0123 23.3737 33.5461C22.9077 33.08 22.2757 32.8177 21.6165 32.8169ZM22.7667 36.3674H20.4658V35.3035C20.4628 35.1505 20.4903 34.9985 20.5468 34.8563C20.6033 34.7141 20.6875 34.5845 20.7947 34.4753C20.9018 34.366 21.0296 34.2792 21.1707 34.22C21.3118 34.1607 21.4633 34.1302 21.6163 34.1302C21.7693 34.1302 21.9208 34.1607 22.0619 34.22C22.2029 34.2792 22.3308 34.366 22.4379 34.4753C22.545 34.5845 22.6293 34.7141 22.6858 34.8563C22.7422 34.9985 22.7698 35.1505 22.7667 35.3035V36.3674Z" fill="#7CB331"/>
<path d="M33.5654 32.7305C33.3883 32.7305 33.2184 32.8008 33.0931 32.9261C32.9678 33.0514 32.8975 33.2213 32.8975 33.3984C32.8975 33.5756 32.9678 33.7455 33.0931 33.8708C33.2184 33.996 33.3883 34.0664 33.5654 34.0664H34.7157V38.9648H33.5654C33.3883 38.9648 33.2184 39.0352 33.0931 39.1605C32.9678 39.2858 32.8975 39.4557 32.8975 39.6328C32.8975 39.81 32.9678 39.9799 33.0931 40.1051C33.2184 40.2304 33.3883 40.3008 33.5654 40.3008H37.2023C37.3795 40.3008 37.5494 40.2304 37.6746 40.1051C37.7999 39.9799 37.8703 39.81 37.8703 39.6328C37.8703 39.4557 37.7999 39.2858 37.6746 39.1605C37.5494 39.0352 37.3795 38.9648 37.2023 38.9648H36.0516V34.0664H37.2023C37.3795 34.0664 37.5494 33.996 37.6746 33.8708C37.7999 33.7455 37.8703 33.5756 37.8703 33.3984C37.8703 33.2213 37.7999 33.0514 37.6746 32.9261C37.5494 32.8008 37.3795 32.7305 37.2023 32.7305H33.5654Z" fill="#7CB331"/>
<path d="M29.7729 32.7305H27.5908C27.4137 32.7305 27.2438 32.8008 27.1185 32.9261C26.9932 33.0514 26.9229 33.2213 26.9229 33.3984V39.6328C26.9229 39.81 26.9932 39.9799 27.1185 40.1051C27.2438 40.2304 27.4137 40.3008 27.5908 40.3008C27.768 40.3008 27.9379 40.2304 28.0631 40.1051C28.1884 39.9799 28.2588 39.81 28.2588 39.6328V37.1836H29.7729C30.3634 37.1836 30.9297 36.949 31.3473 36.5314C31.7648 36.1139 31.9994 35.5476 31.9994 34.957C31.9994 34.3665 31.7648 33.8002 31.3473 33.3826C30.9297 32.9651 30.3634 32.7305 29.7729 32.7305ZM29.7729 35.8477H28.2588V34.0664H29.7729C30.0091 34.0664 30.2356 34.1602 30.4026 34.3273C30.5696 34.4943 30.6635 34.7208 30.6635 34.957C30.6635 35.1932 30.5696 35.4198 30.4026 35.5868C30.2356 35.7538 30.0091 35.8477 29.7729 35.8477Z" fill="#7CB331"/>
<path d="M50.9883 0H6.01172C4.41804 0.00235578 2.8903 0.636488 1.76339 1.76339C0.636488 2.8903 0.00235578 4.41804 0 6.01172V44.7539C0.00235578 46.3476 0.636488 47.8753 1.76339 49.0022C2.8903 50.1291 4.41804 50.7633 6.01172 50.7656H13.9205L15.8576 52.7027C16.2501 53.097 16.7809 53.3227 17.3372 53.3318C17.8935 53.341 18.4314 53.1329 18.8367 52.7517L19.7095 51.9368C21.0671 52.7304 22.5262 53.3356 24.0469 53.7359L24.087 54.9293C24.1043 55.4853 24.3378 56.0126 24.7377 56.3993C25.1377 56.7859 25.6726 57.0014 26.2289 57H30.7711C31.3274 57.0014 31.8623 56.7859 32.2623 56.3993C32.6622 56.0126 32.8957 55.4853 32.913 54.9293L32.9531 53.7359C34.4752 53.3377 35.9359 52.7339 37.2949 51.9413L38.1633 52.7517C38.5686 53.1329 39.1065 53.341 39.6628 53.3318C40.2191 53.3227 40.7499 53.097 41.1424 52.7027L43.0795 50.7656H50.9883C52.582 50.7633 54.1097 50.1291 55.2366 49.0022C56.3635 47.8753 56.9976 46.3476 57 44.7539V6.01172C56.9976 4.41804 56.3635 2.8903 55.2366 1.76339C54.1097 0.636488 52.582 0.00235578 50.9883 0ZM42.5273 5.56641H49.6523C50.0067 5.56641 50.3465 5.70716 50.597 5.95769C50.8475 6.20823 50.9883 6.54803 50.9883 6.90234C50.9883 7.25666 50.8475 7.59646 50.597 7.84699C50.3465 8.09753 50.0067 8.23828 49.6523 8.23828H42.5273C42.173 8.23828 41.8332 8.09753 41.5827 7.84699C41.3322 7.59646 41.1914 7.25666 41.1914 6.90234C41.1914 6.54803 41.3322 6.20823 41.5827 5.95769C41.8332 5.70716 42.173 5.56641 42.5273 5.56641ZM21.1523 5.56641C21.4166 5.56641 21.6749 5.64476 21.8946 5.79155C22.1142 5.93835 22.2855 6.14699 22.3866 6.3911C22.4877 6.63521 22.5142 6.90383 22.4626 7.16297C22.4111 7.42212 22.2838 7.66016 22.097 7.84699C21.9102 8.03383 21.6721 8.16106 21.413 8.21261C21.1538 8.26416 20.8852 8.2377 20.6411 8.13659C20.397 8.03548 20.1883 7.86424 20.0416 7.64455C19.8948 7.42486 19.8164 7.16657 19.8164 6.90234C19.8164 6.54803 19.9572 6.20823 20.2077 5.95769C20.4582 5.70716 20.798 5.56641 21.1523 5.56641ZM14.0273 5.56641C14.2916 5.56641 14.5499 5.64476 14.7696 5.79155C14.9892 5.93835 15.1605 6.14699 15.2616 6.3911C15.3627 6.63521 15.3892 6.90383 15.3376 7.16297C15.2861 7.42212 15.1588 7.66016 14.972 7.84699C14.7852 8.03383 14.5471 8.16106 14.288 8.21261C14.0288 8.26416 13.7602 8.2377 13.5161 8.13659C13.272 8.03548 13.0633 7.86424 12.9166 7.64455C12.7698 7.42486 12.6914 7.16657 12.6914 6.90234C12.6914 6.54803 12.8322 6.20823 13.0827 5.95769C13.3332 5.70716 13.673 5.56641 14.0273 5.56641ZM6.90234 5.56641C7.16657 5.56641 7.42486 5.64476 7.64455 5.79155C7.86424 5.93835 8.03548 6.14699 8.13659 6.3911C8.2377 6.63521 8.26416 6.90383 8.21261 7.16297C8.16106 7.42212 8.03383 7.66016 7.84699 7.84699C7.66016 8.03383 7.42212 8.16106 7.16297 8.21261C6.90383 8.26416 6.63521 8.2377 6.3911 8.13659C6.14699 8.03548 5.93835 7.86424 5.79155 7.64455C5.64476 7.42486 5.56641 7.16657 5.56641 6.90234C5.56641 6.54803 5.70716 6.20823 5.95769 5.95769C6.20823 5.70716 6.54803 5.56641 6.90234 5.56641ZM28.5 49.4297C26.0119 49.4297 23.5797 48.6919 21.5109 47.3096C19.4421 45.9272 17.8297 43.9625 16.8775 41.6638C15.9254 39.3651 15.6762 36.8357 16.1616 34.3954C16.647 31.9551 17.8452 29.7135 19.6045 27.9542C21.3639 26.1948 23.6055 24.9967 26.0457 24.5113C28.486 24.0259 31.0155 24.275 33.3142 25.2271C35.6129 26.1793 37.5776 27.7917 38.96 29.8605C40.3423 31.9293 41.0801 34.3615 41.0801 36.8496C41.0768 40.185 39.7503 43.3829 37.3918 45.7414C35.0333 48.0999 31.8354 49.4264 28.5 49.4297ZM55.6641 44.7539C55.6626 45.9936 55.1696 47.1821 54.293 48.0586C53.4164 48.9352 52.2279 49.4283 50.9883 49.4297H44.4066C44.7761 49.0337 44.9813 48.512 44.9805 47.9704C44.9796 47.4288 44.7729 46.9077 44.4021 46.5129L43.5872 45.6401C44.3808 44.2826 44.986 42.8234 45.3862 41.3027L46.5797 41.2627C47.1357 41.2453 47.663 41.0118 48.0497 40.6119C48.4363 40.2119 48.6518 39.677 48.6504 39.1207V34.5785C48.6518 34.0222 48.4363 33.4873 48.0497 33.0874C47.663 32.6874 47.1357 32.4539 46.5797 32.4366L45.3862 32.3965C44.988 30.8744 44.3843 29.4137 43.5916 28.0547L44.4021 27.1863C44.7833 26.781 44.9914 26.2431 44.9822 25.6868C44.9731 25.1305 44.7474 24.5997 44.3531 24.2072L41.1424 20.9965C40.7499 20.6022 40.2191 20.3765 39.6628 20.3674C39.1065 20.3582 38.5686 20.5663 38.1633 20.9475L37.2905 21.7624C35.9329 20.9689 34.4738 20.3636 32.9531 19.9634L32.913 18.7699C32.8957 18.2139 32.6622 17.6866 32.2623 17.2999C31.8623 16.9133 31.3274 16.6978 30.7711 16.6992H26.2289C25.6726 16.6978 25.1377 16.9133 24.7377 17.2999C24.3378 17.6866 24.1043 18.2139 24.087 18.7699L24.0469 19.9634C22.5248 20.3616 21.0641 20.9653 19.7051 21.758L18.8367 20.9475C18.4314 20.5663 17.8935 20.3582 17.3372 20.3674C16.7809 20.3765 16.2501 20.6022 15.8576 20.9965L12.6469 24.2072C12.2526 24.5997 12.0269 25.1305 12.0178 25.6868C12.0086 26.2431 12.2167 26.781 12.5979 27.1863L13.4128 28.0591C12.6192 29.4167 12.014 30.8758 11.6137 32.3965L10.4203 32.4366C9.8643 32.4539 9.33696 32.6874 8.95032 33.0874C8.56367 33.4873 8.34818 34.0222 8.34961 34.5785V39.1207C8.34818 39.677 8.56367 40.2119 8.95032 40.6119C9.33696 41.0118 9.8643 41.2453 10.4203 41.2627L11.6137 41.3027C12.012 42.8248 12.6157 44.2855 13.4084 45.6445L12.5979 46.5129C12.2271 46.9077 12.0204 47.4288 12.0195 47.9704C12.0187 48.512 12.2239 49.0337 12.5934 49.4297H6.01172C4.77206 49.4283 3.58358 48.9352 2.707 48.0586C1.83043 47.1821 1.33735 45.9936 1.33594 44.7539V13.3594H55.6641V44.7539Z" fill="#7CB331"/>
</svg>
