<svg width="1916" height="798" viewBox="0 0 1916 798" fill="none" xmlns="http://www.w3.org/2000/svg">
<g clip-path="url(#clip0_122_37)">
<mask id="mask0_122_37" style="mask-type:alpha" maskUnits="userSpaceOnUse" x="-94" y="-319" width="2061" height="1489">
<rect x="106.405" y="-319" width="1888.09" height="1187.36" rx="3" transform="rotate(9.71701 106.405 -319)" fill="white"/>
</mask>
<g mask="url(#mask0_122_37)">
<g opacity="0.51">
<path d="M20.1842 1316.36C120.495 1305.83 191.672 1262.69 247.419 1204.93C277.468 1173.76 304.472 1138.27 331.766 1100.87C339.707 1089.99 347.563 1079.01 355.614 1068.21C418.972 982.579 477.011 893.274 529.417 800.778C548.017 768.089 566.371 733.52 586.583 700.06C612.674 656.812 641.545 615.06 677.827 581.142C783.578 482.416 890.627 478.045 1009.02 483.098C1080.32 486.241 1155.16 495.945 1234.55 492.851C1283.5 491.254 1331.26 477.881 1373.63 453.91C1465.2 402.044 1527.53 305.615 1595.13 220.995C1663.32 135.275 1710.84 72.7177 1821.72 40.4898C1953.66 2.31373 2047.69 -34.2899 2109.42 -154.309" stroke="#C2EDFF" stroke-width="0.75" stroke-linecap="round" stroke-linejoin="round"/>
<path d="M15.733 1291.95C113.756 1279.64 186.255 1237.65 242.315 1182.1C272.651 1152.16 300.15 1118.24 327.904 1082.37C336.003 1071.92 343.965 1061.4 352.202 1051.02C416.058 970.635 474.575 881.739 527.866 788.174C546.391 755.619 564.636 721.166 584.685 687.837C610.596 644.754 639.064 603.004 674.794 568.876C778.294 470.227 883.593 462.992 1000.86 465.625C1071.74 467.191 1146.27 476.506 1225.09 474.197C1273.53 473.164 1321.01 460.955 1363.69 438.557C1455.06 389.884 1518.87 297.724 1587.33 214.356C1656.2 130.025 1702.41 65.8053 1811.99 32.8755C1941.89 -6.15931 2037.87 -41.4531 2099.24 -160.13" stroke="#C2EDFF" stroke-width="0.75" stroke-linecap="round" stroke-linejoin="round"/>
<path d="M11.308 1267.6C107.051 1253.54 180.757 1212.51 237.281 1159.56C267.922 1130.84 295.897 1098.5 324.129 1064.14C332.335 1054.14 340.44 1044 348.852 1034.11C414.429 956.877 473.266 869.048 526.377 775.845C544.846 743.391 562.963 709.087 582.816 675.871C608.492 632.968 636.566 591.246 671.774 557.012C773.175 458.368 876.65 448.404 992.8 448.473C1063.28 448.513 1137.46 457.42 1215.86 455.824C1263.73 455.158 1310.81 443.93 1353.59 422.974C1444.86 377.694 1510.07 289.629 1579.22 207.59C1648.71 124.664 1693.61 58.7561 1801.85 24.9943C1929.7 -14.8992 2027.62 -48.9094 2088.71 -166.233" stroke="#C2EDFF" stroke-width="0.75" stroke-linecap="round" stroke-linejoin="round"/>
<path d="M6.93893 1243.28C100.401 1227.46 175.373 1187.48 232.265 1136.92C263.192 1109.44 291.661 1078.66 320.369 1045.88C328.733 1036.32 336.971 1026.62 345.542 1017.17C412.875 943.108 472.005 856.355 524.902 763.495C543.331 731.194 561.338 697.006 581.074 663.88C606.569 621.141 634.249 579.447 668.913 545.029C768.203 446.451 869.846 433.731 984.864 431.269C1054.92 429.766 1128.71 438.272 1206.65 437.43C1254.02 437.217 1300.76 427.014 1343.7 407.514C1434.78 365.538 1501.46 281.604 1571.37 200.874C1641.53 119.338 1685.08 51.7818 1792.02 17.1468C1917.84 -23.5794 2017.62 -56.2571 2078.48 -172.243" stroke="#C2EDFF" stroke-width="0.75" stroke-linecap="round" stroke-linejoin="round"/>
<path d="M2.50646 1218.97C93.7228 1201.43 169.838 1162.48 227.37 1114.24C258.858 1087.14 288.65 1058.2 316.582 1027.58C325.113 1018.48 333.468 1009.17 342.213 1000.21C411.287 929.268 470.638 843.638 523.533 751.061C541.887 718.895 559.785 684.823 579.385 651.82C604.647 609.261 631.904 567.603 666.077 532.986C763.257 434.473 863.086 418.964 976.946 413.978C1046.63 411.054 1120.06 419.212 1197.46 418.89C1244.35 419.22 1290.78 410.119 1333.89 392.15C1424.93 353.631 1492.92 273.702 1563.63 194.271C1634.41 114.114 1676.68 44.9141 1782.25 9.42865C1906.02 -32.1563 2008.01 -63.4545 2068.29 -178.175" stroke="#C2EDFF" stroke-width="0.75" stroke-linecap="round" stroke-linejoin="round"/>
<path d="M-1.8982 1194.63C86.9956 1175.29 164.531 1137.43 222.192 1091.65C253.956 1065.94 284.175 1038.45 312.698 1009.31C321.354 1000.62 329.841 991.761 338.753 983.255C409.654 915.44 469.298 830.886 521.775 738.739C540.046 706.681 557.843 672.751 577.273 639.853C602.353 597.459 629.269 555.813 662.826 521.061C757.913 422.58 855.928 404.283 968.63 396.773C1037.87 392.167 1110.99 400.073 1187.91 400.539C1239.82 400.849 1284.35 392.074 1323.66 376.845C1414.58 341.667 1484.16 266.063 1555.46 187.736C1626.75 109.409 1667.85 38.1131 1772.1 1.78815C1893.82 -40.6218 1997.56 -70.7547 2057.73 -184.03" stroke="#C2EDFF" stroke-width="0.75" stroke-linecap="round" stroke-linejoin="round"/>
<path d="M-6.31537 1170.31C80.2903 1149.19 159.125 1112.4 217.127 1069.01C249.168 1044.68 279.816 1018.65 308.934 991.015C317.746 982.85 326.369 974.342 335.44 966.272C408.211 901.626 468.057 818.229 520.376 726.325C538.58 694.427 556.268 660.613 575.554 627.813C600.34 585.588 626.948 543.973 659.961 509.037C752.937 410.621 849.139 389.535 960.689 379.527C1029.51 373.344 1102.17 380.932 1178.72 382.097C1230.09 382.9 1274.55 375.246 1313.8 361.448C1404.55 329.567 1475.57 258.101 1547.69 181.067C1619.8 104.032 1659.41 31.2127 1762.31 -5.97037C1882.02 -49.2206 1987.7 -78.0697 2047.55 -190.01" stroke="#C2EDFF" stroke-width="0.75" stroke-linecap="round" stroke-linejoin="round"/>
<path d="M-10.747 1145.97C73.605 1123.09 153.739 1087.37 212.082 1046.37C244.408 1023.43 275.487 998.848 305.191 972.725C314.146 964.942 322.902 956.877 332.147 949.294C406.772 887.764 466.781 805.394 518.937 713.905C537.066 682.141 554.644 648.443 573.769 615.774C598.426 573.698 624.595 532.152 657.055 497.007C747.928 398.682 842.301 374.755 952.675 362.257C1021.12 354.515 1093.55 361.631 1169.48 363.621C1220.39 364.922 1264.65 358.402 1303.9 346.045C1394.46 317.382 1466.95 250.159 1539.81 174.44C1612.66 98.7205 1650.87 24.2947 1752.44 -13.754C1870.1 -57.8033 1977.71 -85.3947 2037.27 -195.982" stroke="#C2EDFF" stroke-width="0.75" stroke-linecap="round" stroke-linejoin="round"/>
<path d="M-15.1432 1121.65C66.9207 1096.99 148.46 1062.31 207.046 1023.75C239.516 1002.4 270.41 979.425 301.448 954.435C310.536 947.095 319.45 939.465 328.802 932.332C405.384 873.974 465.485 792.68 517.488 701.545C535.534 669.89 553.011 636.334 571.992 603.762C596.434 561.833 622.155 520.33 654.052 485.034C742.875 386.786 835.411 359.992 944.615 345.03C1012.67 335.703 1084.69 342.512 1160.16 345.171C1210.62 346.969 1254.67 341.607 1293.99 330.617C1384.32 305.411 1458.33 242.219 1531.95 167.781C1605.56 93.3435 1642.38 17.3894 1742.58 -21.5098C1858.2 -66.3917 1967.75 -92.6994 2027.01 -201.926" stroke="#C2EDFF" stroke-width="0.75" stroke-linecap="round" stroke-linejoin="round"/>
<path d="M-19.5475 1097.33C60.2017 1070.9 142.961 1037.32 202.1 1001.09C234.883 980.969 266.271 959.553 297.795 936.091C307.042 929.186 316.108 921.965 325.6 915.301C404.085 860.13 464.35 779.863 516.139 689.072C534.11 657.551 551.399 624.134 570.297 591.67C594.539 549.939 619.952 508.467 651.297 472.962C738.002 374.753 828.743 345.135 936.778 327.71C1004.44 316.884 1076.1 323.258 1151.08 326.679C1201.05 328.956 1244.95 324.739 1284.16 315.194C1374.46 293.247 1449.79 234.258 1524.19 161.12C1598.59 87.9822 1633.93 10.504 1732.82 -29.2944C1846.41 -75.009 1957.89 -100.059 2016.83 -207.925" stroke="#C2EDFF" stroke-width="0.75" stroke-linecap="round" stroke-linejoin="round"/>
<path d="M-23.9524 1072.97C53.5244 1044.82 137.609 1012.3 196.975 978.463C230.072 959.583 261.928 939.728 293.779 917.84C303.185 911.37 312.391 904.618 322.065 898.467C402.568 846.479 462.864 767.277 514.474 676.847C532.378 645.487 549.636 612.163 568.319 579.846C592.227 538.154 617.246 496.71 648.127 460.997C732.672 362.98 821.651 330.362 928.532 310.524C995.777 298.009 1067.1 304.113 1141.55 308.278C1191.1 311.097 1234.81 307.953 1273.99 299.857C1364.13 281.207 1440.9 226.382 1516.05 154.5C1591.21 82.6175 1625.15 3.64456 1722.69 -37.0118C1834.25 -83.5071 1947.8 -107.337 2006.3 -213.89" stroke="#C2EDFF" stroke-width="0.75" stroke-linecap="round" stroke-linejoin="round"/>
<path d="M-28.3863 1048.65C46.8288 1018.72 132.247 987.286 191.92 955.822C225.356 938.173 257.687 919.906 290.006 899.581C299.552 893.579 308.909 887.236 318.693 881.45C401.222 832.67 461.533 754.481 512.955 664.388C530.776 633.136 547.926 599.928 566.446 567.742C590.265 526.329 614.924 484.932 645.18 449.058C727.755 351.095 814.783 315.614 920.495 293.312C987.344 279.186 1058.31 285.079 1132.27 289.894C1181.34 293.132 1224.78 291.196 1264.03 284.493C1354.01 269.166 1432.23 218.506 1508.16 147.958C1583.7 77.7458 1616.57 -3.12926 1712.78 -44.6773C1822.4 -92.0278 1937.68 -114.488 1995.96 -219.736" stroke="#C2EDFF" stroke-width="0.75" stroke-linecap="round" stroke-linejoin="round"/>
<path d="M-32.7713 1024.35C40.1558 992.634 126.915 962.316 186.887 933.197C220.671 916.805 253.462 900.074 286.207 881.266C295.904 875.674 305.42 869.766 315.351 864.474C399.941 818.922 460.233 741.727 511.468 651.97C529.241 620.845 546.262 587.786 564.639 555.697C588.243 514.431 612.522 473.113 642.2 437.037C722.741 339.202 807.909 300.776 912.459 276.036C978.894 260.333 1049.5 265.766 1122.98 271.421C1171.6 275.156 1214.97 274.341 1254.08 269.091C1343.89 257.061 1423.67 210.536 1500.28 141.291C1576.46 72.4766 1608.05 -10.0353 1702.9 -52.4674C1810.39 -100.542 1927.68 -121.879 1985.7 -225.696" stroke="#C2EDFF" stroke-width="0.75" stroke-linecap="round" stroke-linejoin="round"/>
<path d="M-37.2102 1000C33.3835 966.553 121.538 937.334 181.808 910.56C215.906 895.407 249.19 880.231 282.368 862.967C292.338 857.805 301.907 852.363 311.956 847.461C398.628 805.214 458.886 728.963 509.933 639.541C527.631 608.55 544.551 575.634 562.758 543.65C586.154 502.556 610.074 461.285 639.207 425.025C717.671 327.274 800.986 285.928 904.383 258.776C970.414 241.436 1040.63 246.554 1113.65 252.938C1157 257.192 1200.65 257.446 1244.03 253.695C1333.71 245.066 1414.8 202.632 1492.29 134.631C1569.14 67.2398 1599.51 -16.9053 1693.05 -60.2627C1798.41 -109.114 1917.61 -129.245 1975.36 -231.683" stroke="#C2EDFF" stroke-width="0.75" stroke-linecap="round" stroke-linejoin="round"/>
<path d="M-41.6201 975.68C26.7384 940.439 116.234 912.336 176.811 887.933C211.282 874.029 245.035 860.416 278.661 844.747C288.764 840.028 298.492 835.02 308.665 830.535C397.421 791.594 457.636 716.259 508.504 627.199C526.127 596.343 542.93 563.516 560.974 531.664C584.19 490.734 607.748 449.509 636.303 413.048C712.741 315.45 794.145 271.089 896.369 241.559C962.031 222.601 1031.89 227.37 1104.42 234.541C1147.51 239.207 1190.9 240.465 1234.17 238.304C1323.68 232.86 1406.23 194.728 1484.49 128.034C1561.98 62.015 1590.92 -23.8406 1683.11 -67.9443C1786.56 -117.606 1907.69 -136.48 1965.11 -237.609" stroke="#C2EDFF" stroke-width="0.75" stroke-linecap="round" stroke-linejoin="round"/>
<path d="M-46.0415 951.343C20.0367 914.35 110.881 887.388 171.715 865.285C206.542 852.665 240.754 840.588 274.79 826.385C285.033 822.134 294.974 817.547 305.252 813.512C396.141 777.947 456.272 703.483 506.929 614.682C524.477 583.96 541.163 551.223 559.053 519.528C582.061 478.77 605.233 437.599 633.208 400.935C707.65 303.399 787.175 256.126 888.333 224.187C953.583 203.566 1023.09 208.04 1095.16 216.051C1137.96 221.177 1181.06 223.459 1224.15 222.882C1313.5 220.717 1397.63 186.872 1476.54 121.348C1554.64 56.6814 1582.34 -30.6026 1673.16 -75.7282C1774.57 -126.163 1897.49 -143.767 1954.71 -243.651" stroke="#C2EDFF" stroke-width="0.75" stroke-linecap="round" stroke-linejoin="round"/>
<path d="M-50.4159 927.036C13.3743 888.265 105.594 862.437 166.701 842.687C201.867 831.298 236.547 820.783 271.017 808.123C281.392 804.316 291.651 800.118 301.879 796.493C394.901 764.303 454.959 690.652 505.46 602.291C522.933 571.703 539.525 539.135 557.264 507.511C580.064 466.926 602.902 425.793 630.307 388.953C702.676 291.612 780.329 241.256 880.235 206.962C945.081 184.704 1014.22 188.888 1085.78 197.523C1128.37 203.113 1171.25 206.42 1214.2 207.429C1303.37 208.553 1388.79 178.758 1468.56 114.688C1547.33 51.4369 1573.72 -37.4763 1663.16 -83.538C1762.57 -134.702 1887.61 -151.186 1944.34 -249.605" stroke="#C2EDFF" stroke-width="0.75" stroke-linecap="round" stroke-linejoin="round"/>
<path d="M-54.8394 902.711C6.64406 862.196 100.24 837.501 161.656 820.037C197.144 809.913 232.318 800.952 267.244 789.914C277.752 786.549 288.158 782.846 298.562 779.708C393.741 750.973 453.69 678.115 504.004 590.09C521.418 559.689 537.886 527.184 555.481 495.658C577.956 455.335 600.532 414.192 627.377 377.116C697.72 279.929 773.455 226.532 872.223 189.878C936.666 165.983 1005.44 169.845 1076.52 179.268C1122.8 185.394 1165.29 190.285 1204.18 192.216C1293.19 196.636 1380.06 171.006 1460.7 108.213C1540.07 46.3752 1565.2 -44.1301 1653.31 -91.1095C1750.69 -143.054 1877.58 -158.284 1934.08 -255.365" stroke="#C2EDFF" stroke-width="0.75" stroke-linecap="round" stroke-linejoin="round"/>
<path d="M-59.2672 878.403C0.026346 836.054 94.9416 812.593 156.615 797.429C192.465 788.615 228.091 781.164 263.412 771.54C274.06 768.643 284.63 765.487 295.286 762.616C392.611 737.395 452.463 665.271 502.59 577.582C519.898 547.211 536.287 514.926 553.72 483.531C576.196 443.208 598.23 402.276 624.47 365.006C692.839 267.958 766.598 211.423 864.266 172.538C928.264 146.962 996.721 150.52 1067.28 160.713C1113.16 167.406 1155.44 173.345 1194.38 176.703C1283.22 184.393 1371.61 162.88 1452.95 101.469C1532.99 40.9949 1556.82 -51.0615 1643.42 -98.9392C1738.81 -151.586 1867.58 -165.715 1923.77 -261.408" stroke="#C2EDFF" stroke-width="0.75" stroke-linecap="round" stroke-linejoin="round"/>
<path d="M-63.6468 854.067C-6.70534 810.016 89.6542 787.726 151.561 774.784C187.774 767.279 223.852 761.339 259.606 753.258C270.387 750.804 281.066 748.012 291.878 745.662C391.329 723.988 451.122 652.531 501.009 565.193C518.283 535.001 534.556 502.806 551.861 471.56C574.031 431.466 595.811 390.551 621.472 353.078C687.814 256.184 759.671 196.659 856.178 155.337C919.764 128.097 987.881 131.385 1057.95 142.34C1103.25 149.423 1145.46 156.569 1184.35 161.383C1273.07 172.33 1362.79 155.071 1444.99 94.885C1525.63 35.7639 1548.11 -57.7167 1633.57 -106.71C1726.97 -160.145 1857.65 -173.009 1913.65 -267.432" stroke="#C2EDFF" stroke-width="0.75" stroke-linecap="round" stroke-linejoin="round"/>
<path d="M-68.0541 829.757C-13.4008 783.928 84.3079 762.779 146.532 752.149C183.093 745.901 219.639 741.522 255.845 734.952C266.766 732.967 277.585 730.643 288.514 728.684C390.108 710.609 449.781 639.808 499.514 552.825C516.706 522.741 532.744 490.726 549.996 459.495C571.959 419.573 593.386 378.73 618.495 341.047C682.758 244.323 752.708 181.697 848.065 138.074C911.232 109.146 978.997 112.025 1048.6 123.846C1093.51 131.326 1135.48 139.698 1174.36 145.928C1262.93 160.223 1354.09 147.077 1437.07 88.1911C1518.38 30.5195 1539.66 -64.68 1623.67 -114.475C1715.05 -168.605 1847.65 -180.323 1903.23 -273.355" stroke="#C2EDFF" stroke-width="0.75" stroke-linecap="round" stroke-linejoin="round"/>
<path d="M-72.5089 805.402C-20.1358 757.821 78.9642 737.858 141.464 729.495C178.377 724.616 215.42 721.706 252.025 716.661C263.078 715.118 274.023 713.211 285.092 711.721C388.783 697.286 448.399 627.067 497.945 540.419C515.063 510.47 531.23 478.503 548.108 447.464C569.863 407.714 590.938 366.943 615.425 329.013C677.837 232.45 745.72 166.768 839.982 120.83C902.79 90.2231 970.185 92.9255 1039.27 105.404C1083.73 113.434 1125.51 122.879 1164.34 130.565C1252.75 148.072 1345.39 139.135 1429.1 81.5978C1511.06 25.264 1531.08 -71.4682 1613.71 -122.2C1703.08 -177.084 1837.57 -187.589 1892.87 -279.267" stroke="#C2EDFF" stroke-width="0.75" stroke-linecap="round" stroke-linejoin="round"/>
<path d="M-76.8811 781.094C-26.7961 731.737 73.6763 712.992 136.443 706.87C173.705 703.248 211.223 701.927 248.245 698.373C259.439 697.299 270.539 695.913 281.709 694.761C387.513 684.019 447.092 614.347 496.424 528.043C513.422 498.27 529.401 466.441 546.241 435.469C567.814 395.884 588.431 355.216 612.446 317.054C672.846 220.697 738.773 151.843 831.904 103.571C894.213 71.2982 961.348 73.7075 1029.95 86.9741C1073.95 95.475 1115.54 106.046 1154.35 115.181C1242.6 135.924 1336.59 131.209 1421.17 74.949C1503.76 20.0203 1522.49 -78.2964 1603.76 -129.938C1691.16 -185.532 1827.54 -194.909 1882.58 -285.242" stroke="#C2EDFF" stroke-width="0.75" stroke-linecap="round" stroke-linejoin="round"/>
<path d="M-81.2974 756.766C-33.4928 705.657 68.3177 688.114 131.406 684.217C169.019 681.964 206.973 682.101 244.448 680.057C255.782 679.452 267.155 678.497 278.317 677.799C386.208 670.757 445.741 601.607 494.894 515.665C511.914 485.97 527.678 454.288 544.382 423.439C565.714 384.008 586.145 343.392 609.44 305.04C667.894 208.815 731.834 136.882 823.823 86.3356C885.626 52.3706 952.474 54.4943 1020.61 68.5154C1064.26 77.4834 1105.57 89.2103 1144.47 99.8157C1232.56 123.856 1327.99 123.305 1413.33 68.3271C1496.55 14.7438 1514.07 -85.0348 1593.94 -137.691C1679.34 -194.014 1817.6 -202.203 1872.26 -291.186" stroke="#C2EDFF" stroke-width="0.75" stroke-linecap="round" stroke-linejoin="round"/>
<path d="M-85.7284 732.414C-40.204 679.553 62.9527 663.236 126.255 661.596C164.19 660.608 202.643 662.411 240.546 661.799C252.021 661.663 263.56 661.168 274.972 660.823C384.904 657.523 444.437 588.853 493.403 503.247C510.454 473.656 526.01 442.146 542.544 411.402C563.696 372.136 583.774 331.593 606.483 293.012C662.979 196.978 724.802 121.918 815.81 69.0525C877.114 33.4211 943.767 35.3744 1011.34 50.0088C1054.45 59.4111 1095.72 72.2518 1134.39 84.307C1222.34 111.61 1319.2 115.035 1405.34 61.606C1489.08 9.26055 1505.47 -91.8911 1583.92 -145.528C1667.36 -202.535 1807.51 -209.597 1861.86 -297.219" stroke="#C2EDFF" stroke-width="0.75" stroke-linecap="round" stroke-linejoin="round"/>
<path d="M-90.1371 708.106C-46.9243 653.39 57.6359 638.396 121.312 638.966C159.599 639.347 198.492 642.523 236.836 643.481C248.45 643.813 260.183 643.772 271.686 643.825C383.674 644.318 443.226 576.095 492.004 490.826C508.848 461.407 524.427 429.975 540.826 399.355C561.742 360.268 581.56 319.912 603.599 281.014C658.181 185.13 717.989 107.085 807.842 51.8071C868.632 14.4573 934.993 16.0135 1002.13 31.5921C1044.73 41.4809 1085.86 55.406 1124.52 68.9622C1212.38 99.3424 1310.47 107.19 1397.52 55.0305C1481.92 4.049 1497.04 -98.6353 1574.12 -153.234C1655.58 -210.951 1797.59 -216.845 1851.69 -303.069" stroke="#C2EDFF" stroke-width="0.75" stroke-linecap="round" stroke-linejoin="round"/>
<path d="M-94.5396 683.742C-53.5837 627.352 52.296 613.593 116.27 616.311C154.885 617.983 194.272 622.713 233.042 625.188C244.789 625.963 256.689 626.383 268.342 626.845C382.31 631.069 441.923 563.337 490.522 478.43C507.291 449.145 522.761 417.829 538.989 387.314C559.725 348.392 579.193 308.023 600.642 268.982C653.302 173.307 710.965 91.9461 799.804 34.5277C860.272 -4.56731 926.187 -3.25127 992.809 13.1229C1034.97 23.4755 1075.93 38.5522 1114.56 53.5312C1202.36 87.204 1301.79 99.2201 1389.63 48.3611C1474.63 -1.31951 1488.55 -105.414 1564.21 -160.993C1643.66 -219.379 1787.58 -224.153 1841.35 -309.095" stroke="#C2EDFF" stroke-width="0.75" stroke-linecap="round" stroke-linejoin="round"/>
<path d="M-98.9373 659.449C-60.2695 601.281 46.8687 588.746 111.263 593.83C150.196 596.853 190.062 603.085 229.302 607.037C241.189 608.281 253.237 609.195 265.026 610.015C380.995 618.132 440.656 550.754 489.067 466.183C505.761 437.033 521.13 405.859 537.215 375.441C557.717 336.699 576.862 296.309 597.721 257.125C648.449 161.634 703.965 77.0424 791.773 17.4313C851.788 -23.3712 917.472 -22.4414 983.642 -5.17512C1025.36 5.52951 1066.13 21.8771 1104.72 38.279C1192.27 75.2452 1293.34 91.3993 1381.83 41.8521C1467.53 -6.33445 1480.2 -112.047 1554.48 -168.477C1632.02 -227.562 1777.75 -231.211 1831.18 -314.785" stroke="#C2EDFF" stroke-width="0.75" stroke-linecap="round" stroke-linejoin="round"/>
<path d="M-103.373 635.118C-66.9666 575.166 41.5521 563.876 106.167 571.045C145.437 575.384 185.778 583.205 225.455 588.615C237.483 590.327 249.69 591.677 261.63 592.905C379.557 604.872 439.301 537.866 487.525 453.631C504.144 424.615 519.435 393.661 535.334 363.296C555.647 324.693 574.451 284.315 594.694 244.997C643.543 149.675 696.959 62.0084 783.69 0.048276C843.248 -42.376 908.63 -41.7839 974.221 -23.759C1015.49 -12.5311 1056.07 4.91598 1094.66 22.7592C1182.08 63.0145 1284.46 83.3711 1373.82 35.1013C1460.17 -11.6879 1471.65 -118.955 1544.41 -176.507C1620.03 -236.258 1767.6 -238.764 1820.71 -321.003" stroke="#C2EDFF" stroke-width="0.75" stroke-linecap="round" stroke-linejoin="round"/>
<path d="M-107.764 610.784C-73.6649 549.087 36.1811 539.057 101.147 548.359C140.7 554.03 181.52 563.353 221.649 570.274C233.816 572.454 246.198 574.291 258.282 575.902C378.16 591.693 437.994 525.086 486.038 441.212C502.575 412.305 517.71 381.31 533.52 351.226C553.671 312.753 572.21 272.649 591.717 232.89C638.834 137.836 689.808 46.8249 775.607 -17.3843C834.57 -61.7017 899.796 -61.1498 964.887 -42.389C1005.68 -30.6561 1046.1 -12.091 1084.63 7.18264C1171.91 50.7273 1275.72 75.2564 1365.87 28.2864C1452.87 -17.1052 1463.18 -125.764 1534.46 -184.419C1608.32 -244.46 1757.6 -246.069 1810.39 -326.948" stroke="#C2EDFF" stroke-width="0.75" stroke-linecap="round" stroke-linejoin="round"/>
<path d="M-112.163 586.471C-80.3442 523.023 30.7947 514.235 96.1155 525.781C148.216 534.994 202.787 550.539 254.942 558.974C418.581 585.453 470.709 456.556 531.747 339.247C598.959 209.863 647.377 60.0103 767.678 -34.445C862.731 -109.094 974.589 -61.9079 1074.78 -8.02963C1161.89 38.8118 1267.23 67.483 1358.07 21.8434C1445.65 -22.1617 1454.74 -132.421 1524.65 -191.986C1596.4 -253.119 1747.64 -253.367 1800.19 -332.762" stroke="#C2EDFF" stroke-width="0.75" stroke-linecap="round" stroke-linejoin="round"/>
<path d="M-115.794 570.809C-83.9752 507.361 27.1637 498.573 92.4846 510.118C144.585 519.332 199.156 534.877 251.311 543.312C414.95 569.791 467.078 440.894 528.116 323.585C595.328 194.2 643.746 44.3482 764.047 -50.1071C859.1 -124.756 970.958 -77.57 1071.15 -23.6917C1158.26 23.1497 1263.6 51.8209 1354.44 6.18129C1442.02 -37.8238 1451.11 -148.083 1521.02 -207.648C1592.77 -268.782 1744.01 -269.029 1796.56 -348.424" stroke="#C2EDFF" stroke-width="0.75" stroke-linecap="round" stroke-linejoin="round"/>
</g>
</g>
</g>
<defs>
<clipPath id="clip0_122_37">
<rect width="1916" height="798" fill="white"/>
</clipPath>
</defs>
</svg>
