<svg width="1926" height="1231" viewBox="0 0 1926 1231" fill="none" xmlns="http://www.w3.org/2000/svg">
<mask id="mask0_120_2" style="mask-type:alpha" maskUnits="userSpaceOnUse" x="14" y="13" width="1898" height="1203">
<rect x="23.7006" y="13" width="1888.09" height="1187.36" rx="3" transform="rotate(0.468105 23.7006 13)" fill="white"/>
</mask>
<g mask="url(#mask0_120_2)">
<g opacity="0.51">
<path d="M201.442 1640.96C298.756 1614.44 362.074 1560.42 407.814 1494.46C432.461 1458.85 453.412 1419.49 474.339 1378.19C480.427 1366.17 486.418 1354.08 492.628 1342.12C541.399 1247.42 584.329 1149.95 621.188 1050.23C634.292 1014.98 646.852 977.909 661.423 941.635C680.224 894.757 702.009 848.908 732.368 809.598C820.877 695.159 925.831 673.64 1043.5 659.599C1114.37 651.242 1189.8 648.791 1267.67 632.977C1315.72 623.533 1360.71 602.658 1398.68 572.189C1480.71 506.28 1526.74 401.086 1579.86 306.702C1633.39 211.136 1670.23 141.755 1774.5 92.1242C1898.58 33.2391 1985.51 -18.0019 2027.14 -146.382" stroke="#C2EDFF" stroke-width="0.75" stroke-linecap="round" stroke-linejoin="round"/>
<path d="M193.126 1617.58C287.896 1589.68 352.704 1536.58 399.106 1472.74C424.236 1438.32 445.925 1400.41 467.553 1360.55C473.868 1348.94 480.035 1337.27 486.497 1325.71C536.603 1236.1 580.072 1138.95 617.631 1038.04C630.683 1002.93 643.154 965.994 657.586 929.876C676.235 883.189 697.623 837.406 727.403 797.979C813.703 683.978 916.47 659.913 1032.63 643.665C1102.85 633.818 1177.9 631.033 1255.33 616.086C1302.97 607.28 1347.88 587.598 1386.39 558.634C1468.75 495.908 1516.93 394.689 1571.1 301.401C1625.51 207.098 1660.8 136.286 1763.67 86.1721C1885.6 26.7676 1974.66 -23.4935 2016.17 -150.493" stroke="#C2EDFF" stroke-width="0.75" stroke-linecap="round" stroke-linejoin="round"/>
<path d="M184.845 1594.26C277.083 1564.99 343.236 1512.65 390.515 1451.3C416.142 1418.03 438.555 1381.62 460.897 1343.16C467.389 1331.97 473.759 1320.66 480.472 1309.55C532.784 1222.78 576.74 1126.64 614.18 1026.11C627.193 991.111 639.561 954.342 653.817 918.366C672.264 871.894 693.267 826.202 722.516 786.754C806.744 673.096 907.272 646.631 1021.92 628.03C1091.5 616.742 1166.14 613.611 1243.27 599.435C1290.41 591.083 1335.07 572.435 1373.93 544.875C1456.73 485.515 1506.94 388.113 1562 296.028C1617.26 203.012 1650.98 130.744 1752.39 80.0241C1872.17 20.1003 1963.35 -29.2055 2004.79 -154.823" stroke="#C2EDFF" stroke-width="0.75" stroke-linecap="round" stroke-linejoin="round"/>
<path d="M176.623 1570.95C266.329 1540.32 333.899 1488.81 381.925 1429.76C408.035 1397.67 431.185 1362.71 454.252 1325.75C460.97 1314.96 467.543 1304.07 474.483 1293.36C529.037 1209.44 573.455 1114.31 610.74 1014.16C623.737 979.316 636.016 942.679 650.171 906.811C668.466 860.53 689.084 814.929 717.766 775.387C799.921 662.133 898.198 633.242 1011.33 612.325C1080.22 599.583 1154.43 596.118 1231.22 582.761C1277.94 574.936 1322.43 557.354 1361.68 531.206C1444.82 475.138 1497.15 381.578 1553.18 290.66C1609.32 198.907 1641.44 125.231 1741.43 73.858C1859.07 13.4392 1952.3 -34.8515 1993.73 -159.111" stroke="#C2EDFF" stroke-width="0.75" stroke-linecap="round" stroke-linejoin="round"/>
<path d="M168.342 1547.68C255.552 1515.7 324.417 1465.02 373.449 1408.17C400.173 1376.36 424.925 1343.01 447.573 1308.3C454.53 1297.94 461.281 1287.41 468.471 1277.16C525.245 1196.04 570.062 1101.98 607.39 1002.11C620.335 967.409 632.525 930.904 646.566 895.18C664.659 849.114 684.866 803.616 713.031 763.957C793.114 651.106 889.152 619.754 1000.73 596.532C1069.04 582.446 1142.83 578.696 1219.17 565.938C1265.5 558.727 1309.87 542.283 1349.52 517.619C1433.19 464.968 1487.45 375.15 1544.48 285.388C1601.45 194.897 1632.05 119.803 1730.54 67.8115C1846.03 6.87334 1941.65 -40.4091 1982.72 -163.328" stroke="#C2EDFF" stroke-width="0.75" stroke-linecap="round" stroke-linejoin="round"/>
<path d="M160.082 1524.36C244.712 1490.98 315.154 1441.16 364.708 1386.7C391.926 1356.22 417.333 1324.23 440.803 1290.89C447.95 1280.92 454.903 1270.81 462.332 1260.98C521.411 1182.65 566.69 1089.61 603.675 990.228C616.555 955.65 628.668 919.301 642.558 883.708C660.498 837.834 680.371 792.404 707.906 752.71C785.929 640.227 879.729 606.414 989.758 580.887C1057.36 565.214 1130.8 561.263 1206.79 549.361C1258.08 541.324 1300.62 525.506 1336.97 504.157C1421.06 454.823 1477.58 369.019 1535.36 280.251C1593.14 191.484 1622.24 114.509 1719.3 61.9012C1832.62 0.479944 1930.17 -45.935 1971.35 -167.409" stroke="#C2EDFF" stroke-width="0.75" stroke-linecap="round" stroke-linejoin="round"/>
<path d="M151.813 1501.06C233.898 1466.3 305.795 1417.32 356.069 1365.16C383.783 1336.01 409.849 1305.38 434.147 1273.43C441.532 1263.96 448.676 1254.17 456.332 1244.75C517.766 1169.25 563.43 1077.32 600.299 978.2C613.139 943.791 625.162 907.574 638.926 872.1C656.603 826.441 676.177 781.09 703.145 741.303C779.095 629.223 870.657 592.949 979.149 565.142C1046.08 547.978 1119.02 543.79 1194.76 532.636C1245.59 525.173 1288.24 510.472 1324.76 490.545C1409.21 444.492 1467.82 362.541 1526.62 274.917C1585.41 187.294 1612.8 109.055 1708.39 55.8174C1819.59 -6.11046 1919.26 -51.5699 1960.34 -171.675" stroke="#C2EDFF" stroke-width="0.75" stroke-linecap="round" stroke-linejoin="round"/>
<path d="M143.527 1477.75C223.105 1441.61 296.456 1393.48 347.451 1343.63C375.67 1315.8 402.394 1286.54 427.513 1255.98C435.101 1246.86 442.446 1237.49 450.353 1228.52C514.118 1155.8 560.109 1064.86 596.882 966.173C609.67 931.908 621.604 895.823 635.229 860.505C652.803 815.013 671.954 769.802 698.344 729.896C772.233 618.244 861.533 579.46 968.463 549.385C1034.77 530.743 1107.4 526.125 1182.67 515.885C1233.13 508.987 1275.76 495.438 1312.51 476.933C1397.3 434.087 1458.04 356.088 1517.77 269.643C1577.51 183.199 1603.26 103.6 1697.4 49.7208C1806.44 -12.6658 1908.22 -57.1944 1949.24 -175.918" stroke="#C2EDFF" stroke-width="0.75" stroke-linecap="round" stroke-linejoin="round"/>
<path d="M135.279 1454.45C212.313 1416.93 287.219 1369.6 338.846 1322.12C367.461 1295.82 394.262 1268.19 420.879 1238.53C428.669 1229.83 436.242 1220.86 444.325 1212.32C510.532 1142.41 556.786 1052.52 593.465 954.207C606.189 920.063 618.046 884.134 631.544 848.935C648.93 803.623 667.646 758.525 693.455 718.562C765.333 607.315 852.359 565.996 957.739 533.677C1023.41 513.533 1095.59 508.678 1170.51 499.172C1220.6 492.837 1263.21 480.465 1300.25 463.299C1385.36 423.902 1448.26 349.636 1508.95 264.335C1569.64 179.034 1593.78 98.148 1686.42 43.6505C1793.32 -19.231 1897.22 -62.8041 1938.15 -180.134" stroke="#C2EDFF" stroke-width="0.75" stroke-linecap="round" stroke-linejoin="round"/>
<path d="M127.023 1431.16C201.488 1392.26 277.774 1345.81 330.321 1300.55C359.445 1275.42 386.982 1249.24 414.326 1221.01C422.343 1212.71 430.13 1204.13 438.427 1196.02C507.025 1128.96 553.606 1040.05 590.129 942.112C602.801 908.113 614.493 872.351 627.928 837.273C645.148 792.188 663.565 747.171 688.796 707.089C758.59 596.221 843.39 552.405 947.22 517.842C1012.26 496.281 1084.02 491.055 1158.57 482.381C1208.26 476.597 1250.91 465.378 1288.07 449.657C1373.67 413.482 1438.54 343.152 1500.22 259.007C1561.9 174.861 1584.32 92.7114 1675.53 37.5362C1780.3 -25.8402 1886.3 -68.4823 1927.14 -184.419" stroke="#C2EDFF" stroke-width="0.75" stroke-linecap="round" stroke-linejoin="round"/>
<path d="M118.761 1407.83C190.706 1367.59 268.47 1321.98 321.627 1279.04C351.259 1255.08 379.509 1230.37 407.428 1203.65C415.672 1195.75 423.673 1187.6 432.233 1179.98C503.334 1115.73 550.116 1027.86 586.521 930.315C599.152 896.484 610.83 860.82 624.076 825.92C640.972 780.927 659.005 736.001 683.744 695.789C751.437 585.458 834.016 538.963 936.32 502.205C1000.68 479.045 1072.05 473.606 1146.21 465.75C1195.57 460.568 1238.21 450.44 1275.57 436.153C1361.54 403.259 1428.5 336.807 1491.13 253.78C1553.75 170.753 1574.55 87.3525 1664.29 31.5475C1766.94 -32.275 1875.18 -74.0448 1915.79 -188.615" stroke="#C2EDFF" stroke-width="0.75" stroke-linecap="round" stroke-linejoin="round"/>
<path d="M110.476 1384.54C179.902 1342.9 259.158 1298.15 312.998 1257.5C343.163 1234.71 372.138 1211.49 400.77 1186.23C409.227 1178.77 417.443 1171.01 426.169 1163.72C499.785 1102.31 546.746 1015.45 583.019 918.262C595.586 884.552 607.175 849.019 620.281 814.275C637.135 769.572 654.82 724.749 678.917 684.48C744.673 574.518 824.867 525.511 925.62 486.508C989.33 461.822 1060.32 456.232 1134.09 449.098C1183.05 444.406 1225.61 435.514 1263.27 422.59C1349.62 393.001 1418.68 330.427 1482.28 248.592C1545.55 167.152 1565.01 82.0445 1653.29 25.5736C1753.86 -38.7789 1864.04 -79.4749 1904.65 -192.723" stroke="#C2EDFF" stroke-width="0.75" stroke-linecap="round" stroke-linejoin="round"/>
<path d="M102.241 1361.25C169.123 1318.23 249.882 1274.36 304.394 1235.98C335.105 1214.37 364.78 1192.59 394.076 1168.76C402.748 1161.69 411.192 1154.32 420.143 1147.51C496.311 1088.95 543.413 1003.07 579.555 906.243C592.095 872.666 603.581 837.302 616.562 802.677C633.227 758.153 650.55 713.47 674.043 673.094C737.813 563.585 815.697 511.97 914.912 470.748C977.959 444.572 1048.52 438.586 1121.96 432.356C1170.55 428.229 1213.22 420.455 1250.97 408.987C1337.69 382.678 1408.95 323.935 1473.43 243.279C1537.57 163.114 1555.48 76.5987 1642.28 19.4734C1740.65 -45.2539 1852.98 -85.1637 1893.56 -196.957" stroke="#C2EDFF" stroke-width="0.75" stroke-linecap="round" stroke-linejoin="round"/>
<path d="M93.9475 1337.94C158.247 1293.58 240.559 1250.57 295.743 1214.46C326.962 1194.02 357.375 1173.69 387.346 1151.32C396.357 1144.62 404.927 1137.71 414.057 1131.26C492.813 1075.63 540.031 990.686 576.043 894.223C588.53 860.791 599.94 825.583 612.769 791.088C629.257 746.768 646.232 702.189 669.158 661.718C730.892 552.626 806.478 498.428 904.167 455.011C966.552 427.284 1036.68 421.049 1109.77 415.614C1153.25 412.846 1196.37 406.08 1238.58 395.407C1325.71 372.476 1398.92 317.56 1464.48 237.988C1529.49 159.123 1545.95 71.1898 1631.3 13.3625C1727.44 -51.7884 1841.86 -90.816 1882.39 -201.203" stroke="#C2EDFF" stroke-width="0.75" stroke-linecap="round" stroke-linejoin="round"/>
<path d="M85.6859 1314.64C147.492 1268.87 231.307 1226.75 287.174 1192.93C318.963 1173.66 350.088 1154.8 380.759 1133.93C389.972 1127.65 398.769 1121.14 408.089 1115.08C489.432 1062.38 536.756 978.349 572.649 882.272C585.083 848.984 596.392 813.884 609.082 779.545C625.418 735.416 642.044 690.941 664.367 650.364C724.125 541.75 797.341 484.882 893.49 439.306C955.251 410.04 1024.97 403.521 1097.71 398.941C1140.98 396.62 1184.01 390.888 1226.38 381.8C1313.85 362.04 1389.2 311.136 1455.72 232.732C1521.59 155.117 1536.35 65.7261 1620.26 7.37854C1714.38 -58.2652 1830.91 -96.3618 1871.32 -205.404" stroke="#C2EDFF" stroke-width="0.75" stroke-linecap="round" stroke-linejoin="round"/>
<path d="M77.4104 1291.33C136.684 1244.2 222.014 1202.98 278.504 1171.39C310.85 1153.34 342.676 1135.92 373.988 1116.43C383.414 1110.59 392.488 1104.46 401.984 1098.83C485.976 1049.12 533.356 965.958 569.083 870.17C581.465 837.027 592.672 802.034 605.236 767.875C621.394 723.95 637.647 679.59 659.366 638.906C717.163 530.673 788.057 471.234 882.766 423.452C943.854 392.611 1013.18 385.855 1085.59 382.179C1128.66 380.36 1171.57 375.685 1214.01 368.188C1301.84 351.692 1379.44 304.766 1446.8 227.409C1513.48 151.033 1526.8 60.4302 1609.19 1.29442C1701.17 -64.7836 1819.67 -101.915 1860.08 -209.696" stroke="#C2EDFF" stroke-width="0.75" stroke-linecap="round" stroke-linejoin="round"/>
<path d="M69.1862 1268.04C125.916 1219.52 212.786 1179.21 269.923 1149.89C302.802 1133 335.341 1117.05 367.328 1099.01C376.956 1093.59 386.407 1087.79 395.92 1082.57C482.559 1035.85 529.998 953.505 565.641 858.176C577.971 825.178 589.113 790.366 601.538 756.302C617.519 712.58 633.449 668.311 654.577 627.545C710.36 519.839 778.91 457.657 872.005 407.751C932.431 375.36 1001.34 368.378 1073.36 365.4C1116.3 364.071 1159.15 360.444 1201.7 354.537C1289.9 341.313 1369.42 298.177 1437.85 222.119C1505.43 147.03 1517.18 55.0321 1598.06 -4.80685C1687.95 -71.282 1808.72 -107.65 1848.9 -213.907" stroke="#C2EDFF" stroke-width="0.75" stroke-linecap="round" stroke-linejoin="round"/>
<path d="M60.9106 1244.74C115.083 1194.87 203.493 1155.46 261.304 1128.35C294.703 1112.65 327.979 1098.15 360.678 1081.65C370.508 1076.64 380.184 1071.31 389.948 1066.54C479.271 1022.88 526.731 941.335 562.243 846.368C574.545 813.563 585.574 778.834 597.873 744.89C613.576 701.479 629.246 657.242 649.782 616.334C703.591 509.105 769.759 444.229 861.351 392.177C921.116 358.235 989.621 350.993 1061.29 348.87C1107.95 347.477 1150.67 345.476 1189.37 341.131C1277.94 331.188 1359.56 291.929 1429.05 216.992C1497.45 143.202 1507.71 49.8337 1587.12 -10.6956C1674.89 -77.6169 1797.68 -113.043 1837.84 -217.942" stroke="#C2EDFF" stroke-width="0.75" stroke-linecap="round" stroke-linejoin="round"/>
<path d="M52.6333 1221.46C104.35 1170.13 194.26 1131.72 252.694 1106.85C286.662 1092.38 320.627 1079.3 353.942 1064.13C363.986 1059.56 373.912 1054.74 383.968 1050.2C475.973 1009.66 523.456 928.855 558.837 834.249C571.038 801.492 582.026 766.992 594.186 733.203C609.889 689.792 625.058 645.851 644.966 604.848C696.849 498.073 760.562 430.418 850.711 376.342C909.766 340.812 977.905 333.321 1049.18 332.041C1095.54 331.274 1138.23 330.34 1177.21 327.394C1266.13 320.706 1349.91 285.266 1420.32 211.581C1489.59 139.029 1498.32 44.3392 1576.1 -16.8346C1661.79 -84.1285 1786.61 -118.77 1826.7 -222.251" stroke="#C2EDFF" stroke-width="0.75" stroke-linecap="round" stroke-linejoin="round"/>
<path d="M44.3995 1198.15C93.5206 1145.52 185.045 1108.03 244.066 1085.31C278.603 1072.08 313.257 1060.42 347.248 1046.7C357.494 1042.54 367.585 1038.07 377.879 1034.01C472.554 996.634 520.085 916.496 555.285 822.276C567.483 789.7 578.369 755.309 590.427 721.688C605.865 678.551 620.786 634.667 640.09 593.557C689.997 487.26 751.353 416.96 839.963 360.664C898.344 323.559 966.104 315.856 1037.02 315.407C1082.87 315.117 1125.68 315.386 1164.85 313.886C1254.17 310.431 1339.95 278.977 1411.4 206.363C1481.49 135.049 1488.66 39.1698 1565.13 -22.9222C1648.73 -90.6739 1775.64 -124.373 1815.74 -226.568" stroke="#C2EDFF" stroke-width="0.75" stroke-linecap="round" stroke-linejoin="round"/>
<path d="M36.1422 1174.86C82.7193 1120.85 175.759 1084.27 235.465 1063.77C270.547 1051.73 305.914 1041.54 340.593 1029.23C351.053 1025.52 361.358 1021.48 371.83 1017.79C469.198 983.626 516.716 904.155 551.822 810.309C563.956 777.853 574.64 743.677 586.648 710.079C601.908 667.146 616.493 623.39 635.218 582.161C683.1 476.366 742.075 403.311 829.182 344.93C886.878 306.225 954.224 298.176 1024.83 298.656C1070.35 298.821 1113.12 300.338 1152.5 300.237C1242.22 300.111 1330.07 272.486 1402.51 201.028C1473.5 131.038 1479.2 33.6559 1554.11 -28.9946C1635.6 -97.1072 1764.6 -129.985 1804.5 -230.74" stroke="#C2EDFF" stroke-width="0.75" stroke-linecap="round" stroke-linejoin="round"/>
<path d="M27.8309 1151.54C71.8758 1096.16 166.479 1060.53 226.822 1042.23C262.471 1031.48 298.565 1022.66 333.883 1011.79C344.545 1008.49 355.04 1004.85 365.726 1001.6C465.749 970.689 513.304 891.801 548.28 798.317C560.361 766.006 571.181 731.856 582.85 698.507C597.934 655.778 612.182 612.149 630.255 570.777C676.335 465.438 732.779 389.699 818.432 329.208C875.504 288.905 942.458 280.74 1012.65 281.953C1057.82 282.732 1100.58 285.341 1140.14 286.685C1230.21 289.755 1320.21 266.045 1393.58 195.802C1465.43 127.026 1469.64 28.335 1543.04 -35.0186C1622.43 -103.553 1753.48 -135.536 1793.32 -234.91" stroke="#C2EDFF" stroke-width="0.75" stroke-linecap="round" stroke-linejoin="round"/>
<path d="M19.6088 1128.25C61.1096 1071.48 157.263 1036.84 218.23 1020.71C254.425 1011.14 291.243 1003.81 327.213 994.35C338.089 991.491 348.822 988.338 359.662 985.406C462.364 957.798 509.97 879.457 544.79 786.346C556.781 754.228 567.436 720.245 579.079 686.969C594.011 644.431 607.822 600.978 625.392 559.452C669.52 454.64 723.523 376.085 807.685 313.472C863.997 271.605 930.646 263.192 1000.49 265.261C1045.28 266.58 1088.03 270.328 1127.8 273.107C1218.24 279.396 1310.25 259.635 1384.69 190.513C1457.38 123.025 1460.07 22.9752 1531.98 -41.0571C1609.31 -109.976 1742.41 -141.151 1782.21 -239.154" stroke="#C2EDFF" stroke-width="0.75" stroke-linecap="round" stroke-linejoin="round"/>
<path d="M11.3397 1104.95C50.3084 1046.82 147.976 1013.14 209.617 999.156C246.379 990.887 283.862 984.922 320.521 976.882C331.611 974.463 342.682 971.692 353.587 969.209C458.943 944.919 506.588 867.099 541.289 774.375C553.316 742.33 563.782 708.526 575.311 675.394C590.028 633.046 603.666 589.675 620.494 548.077C662.722 443.708 714.269 362.434 796.939 297.76C852.48 254.303 918.8 245.655 988.302 248.543C1032.82 250.379 1075.48 255.314 1115.58 259.53C1206.39 269.099 1300.5 253.217 1375.89 185.237C1449.42 118.975 1450.67 17.6779 1521.04 -47.1308C1596.27 -116.447 1731.42 -146.752 1771.07 -243.364" stroke="#C2EDFF" stroke-width="0.75" stroke-linecap="round" stroke-linejoin="round"/>
<path d="M3.0524 1081.63C39.4889 1022.13 138.682 989.45 200.898 977.657C238.181 970.585 276.424 966.184 313.736 959.488C325.039 957.509 336.349 955.167 347.557 952.992C455.529 932.066 503.252 854.721 537.822 762.358C549.896 730.411 560.185 696.81 571.563 663.809C586.128 621.653 599.429 578.41 615.642 536.681C655.969 432.815 704.925 348.795 786.253 281.989C841.033 236.968 907.133 228.183 976.176 231.767C1020.24 234.118 1063.04 240.159 1103.15 245.842C1194.33 258.655 1290.49 246.468 1366.92 179.888C1441.16 114.764 1441.08 12.2937 1509.89 -53.2553C1583.08 -122.931 1720.28 -152.428 1759.84 -247.646" stroke="#C2EDFF" stroke-width="0.75" stroke-linecap="round" stroke-linejoin="round"/>
<path d="M-5.20586 1058.34C28.6509 997.392 129.442 965.788 192.382 956.116C230.232 950.339 269.13 947.222 307.13 942.005C318.646 940.466 330.22 938.539 341.582 936.743C452.193 919.231 500.006 842.323 534.445 750.322C546.341 718.579 556.667 685.051 567.93 652.194C582.293 610.253 595.367 567.237 610.867 525.302C649.33 421.892 695.816 335.249 775.617 266.249C829.613 219.614 895.362 210.484 964.125 215.07C1007.76 217.984 1050.6 225.117 1090.93 232.283C1182.53 248.148 1280.61 240.127 1358.14 174.655C1433.26 110.771 1431.68 6.9911 1498.97 -59.2855C1570.1 -129.346 1709.31 -157.986 1748.86 -251.785" stroke="#C2EDFF" stroke-width="0.75" stroke-linecap="round" stroke-linejoin="round"/>
<path d="M-13.4671 1035C17.8932 972.763 120.185 942.165 183.764 934.566C222.146 930.009 261.781 928.347 300.445 924.56C312.163 923.436 323.976 921.938 335.552 920.522C448.718 906.373 496.669 829.941 530.99 738.326C542.834 706.727 553.07 673.331 564.183 640.605C578.393 598.856 591.12 555.883 606.015 513.902C642.613 411.008 686.45 321.436 764.905 250.486C818.304 202.18 883.574 192.885 951.962 198.339C995.241 201.78 1038.09 210.078 1078.62 218.654C1170.7 237.777 1270.77 233.656 1349.29 169.34C1425.19 106.645 1422.21 1.66608 1487.95 -65.3508C1556.98 -135.747 1698.26 -163.59 1737.68 -256.07" stroke="#C2EDFF" stroke-width="0.75" stroke-linecap="round" stroke-linejoin="round"/>
<path d="M-21.712 1011.73C7.10418 948.106 110.835 918.513 175.209 913.182C214.122 909.908 254.471 909.652 293.836 907.246C305.769 906.563 317.807 905.529 329.575 904.443C445.341 893.816 493.396 817.725 527.586 726.472C539.378 695.018 549.536 661.779 560.523 629.172C574.532 587.638 586.936 544.696 601.227 502.669C635.947 400.267 677.145 307.852 754.231 234.903C806.908 184.985 871.888 175.345 939.972 181.752C982.872 185.612 1025.73 195.196 1066.46 205.182C1158.82 227.595 1261.17 227.295 1340.55 164.169C1417.39 102.835 1412.89 -3.53799 1477.14 -71.1729C1544.18 -141.953 1687.42 -168.976 1726.73 -260.051" stroke="#C2EDFF" stroke-width="0.75" stroke-linecap="round" stroke-linejoin="round"/>
<path d="M-30.0004 988.431C-3.70324 923.406 101.59 894.821 166.518 891.512C205.975 889.483 247.048 890.718 287.078 889.681C299.225 889.438 311.49 888.808 323.472 888.101C441.79 880.959 489.987 805.222 524.046 714.331C535.786 683.021 545.903 650.012 556.715 617.487C570.559 576.121 582.629 533.246 596.289 491.185C629.183 389.251 667.814 294.139 743.459 219.045C795.425 167.6 860.052 157.676 927.687 164.924C970.229 169.372 1013.08 180.072 1054.04 191.48C1146.79 217.163 1251.11 220.798 1331.56 158.794C1409.26 98.7344 1403.35 -8.9833 1465.92 -77.4817C1530.95 -148.609 1676.19 -174.8 1715.4 -264.506" stroke="#C2EDFF" stroke-width="0.75" stroke-linecap="round" stroke-linejoin="round"/>
<path d="M-38.246 965.118C-14.506 898.743 92.3 871.189 157.916 869.928C197.867 869.168 239.654 871.81 280.374 872.19C292.734 872.387 305.25 872.21 317.435 871.858C438.293 868.176 486.643 792.818 520.583 702.313C532.258 671.123 542.215 638.099 552.984 605.865C566.689 564.653 578.542 522.091 591.406 479.714C622.632 378.323 658.316 280.302 732.68 203.138C783.754 149.92 848.22 139.981 915.48 148.036C957.628 153.061 1000.51 164.888 1041.63 177.718C1134.77 206.669 1241.18 214.195 1322.61 153.346C1401.18 94.5617 1393.89 -14.3422 1454.82 -83.6915C1518.07 -154.823 1665.15 -180.403 1704.26 -268.716" stroke="#C2EDFF" stroke-width="0.75" stroke-linecap="round" stroke-linejoin="round"/>
<path d="M-46.4954 941.828C-25.2876 874.091 82.994 847.555 149.321 848.452C202.225 849.172 258.585 855.744 311.417 855.686C477.185 855.521 507.919 719.921 549.309 594.327C594.852 455.822 618.556 300.136 722.112 187.573C803.931 98.618 921.919 127.212 1029.46 164.287C1122.97 196.519 1231.55 207.887 1313.87 148.241C1393.25 90.7307 1384.49 -19.5548 1443.92 -89.5828C1504.92 -161.454 1654.14 -186.005 1693.25 -272.814" stroke="#C2EDFF" stroke-width="0.75" stroke-linecap="round" stroke-linejoin="round"/>
<path d="M-52.5964 926.953C-31.3885 859.216 76.8931 832.68 143.22 833.577C196.124 834.297 252.484 840.869 305.317 840.811C471.084 840.646 501.818 705.046 543.208 579.452C588.751 440.947 612.455 285.261 716.011 172.698C797.83 83.743 915.818 112.337 1023.36 149.412C1116.87 181.644 1225.45 193.012 1307.77 133.366C1387.14 75.8557 1378.39 -34.4298 1437.82 -104.458C1498.81 -176.329 1648.04 -200.88 1687.15 -287.689" stroke="#C2EDFF" stroke-width="0.75" stroke-linecap="round" stroke-linejoin="round"/>
</g>
</g>
</svg>
