<svg width="19" height="19" viewBox="0 0 19 19" fill="none" xmlns="http://www.w3.org/2000/svg">
<path d="M16.4246 0.334763L16.2743 0.467697L9.50001 7.24233L2.72571 0.467697C2.10227 -0.155886 1.09128 -0.155886 0.467699 0.467697C-0.107909 1.04331 -0.152188 1.94891 0.334763 2.57541L0.467699 2.7257L7.24233 9.49999L0.467699 16.2743C-0.155885 16.8977 -0.155885 17.9087 0.467699 18.5323C1.04331 19.1079 1.94891 19.1522 2.57541 18.6652L2.72571 18.5323L9.5 11.7577L16.2743 18.5323C16.8977 19.1559 17.9087 19.1559 18.5323 18.5323C19.1079 17.9567 19.1522 17.0511 18.6652 16.4246L18.5323 16.2743L11.7577 9.5L18.5323 2.72571C19.1559 2.10227 19.1559 1.09128 18.5323 0.467697C17.9567 -0.10791 17.0511 -0.152188 16.4246 0.334763Z" fill="white"/>
</svg>
