<svg width="19" height="15" viewBox="0 0 19 15" fill="none" xmlns="http://www.w3.org/2000/svg">
<path d="M18.64 4.95313C18.7848 4.83203 19 4.94531 19 5.13672V13.125C19 14.1602 18.2021 15 17.2188 15H1.78125C0.797852 15 0 14.1602 0 13.125V5.14063C0 4.94531 0.211523 4.83594 0.359961 4.95703C1.19121 5.63672 2.29336 6.5 6.07852 9.39453C6.86152 9.99609 8.18262 11.2617 9.5 11.2539C10.8248 11.2656 12.1719 9.97266 12.9252 9.39453C16.7104 6.5 17.8088 5.63281 18.64 4.95313ZM9.5 10C10.3609 10.0156 11.6004 8.85938 12.2238 8.38281C17.1482 4.62109 17.523 4.29297 18.6586 3.35547C18.8738 3.17969 19 2.90625 19 2.61719V1.875C19 0.839844 18.2021 0 17.2188 0H1.78125C0.797852 0 0 0.839844 0 1.875V2.61719C0 2.90625 0.126172 3.17578 0.341406 3.35547C1.47695 4.28906 1.85176 4.62109 6.77617 8.38281C7.39961 8.85938 8.63906 10.0156 9.5 10Z" fill="#1E74BC"/>
</svg>
