<svg width="193" height="69" viewBox="0 0 193 69" fill="none" xmlns="http://www.w3.org/2000/svg">
<path d="M2.33988 68.0714L0 66.4222L33.2235 21.3866L67.0812 52.538L102.194 3.90796L132.386 52.7071L190.573 18.8494L192.053 21.2738L131.4 56.5552L102.01 9.05289L67.5182 56.809L33.6463 25.6435L2.33988 68.0714Z" fill="#FEAF8B"/>
<path d="M102.095 12.9434C100.793 13.0571 99.4874 12.7748 98.3489 12.1336C97.2105 11.4924 96.2923 10.5222 95.7147 9.35012C95.1372 8.17808 94.9272 6.85888 95.1123 5.56544C95.2974 4.272 95.8689 3.06467 96.752 2.10166C97.6351 1.13866 98.7886 0.464917 100.061 0.168755C101.334 -0.127406 102.666 -0.032166 103.884 0.441975C105.101 0.916116 106.147 1.74703 106.884 2.82584C107.622 3.90465 108.016 5.18101 108.015 6.48763C108.08 8.12722 107.494 9.72604 106.385 10.9354C105.276 12.1448 103.734 12.8666 102.095 12.9434ZM102.095 2.83686C101.346 2.71566 100.577 2.82732 99.8935 3.15675C99.2098 3.48618 98.6437 4.0175 98.2716 4.67895C97.8996 5.34041 97.7395 6.10013 97.813 6.85548C97.8865 7.61083 98.19 8.32543 98.6826 8.90275C99.1753 9.48006 99.8332 9.89228 100.568 10.0837C101.302 10.2752 102.077 10.2366 102.789 9.97323C103.501 9.70988 104.115 9.23441 104.548 8.61107C104.98 7.98773 105.212 7.24654 105.21 6.48763C105.28 5.59062 104.991 4.70246 104.407 4.01803C103.823 3.33359 102.992 2.90879 102.095 2.83686Z" fill="#FEAF8B"/>
<path d="M67.2787 60.6295C65.977 60.7431 64.6714 60.4608 63.5329 59.8196C62.3944 59.1784 61.4762 58.2082 60.8987 57.0362C60.3211 55.8641 60.1111 54.5449 60.2962 53.2515C60.4813 51.958 61.0529 50.7507 61.936 49.7877C62.8191 48.8247 63.9725 48.151 65.2452 47.8548C66.5178 47.5586 67.8502 47.6539 69.0677 48.128C70.2853 48.6021 71.3312 49.4331 72.0684 50.5119C72.8055 51.5907 73.1996 52.867 73.1988 54.1737C73.2676 55.8142 72.6831 57.4152 71.5733 58.6254C70.4635 59.8356 68.9191 60.5563 67.2787 60.6295ZM67.2787 50.537C66.5323 50.4009 65.7622 50.498 65.0729 50.815C64.3837 51.132 63.8088 51.6536 63.4264 52.3089C63.0441 52.9641 62.8728 53.7213 62.9359 54.4773C62.999 55.2333 63.2934 55.9516 63.7791 56.5344C64.2648 57.1172 64.9182 57.5363 65.6504 57.7347C66.3827 57.9331 67.1583 57.9012 67.8717 57.6432C68.5852 57.3853 69.2019 56.9139 69.638 56.2931C70.0742 55.6724 70.3085 54.9323 70.3092 54.1737C70.3763 53.2939 70.0969 52.4227 69.5308 51.746C68.9646 51.0692 68.1565 50.6405 67.2787 50.5511V50.537Z" fill="#FEAF8B"/>
<path d="M132.879 60.6295C131.578 60.7431 130.272 60.4608 129.134 59.8196C127.995 59.1784 127.077 58.2082 126.5 57.0362C125.922 55.8641 125.712 54.5449 125.897 53.2515C126.082 51.958 126.654 50.7507 127.537 49.7877C128.42 48.8247 129.573 48.151 130.846 47.8548C132.119 47.5586 133.451 47.6539 134.669 48.128C135.886 48.6021 136.932 49.4331 137.669 50.5119C138.406 51.5907 138.8 52.867 138.8 54.1737C138.865 55.8133 138.279 57.4121 137.17 58.6214C136.061 59.8308 134.519 60.5526 132.879 60.6295ZM132.879 50.537C132.133 50.4009 131.363 50.498 130.674 50.815C129.985 51.132 129.41 51.6536 129.027 52.3089C128.645 52.9641 128.474 53.7213 128.537 54.4773C128.6 55.2333 128.894 55.9516 129.38 56.5344C129.866 57.1172 130.519 57.5363 131.251 57.7347C131.984 57.9331 132.759 57.9012 133.473 57.6432C134.186 57.3853 134.803 56.9139 135.239 56.2931C135.675 55.6724 135.909 54.9323 135.91 54.1737C135.977 53.2939 135.698 52.4227 135.132 51.746C134.565 51.0692 133.757 50.6405 132.879 50.5511V50.537Z" fill="#FEAF8B"/>
<path d="M33.3221 29.408C31.6983 29.2766 30.1835 28.5387 29.0791 27.3412C27.9746 26.1437 27.3613 24.5743 27.3613 22.9452C27.3613 21.3161 27.9746 19.7467 29.0791 18.5492C30.1835 17.3516 31.6983 16.6138 33.3221 16.4823C34.9459 16.6138 36.4607 17.3516 37.5652 18.5492C38.6697 19.7467 39.2829 21.3161 39.2829 22.9452C39.2829 24.5743 38.6697 26.1437 37.5652 27.3412C36.4607 28.5387 34.9459 29.2766 33.3221 29.408ZM33.3221 19.3014C32.4722 19.4607 31.7047 19.9121 31.1524 20.5775C30.6001 21.2429 30.2978 22.0804 30.2978 22.9452C30.2978 23.8099 30.6001 24.6474 31.1524 25.3128C31.7047 25.9782 32.4722 26.4296 33.3221 26.5889C34.1721 26.4296 34.9396 25.9782 35.4919 25.3128C36.0442 24.6474 36.3464 23.8099 36.3464 22.9452C36.3464 22.0804 36.0442 21.2429 35.4919 20.5775C34.9396 19.9121 34.1721 19.4607 33.3221 19.3014Z" fill="#FEAF8B"/>
</svg>
