<svg width="51" height="51" viewBox="0 0 51 51" fill="none" xmlns="http://www.w3.org/2000/svg">
<path d="M25.4996 51C39.5832 51 51 39.5832 51 25.4996C51 11.4168 39.5832 0 25.4996 0C11.4168 0 0 11.4168 0 25.4996C0 39.5832 11.4168 51 25.4996 51Z" fill="white" fill-opacity="0.57"/>
<path d="M35.1519 19.147C35.1029 19.141 35.0529 19.137 35.0019 19.135L34.9239 19.131C34.7969 19.129 34.6699 19.116 34.5459 19.092L34.5119 19.086L34.4859 19.076C34.4269 19.058 34.3689 19.034 34.3149 19.002L34.3049 18.997L34.2939 18.99C34.2469 18.96 34.2029 18.925 34.1629 18.886L34.1429 18.866L34.1209 18.841C34.0789 18.793 34.0409 18.741 34.0069 18.685C33.9979 18.67 33.9889 18.658 33.9799 18.642C33.9669 18.619 33.9529 18.59 33.9399 18.563C33.9289 18.538 33.9149 18.523 33.9039 18.496C33.7819 18.225 33.6849 17.941 33.6149 17.65C33.5969 17.571 33.5849 17.491 33.5769 17.41C33.5689 17.334 33.5669 17.257 33.5699 17.18C33.5719 17.105 33.5809 17.029 33.5939 16.955L33.6039 16.915L33.6049 16.9C33.6099 16.879 33.6149 16.858 33.6199 16.842C33.6279 16.82 33.6339 16.797 33.6389 16.774C33.6669 16.676 33.7009 16.581 33.7409 16.488C33.8119 16.34 33.8979 16.2 33.9989 16.073C34.0839 15.962 34.1849 15.845 34.2899 15.728C34.3219 15.692 34.3529 15.656 34.3869 15.62C34.1399 15.541 33.8989 15.452 33.6569 15.353C33.5839 15.33 33.5169 15.287 33.4649 15.227C33.4249 15.154 33.3969 15.075 33.3809 14.992C33.3069 14.767 33.0999 14.621 32.9969 14.411C32.9389 14.208 32.9249 13.994 32.9569 13.785C32.9879 13.575 33.0639 13.377 33.1789 13.203C33.3519 12.821 33.4949 12.324 33.2339 12C32.8959 12.096 32.5889 12.288 32.3449 12.554C32.1009 12.82 31.9299 13.151 31.8489 13.512C31.7989 13.742 31.7749 14.009 31.5969 14.144C31.4919 14.208 31.3769 14.251 31.2569 14.27C30.9119 14.396 30.5849 14.572 30.2859 14.793C29.9819 15.013 29.6239 15.133 29.2559 15.138C29.0739 15.135 28.8989 15.064 28.7609 14.936C28.6239 14.809 28.5339 14.634 28.5069 14.443C28.3049 14.539 28.0869 14.592 27.8649 14.598C27.6429 14.604 27.4229 14.564 27.2159 14.479C27.0239 14.364 26.8859 14.176 26.6979 14.066C26.6089 14 26.4999 13.972 26.3919 13.988C26.2849 14.003 26.1859 14.061 26.1169 14.15C26.0889 14.217 26.0659 14.287 26.0479 14.359C25.9829 14.49 25.8809 14.596 25.7559 14.662C25.6319 14.727 25.4899 14.75 25.3529 14.725C25.0769 14.699 24.8159 14.573 24.5399 14.521C24.4049 14.483 24.2629 14.483 24.1289 14.523C23.9949 14.562 23.8729 14.639 23.7759 14.746C23.6079 14.981 23.7509 15.421 24.0319 15.395C23.6379 16.007 24.0169 17.016 23.4749 17.482C23.2289 17.696 22.8539 17.717 22.6469 17.973C22.2279 18.496 22.8889 19.339 22.6129 19.956C22.5399 20.09 22.4369 20.203 22.3139 20.284C22.1899 20.365 22.0479 20.413 21.9029 20.421C21.6109 20.431 21.3189 20.389 21.0409 20.296C20.9029 20.272 20.7739 20.207 20.6709 20.107C20.6109 20.019 20.5719 19.917 20.5579 19.809C20.4099 19.152 20.3599 18.474 20.4099 17.801C20.4519 17.551 20.4369 17.295 20.3649 17.053C20.3189 16.932 20.2449 16.824 20.1499 16.741C20.1359 16.808 20.1259 16.869 20.1109 16.936C20.0179 17.381 19.7419 17.763 19.6529 18.207C19.5449 18.715 19.6969 19.264 19.5589 19.761C19.4109 20.145 19.2079 20.503 18.9579 20.822C18.6309 21.348 18.4269 21.949 18.3619 22.575C18.3889 23.202 18.2829 23.828 18.0509 24.406C17.7699 24.892 17.2129 25.164 16.9959 25.687C16.6659 26.498 17.3069 27.491 16.9569 28.292C16.7649 28.731 16.5089 28.946 16.5429 29.453C16.5789 30.013 16.5369 30.575 16.4199 31.122C16.3849 31.294 16.3509 31.493 16.3209 31.702L16.3199 31.703C16.1909 32.645 16.1369 33.848 16.0629 34.329C15.9689 34.915 15.8759 36.061 16.6149 36.092C17.3539 36.123 18.6159 36.453 19.2319 36.092C19.5779 35.888 19.9799 35.816 20.3699 35.888C20.2269 35.571 20.1379 35.295 20.2789 35.182C20.3009 35.165 20.3259 35.152 20.3529 35.144C20.4119 35.128 20.4739 35.121 20.5349 35.123C20.5699 35.125 20.6079 35.133 20.6439 35.138C20.6839 35.143 20.7209 35.144 20.7639 35.153L20.7839 35.159C20.8199 35.164 20.8559 35.173 20.8899 35.186C20.9139 35.19 20.9369 35.197 20.9589 35.207H20.9689L20.9939 35.217C21.0039 35.216 21.0139 35.218 21.0229 35.222L21.0529 35.238C21.1299 35.267 21.2059 35.3 21.2789 35.337C21.3089 35.352 21.3359 35.37 21.3639 35.385L21.3889 35.402C21.4679 35.447 21.5449 35.499 21.6179 35.556C21.6349 35.569 21.6569 35.581 21.6739 35.594C21.6869 35.605 21.6969 35.618 21.7089 35.629L21.7419 35.662C21.7869 35.705 21.8269 35.754 21.8619 35.807L21.8819 35.836C21.8889 35.848 21.8989 35.859 21.9049 35.871C21.9299 35.916 21.9469 35.966 21.9549 36.017C22.0379 36.541 22.6539 37.629 22.9399 37.587C23.0159 37.574 23.0909 37.551 23.1619 37.519C23.2439 37.485 23.3219 37.441 23.3939 37.388L23.4069 37.377C23.4609 37.337 23.5119 37.293 23.5609 37.247C23.5939 37.217 23.6259 37.184 23.6589 37.152C23.7249 37.083 23.7869 37.011 23.8449 36.934C23.8629 36.909 23.8769 36.883 23.8929 36.858L23.9339 36.793L23.9429 36.772C23.9679 36.728 23.9899 36.682 24.0099 36.634C24.0239 36.605 24.0399 36.575 24.0519 36.545V36.542C24.0919 36.449 24.1299 36.367 24.1699 36.294L24.1799 36.276C24.1889 36.26 24.1969 36.241 24.2069 36.227C24.2119 36.215 24.2179 36.204 24.2259 36.195L24.2359 36.185L24.2459 36.18C24.2549 36.163 24.2689 36.15 24.2859 36.143C24.2999 36.129 24.3169 36.118 24.3349 36.112L24.3449 36.106C24.3959 36.089 24.4509 36.087 24.5029 36.101C24.5759 36.122 24.6649 36.143 24.7589 36.169C24.7689 36.169 24.7739 36.174 24.7829 36.174C24.8519 36.195 24.9209 36.221 24.9899 36.248L24.9969 36.251C25.0929 36.287 25.1859 36.33 25.2769 36.378C25.2989 36.39 25.3229 36.397 25.3449 36.41C25.3939 36.436 25.4399 36.468 25.4829 36.504L25.4979 36.514C25.5069 36.52 25.5159 36.527 25.5229 36.535C25.5689 36.569 25.6119 36.608 25.6509 36.65C25.6969 36.696 25.7379 36.747 25.7739 36.802C26.0649 37.236 27.3759 37.325 27.4989 37.325L27.5149 37.321L27.5429 37.311L27.5619 37.303C27.6409 37.259 27.7649 37.162 27.9239 37.077L27.9279 37.074L27.9439 37.066C28.0589 37.005 28.1829 36.963 28.3099 36.941C28.3239 36.938 28.3369 36.934 28.3519 36.933C28.3589 36.929 28.3679 36.927 28.3759 36.928C28.3859 36.928 28.3909 36.922 28.4009 36.922H28.4549C28.5039 36.922 28.5589 36.928 28.6079 36.933C28.6689 36.94 28.7279 36.956 28.7849 36.98C28.8619 37.01 28.9269 37.065 28.9729 37.137C29.0019 37.184 29.0269 37.241 29.0659 37.299C29.0759 37.315 29.0859 37.336 29.1009 37.356L29.1219 37.382C29.1329 37.395 29.1469 37.409 29.1589 37.423C29.1839 37.451 29.2119 37.478 29.2409 37.501C29.2529 37.511 29.2699 37.521 29.2829 37.531C29.3139 37.556 29.3469 37.578 29.3819 37.597C29.3979 37.607 29.4179 37.617 29.4359 37.626C29.4819 37.65 29.5319 37.674 29.5899 37.697C29.6059 37.704 29.6199 37.711 29.6379 37.717C29.7759 37.77 29.8989 37.822 30.0029 37.864C30.0519 37.885 30.1009 37.906 30.1449 37.921C30.3519 38.004 30.4989 38.036 30.6149 37.946V37.945C30.6569 37.91 30.6929 37.866 30.7189 37.815L30.7199 37.814C30.7559 37.746 30.7859 37.673 30.8099 37.599L30.8159 37.581L30.8179 37.574C30.8479 37.481 30.8769 37.37 30.9069 37.238C30.9129 37.211 30.9219 37.189 30.9279 37.164C30.9449 37.1 30.9609 37.035 30.9779 36.975L31.0029 36.905C31.0089 36.888 31.0119 36.869 31.0179 36.852C31.1439 36.525 31.2869 36.205 31.4459 35.894L31.4469 35.893L31.4579 35.867C31.5419 35.694 31.6069 35.513 31.6509 35.325L31.6539 35.314C31.6649 35.248 31.6719 35.18 31.6749 35.113C31.6769 35.064 31.6789 35.015 31.6769 34.965C31.6739 34.904 31.6669 34.843 31.6549 34.782C31.6509 34.758 31.6519 34.736 31.6469 34.711C31.5689 34.384 31.4919 34.111 31.4259 33.899C31.4039 33.828 31.3829 33.764 31.3639 33.706C31.3259 33.592 31.2939 33.504 31.2719 33.445C31.2499 33.387 31.2369 33.357 31.2369 33.357L31.2629 33.287L31.2739 33.256L31.2869 33.226C31.3319 33.104 31.4069 32.905 31.5029 32.651C31.5669 32.481 31.6409 32.286 31.7199 32.075L31.7229 32.068L31.7239 32.064L31.8469 31.74L31.9669 31.42L31.9789 31.388L32.0969 31.075C32.1389 30.972 32.1759 30.873 32.2129 30.771L32.2149 30.764L32.2959 30.552C32.4639 30.105 32.6329 29.661 32.7839 29.263L32.8289 29.146L32.9179 28.911C33.2259 28.105 33.5239 27.375 33.8329 26.684C33.9869 26.338 34.1439 26.001 34.3059 25.67C34.4679 25.338 34.6359 25.011 34.8099 24.684C34.8759 24.56 34.9389 24.437 35.0019 24.313C35.0219 24.272 35.0449 24.231 35.0639 24.191C35.0749 24.17 35.0849 24.148 35.0959 24.127C35.1579 23.999 35.2189 23.873 35.2769 23.747L35.3129 23.668C35.3659 23.552 35.4149 23.436 35.4629 23.322C35.4829 23.276 35.5029 23.23 35.5209 23.183C35.5779 23.041 35.6329 22.9 35.6819 22.761C35.7849 22.471 35.8679 22.173 35.9289 21.87C35.9829 21.606 36.0069 21.335 35.9979 21.065C35.9899 20.733 35.9549 20.404 35.8929 20.079C35.8529 19.844 35.7659 19.622 35.6369 19.427L35.6229 19.409C35.5889 19.365 35.5509 19.325 35.5089 19.291L35.4919 19.277C35.4459 19.241 35.3959 19.213 35.3429 19.192C35.2869 19.172 35.2289 19.157 35.1699 19.149H35.1679L35.1519 19.147Z" fill="#73AF84" stroke="#1A1A18" stroke-width="0.5" stroke-miterlimit="10"/>
</svg>
