<svg width="51" height="51" viewBox="0 0 51 51" fill="none" xmlns="http://www.w3.org/2000/svg">
<path d="M25.4996 51C39.5832 51 51 39.5832 51 25.4996C51 11.4168 39.5832 0 25.4996 0C11.4168 0 0 11.4168 0 25.4996C0 39.5832 11.4168 51 25.4996 51Z" fill="white" fill-opacity="0.57"/>
<path d="M33.132 16.6561C33.125 16.6331 33.119 16.6091 33.111 16.5861C33.098 16.5481 33.083 16.5111 33.069 16.4741C33.052 16.4261 33.037 16.3761 33.016 16.3321L33.005 16.3071C32.97 16.2231 32.93 16.1421 32.886 16.0621C32.855 16.0081 32.831 15.9491 32.802 15.8931C32.764 15.8171 32.723 15.743 32.688 15.666C32.68 15.646 32.67 15.6241 32.661 15.6041C32.541 15.3351 32.438 15.0631 32.343 14.7961C32.238 14.5031 32.138 14.2181 32.033 13.9731C31.995 13.8871 31.946 13.7941 31.9 13.7031C31.853 13.6121 31.811 13.5241 31.764 13.4321C31.728 13.3631 31.693 13.2951 31.66 13.2281C31.645 13.2031 31.635 13.1831 31.625 13.1631H31.622C31.215 13.0931 30.797 13.1631 30.436 13.3631C29.794 13.7171 28.479 13.3941 27.709 13.3631C26.939 13.3321 27.036 12.2111 27.134 11.6371C27.211 11.1661 27.267 9.98805 27.401 9.06705C27.318 9.13505 27.228 9.19506 27.133 9.24506C27.037 9.29606 26.935 9.33705 26.831 9.36905C26.36 9.48005 25.869 9.47807 25.398 9.36307C25.325 9.35207 25.254 9.33006 25.188 9.29706C25.013 9.19906 24.951 8.99006 24.869 8.80506C24.795 8.61706 24.679 8.44905 24.53 8.31305C24.38 8.17705 24.201 8.07707 24.006 8.02207C23.883 7.99407 23.756 7.99306 23.632 8.01706C23.508 8.04106 23.39 8.09105 23.286 8.16205C23.163 8.24605 23.069 8.36705 23.018 8.50705C22.965 8.72305 22.946 8.94606 22.961 9.16706C22.802 10.0481 22.348 10.8481 21.672 11.4361C21.581 11.5261 21.511 11.6341 21.467 11.7541C21.4 11.9691 21.498 12.2041 21.451 12.4251C21.425 12.5131 21.381 12.5951 21.321 12.6651C21.262 12.7351 21.188 12.7921 21.105 12.8321C21.049 12.8611 20.991 12.8851 20.93 12.9021C20.688 12.9481 20.44 12.9541 20.196 12.9181C20.088 12.9151 19.983 12.8871 19.888 12.8361C19.652 12.6921 19.667 12.3541 19.605 12.0831C19.574 11.8831 19.466 11.7041 19.304 11.5821C19.142 11.4611 18.938 11.4071 18.737 11.4331C18.588 11.5041 18.431 11.5591 18.27 11.5961C18.19 11.6021 18.11 11.5811 18.044 11.5351C18.015 11.5951 18 11.6601 18 11.7271C18 11.7941 18.015 11.8591 18.044 11.9191C18.173 12.1751 18.527 12.2061 18.748 12.3901C19.241 12.8051 18.804 13.6241 18.984 14.2391C19.092 14.4601 19.176 14.6921 19.236 14.9301C19.282 15.4781 18.589 15.9541 18.779 16.4771C18.851 16.6771 19.056 16.8411 19.051 17.0561C19.046 17.3171 18.748 17.4601 18.63 17.6911C18.497 17.9451 18.603 18.256 18.573 18.541L18.576 18.5451C18.584 18.5551 18.591 18.5681 18.596 18.5801C19.081 19.3141 19.402 20.1441 19.536 21.0131C19.546 21.1411 19.562 21.2641 19.582 21.3871C19.587 21.4531 19.597 21.5151 19.608 21.5761C19.628 21.6941 19.644 21.8071 19.669 21.9141C19.695 22.0531 19.726 22.1861 19.757 22.3141C19.787 22.4471 19.818 22.5701 19.849 22.6881C19.87 22.7641 19.89 22.8411 19.916 22.9181C19.967 23.0971 20.029 23.2661 20.08 23.4151C20.131 23.5531 20.178 23.6861 20.224 23.7891C20.239 23.8201 20.26 23.8551 20.275 23.8911C20.301 23.9481 20.337 24.0041 20.373 24.0651L20.388 24.0961C20.419 24.1471 20.455 24.1981 20.486 24.2501C20.503 24.2741 20.519 24.3001 20.532 24.3271C20.589 24.4071 20.642 24.4911 20.691 24.5771C20.711 24.6081 20.728 24.6441 20.748 24.6771C20.769 24.7131 20.79 24.7501 20.811 24.7871C20.834 24.8291 20.86 24.8671 20.881 24.9101V24.9151C20.898 24.9451 20.911 24.9771 20.926 25.0071L20.941 25.0371C20.957 25.0701 20.975 25.1011 20.989 25.1361V25.1411C21.012 25.1931 21.03 25.2491 21.048 25.3051L21.065 25.3491C21.07 25.3651 21.077 25.3811 21.082 25.3971C21.097 25.4341 21.108 25.4741 21.112 25.5151C21.123 25.5561 21.128 25.5971 21.138 25.6371C21.138 25.6481 21.143 25.6531 21.143 25.6631C21.149 25.6971 21.153 25.7311 21.154 25.7661C21.162 25.8181 21.165 25.8711 21.164 25.9241V26.0061C21.133 26.7081 21.076 27.5841 21.107 28.1731V28.1831C21.112 28.2601 21.118 28.3311 21.123 28.3981C21.127 28.4411 21.132 28.4781 21.137 28.5141L21.148 28.5781C21.153 28.6041 21.157 28.6311 21.164 28.6541C21.174 28.6851 21.189 28.7261 21.21 28.7821C21.256 28.9001 21.328 29.0741 21.42 29.2941C21.431 29.3151 21.441 29.3351 21.451 29.3611C21.462 29.3861 21.472 29.4071 21.482 29.4321C21.503 29.4841 21.528 29.5351 21.549 29.5861C21.575 29.6421 21.6 29.7041 21.631 29.7701C21.657 29.8321 21.682 29.8981 21.713 29.9651C21.739 30.0261 21.765 30.0881 21.796 30.1491C21.826 30.2261 21.862 30.3081 21.903 30.3901C21.965 30.5391 22.032 30.6871 22.098 30.8461C22.114 30.8821 22.134 30.9231 22.15 30.9641C22.201 31.0811 22.258 31.1991 22.309 31.3221V31.3271C22.448 31.6501 22.596 31.9881 22.735 32.3261C22.807 32.4951 22.879 32.6641 22.946 32.8331C23.203 33.4581 23.444 34.067 23.619 34.579C23.649 34.661 23.675 34.7431 23.701 34.8251C23.726 34.9071 23.752 34.9841 23.773 35.0561C23.809 35.1731 23.844 35.2961 23.875 35.4241C23.9 35.5151 23.92 35.615 23.942 35.709C23.956 35.768 23.97 35.8271 23.984 35.8871C23.999 35.9531 24.016 36.0121 24.029 36.0801C24.055 36.1871 24.081 36.3051 24.101 36.4181V36.428C24.115 36.496 24.126 36.5661 24.139 36.6351C24.152 36.7001 24.164 36.7671 24.176 36.8331C24.219 37.0691 24.26 37.3041 24.298 37.5421L24.313 37.6381C24.333 37.7641 24.355 37.8911 24.373 38.0161L24.399 38.2051C24.456 38.5971 24.506 38.9751 24.549 39.3181C24.562 39.4291 24.576 39.541 24.589 39.644C24.62 39.88 24.64 40.0951 24.661 40.2791C24.671 40.3721 24.682 40.4541 24.687 40.5251C24.702 40.6741 24.712 40.786 24.718 40.858C24.737 41.108 24.795 41.3531 24.887 41.5851C24.901 41.6241 24.918 41.6621 24.938 41.6981C24.951 41.7241 24.965 41.749 24.978 41.772L24.987 41.7881C25.011 41.8251 25.038 41.8611 25.069 41.8931L25.079 41.9031C25.096 41.9181 25.114 41.932 25.134 41.944C25.148 41.962 25.168 41.975 25.19 41.98L25.2 41.9851C25.226 41.9951 25.254 42.0001 25.281 42.0001C25.392 41.9981 25.517 41.9161 25.655 41.7151C25.694 41.6581 25.725 41.604 25.76 41.548C25.787 41.505 25.819 41.4591 25.842 41.4161L25.873 41.3611C25.915 41.2861 25.957 41.2111 25.992 41.1411C26.081 40.9631 26.149 40.8001 26.205 40.6561C26.233 40.5841 26.258 40.517 26.282 40.454C26.323 40.327 26.377 40.204 26.444 40.087C26.451 40.076 26.459 40.0601 26.467 40.0501L26.471 40.0471C26.493 40.0231 26.521 40.0041 26.551 39.9911L26.575 39.983C26.609 39.971 26.645 39.963 26.681 39.959L26.701 39.957C26.754 39.952 26.806 39.952 26.859 39.957C26.88 39.957 26.895 39.962 26.91 39.962C26.931 39.967 26.951 39.967 26.967 39.972L27.012 39.9811L27.047 39.9871L27.075 39.9921L27.188 40.0231L27.22 40.035L27.225 40.0371C27.248 40.0461 27.272 40.0541 27.295 40.0641L27.325 40.079C27.371 40.098 27.416 40.1211 27.46 40.1461C27.476 40.1551 27.495 40.1621 27.511 40.1721L27.54 40.194L27.561 40.2101C27.574 40.2191 27.587 40.228 27.598 40.238C27.623 40.259 27.648 40.2811 27.67 40.3051C27.701 40.3411 27.742 40.3871 27.788 40.4431C27.835 40.5001 27.886 40.5561 27.948 40.6221C28.136 40.8401 28.339 41.0451 28.554 41.2371L28.609 41.2841C28.644 41.3131 28.679 41.3401 28.713 41.3661L28.769 41.4061L28.818 41.4381C28.855 41.4621 28.892 41.4841 28.928 41.5031C28.945 41.5111 28.962 41.5211 28.98 41.5291L29.002 41.5391C29.046 41.5581 29.091 41.571 29.138 41.579C29.147 41.582 29.156 41.5841 29.165 41.5851C29.23 41.5911 29.296 41.6011 29.36 41.6161C29.473 41.6421 29.581 41.6721 29.689 41.6931C29.771 41.7121 29.855 41.7241 29.94 41.7271C29.955 41.7271 29.969 41.726 29.984 41.725C30.004 41.723 30.026 41.7221 30.043 41.7181C30.073 41.7101 30.102 41.698 30.129 41.683L30.13 41.6821C30.168 41.6591 30.198 41.6251 30.218 41.5851C30.233 41.5591 30.245 41.531 30.254 41.501C30.269 41.446 30.277 41.3881 30.277 41.3301C30.277 41.2711 30.274 41.2101 30.272 41.1491C30.271 41.1081 30.27 41.0671 30.267 41.0261C30.258 40.8621 30.245 40.6961 30.232 40.5331C30.225 40.4451 30.218 40.358 30.213 40.272C30.2 40.092 30.2 39.9121 30.212 39.7311L30.215 39.7011C30.223 39.6021 30.243 39.504 30.277 39.41C30.302 39.351 30.34 39.2991 30.387 39.2551C30.442 39.2031 30.502 39.1571 30.567 39.1171C30.603 39.0961 30.639 39.0761 30.68 39.0551C30.705 39.0421 30.733 39.0301 30.759 39.0171L30.796 38.9971L30.823 38.9861L30.859 38.9681C30.879 38.9601 30.899 38.954 30.919 38.946C31.076 38.88 31.235 38.822 31.383 38.772L31.434 38.7531C31.489 38.7361 31.532 38.7211 31.577 38.7061L31.683 38.6691C31.704 38.6631 31.724 38.6551 31.743 38.6461L31.758 38.6401C31.794 38.6301 31.829 38.615 31.86 38.595L31.863 38.5931C31.896 38.5741 31.944 38.5391 31.994 38.5031L32.07 38.4451C32.118 38.4071 32.169 38.3651 32.223 38.3201L32.252 38.295C32.306 38.249 32.36 38.1991 32.412 38.1491C32.48 38.0821 32.545 38.0121 32.606 37.9391C32.643 37.8961 32.675 37.8531 32.703 37.8121C32.758 37.7421 32.793 37.6591 32.803 37.5721C32.81 37.4741 32.825 37.3761 32.848 37.2811C32.859 37.2241 32.87 37.1631 32.88 37.0981L32.882 37.0851C32.888 37.0391 32.892 36.9891 32.896 36.9401C32.902 36.8761 32.903 36.8071 32.901 36.7371C32.899 36.6401 32.889 36.5431 32.87 36.4471C32.862 36.4061 32.854 36.3651 32.842 36.3231C32.823 36.2541 32.799 36.1861 32.771 36.1191L32.737 36.0441C32.694 35.9521 32.644 35.8631 32.588 35.7791C32.473 35.6111 32.349 35.449 32.216 35.295C31.903 35.013 31.65 34.6711 31.473 34.2891C31.365 34.0771 31.269 33.8591 31.185 33.6371C31.177 33.6051 31.171 33.5691 31.165 33.5291L31.159 33.4841C31.139 33.2541 31.13 33.0241 31.134 32.7931C31.134 32.5221 31.147 32.2331 31.164 31.9451C31.172 31.7901 31.182 31.6361 31.192 31.4851C31.211 31.1971 31.229 30.9201 31.237 30.6741C31.241 30.5621 31.242 30.4591 31.24 30.3621L31.239 30.3121C31.237 30.2161 31.232 30.1271 31.223 30.0521C31.215 29.9821 31.199 29.9141 31.175 29.8491C31.154 29.7961 31.128 29.7141 31.098 29.6131C31.042 29.4221 30.973 29.1571 30.907 28.8731L30.882 28.7681C30.818 28.4901 30.758 28.2001 30.712 27.9411L30.701 27.8781C30.659 27.6701 30.635 27.4581 30.628 27.2461V27.2421C30.63 27.1731 30.641 27.1291 30.662 27.1191L30.664 27.1181C30.704 27.1001 30.745 27.0831 30.787 27.0711L30.798 27.0691C30.829 27.0601 30.864 27.0551 30.9 27.0481C30.922 27.0441 30.942 27.0391 30.967 27.0361C30.999 27.0301 31.032 27.0261 31.065 27.0251H31.101C31.145 27.0251 31.19 27.0261 31.234 27.0311C31.27 27.0351 31.306 27.0411 31.341 27.0501L31.361 27.0531L31.378 27.0561C31.431 27.0631 31.483 27.077 31.532 27.097C31.587 27.114 31.64 27.1351 31.691 27.1591C31.722 27.1721 31.753 27.1831 31.786 27.1911L31.8 27.1961C31.826 27.2071 31.853 27.2151 31.881 27.2201C32.016 27.2511 32.156 27.2561 32.292 27.2351H32.313C32.343 27.2321 32.372 27.2251 32.4 27.2151C32.452 27.2091 32.502 27.1951 32.549 27.1741C32.601 27.1601 32.651 27.1391 32.699 27.1141L32.73 27.1011L32.734 27.097C32.776 27.073 32.816 27.0451 32.854 27.0141L32.865 27.0061C32.904 26.9731 32.941 26.9371 32.975 26.8981C32.995 26.8761 33.014 26.8541 33.032 26.8311C33.044 26.8151 33.054 26.7961 33.065 26.7791C33.098 26.7251 33.124 26.6671 33.142 26.6071C33.152 26.5731 33.169 26.5341 33.181 26.4971C33.358 26.0681 33.556 25.6471 33.775 25.2371C33.809 25.1681 33.838 25.1051 33.866 25.0421C33.889 24.9921 33.911 24.9431 33.926 24.9011C33.939 24.8671 33.956 24.8301 33.965 24.8001L33.972 24.7771C33.988 24.7331 33.997 24.6871 34 24.6401C34 24.5681 33.992 24.4961 33.975 24.4251C33.94 24.2811 33.868 24.149 33.766 24.041C33.708 23.978 33.643 23.9221 33.574 23.8721C33.532 23.8431 33.493 23.8101 33.457 23.7751C33.139 23.4561 32.937 23.0391 32.886 22.5921C32.886 22.4321 32.838 22.1111 32.794 21.7491C32.779 21.6281 32.765 21.5031 32.753 21.3771L32.75 21.3361L32.749 21.3251C32.744 21.2791 32.744 21.2281 32.739 21.1821L32.738 21.1601C32.732 21.0731 32.728 20.9901 32.726 20.9071C32.726 20.8741 32.723 20.8381 32.723 20.8081L32.726 20.7471C32.726 20.7191 32.724 20.6881 32.725 20.6611C32.727 20.6301 32.733 20.6061 32.736 20.5761L32.739 20.5371C32.738 20.5201 32.74 20.5021 32.744 20.4861L32.751 20.4481C32.755 20.4231 32.756 20.3931 32.761 20.3701C32.765 20.3541 32.772 20.3451 32.777 20.3301C32.781 20.3111 32.785 20.2921 32.79 20.2761C32.802 20.2411 32.817 20.2081 32.837 20.1781L32.844 20.1591C33.182 19.5301 33.359 18.8271 33.358 18.1121V18.1111C33.343 17.9191 33.327 17.6791 33.292 17.4181L33.282 17.3551C33.266 17.2321 33.242 17.1041 33.214 16.9751C33.207 16.9421 33.201 16.9101 33.194 16.8771C33.176 16.8031 33.154 16.7301 33.132 16.6561Z" fill="#FDDB61" stroke="#1A1A18" stroke-width="0.5" stroke-miterlimit="10"/>
</svg>
