<svg width="38" height="41" viewBox="0 0 38 41" fill="none" xmlns="http://www.w3.org/2000/svg">
<rect x="1.5" width="35" height="35" rx="5" fill="#FFCFCF"/>
<g filter="url(#filter0_d_51_111)">
<rect x="4.125" y="2.625" width="29.75" height="29.75" rx="5" fill="white"/>
</g>
<path d="M15.0815 10.5H21.4334C23.0314 11.6483 24.4247 13.0647 25.5535 14.6883V24.6016H15.0815V10.5Z" fill="url(#paint0_linear_51_111)"/>
<path d="M15.0815 10.5H21.4334C23.0314 11.6483 24.4247 13.0647 25.5535 14.6883V24.6016H15.0815V10.5Z" stroke="#C8C8C8" stroke-width="0.5"/>
<path d="M21.4319 10.5C23.0279 11.6511 24.4211 13.067 25.553 14.6883C25.1767 14.2958 24.7204 13.9915 24.2161 13.7967C23.7118 13.6019 23.1716 13.5212 22.6333 13.5603C22.7101 12.9884 22.6398 12.4061 22.4293 11.8699C22.2188 11.3336 21.8752 10.8617 21.4319 10.5V10.5Z" fill="url(#paint1_linear_51_111)"/>
<path d="M21.4319 10.5C23.0279 11.6511 24.4211 13.067 25.553 14.6883C25.1767 14.2958 24.7204 13.9915 24.2161 13.7967C23.7118 13.6019 23.1716 13.5212 22.6333 13.5603C22.7101 12.9884 22.6398 12.4061 22.4293 11.8699C22.2188 11.3336 21.8752 10.8617 21.4319 10.5V10.5Z" stroke="#C8C8C8" stroke-width="0.5"/>
<path d="M13.0408 12.3522H20.7617V13.8523H13.0408V12.3522Z" stroke="#C8C8C8" stroke-width="4"/>
<path d="M18.7795 19.7748C19.0347 19.2669 19.3271 18.6952 19.5571 18.1207L19.6491 17.894C19.3457 16.7228 19.1639 15.7826 19.3265 15.1748C19.3606 15.0929 19.4195 15.0242 19.4945 14.9785C19.5696 14.9327 19.6571 14.9124 19.7443 14.9203H19.8834C20.1485 14.9164 20.2728 15.2581 20.287 15.3909C20.289 15.5922 20.263 15.7927 20.2098 15.9866C20.2228 15.7805 20.1928 15.5739 20.1216 15.3804C20.0121 15.1365 19.9075 14.9914 19.8139 14.9676C19.7806 14.9949 19.7535 15.0293 19.7346 15.0684C19.7157 15.1074 19.7054 15.1502 19.7044 15.1937C19.6766 15.3662 19.6625 15.5406 19.6622 15.7154C19.6751 16.2292 19.7548 16.7391 19.8993 17.2317C19.9289 17.145 19.9541 17.0617 19.976 16.9833C20.0083 16.86 20.2131 16.0438 20.2131 16.0438C20.2131 16.0438 20.1616 17.1306 20.0893 17.4589C20.074 17.5284 20.057 17.5973 20.0389 17.6673C20.2814 18.3727 20.6837 19.0104 21.2135 19.5292C21.4216 19.7123 21.6494 19.8711 21.8925 20.0026C22.3487 19.9328 22.8094 19.8977 23.2708 19.8976C23.6408 19.8597 24.013 19.9441 24.332 20.1381C24.4023 20.2101 24.4438 20.3059 24.4487 20.4071C24.4463 20.4599 24.4388 20.5124 24.4262 20.5637C24.4317 20.5354 24.4317 20.3971 24.0128 20.2604C23.4551 20.1527 22.8833 20.1446 22.3229 20.2365C23.1804 20.6621 24.0166 20.8738 24.2811 20.7471C24.3369 20.7092 24.3855 20.6614 24.4246 20.606C24.4062 20.6979 24.3794 20.788 24.3446 20.8749C24.2918 20.9429 24.2198 20.9929 24.1382 21.0182C23.7198 21.1294 22.6312 20.8693 21.6822 20.3193C20.6109 20.4862 19.5546 20.7409 18.5238 21.081C17.6066 22.7123 16.9166 23.4613 16.3559 23.1763L16.1494 23.0713C16.1118 23.0405 16.0842 22.9988 16.0705 22.9518C16.0567 22.9047 16.0573 22.8546 16.0722 22.8079C16.1374 22.4834 16.5388 21.9939 17.3448 21.5055C17.4313 21.45 17.8179 21.2449 17.8179 21.2449C17.8179 21.2449 17.5315 21.5261 17.4647 21.5811C16.8213 22.1161 16.3466 22.789 16.3581 23.0501V23.0729C16.9056 22.994 17.7243 21.865 18.7778 19.7731L18.7795 19.7748ZM19.1119 19.9465C18.9466 20.2601 18.7776 20.5716 18.6048 20.881C19.4833 20.5238 20.3964 20.2616 21.329 20.0987C21.2086 20.0146 21.0922 19.9247 20.9802 19.8292C20.4993 19.4084 20.1081 18.8924 19.8303 18.3129C19.6272 18.8736 19.3862 19.4194 19.1091 19.9465" fill="#F91D0A"/>
<path d="M12.1709 11.5033H21.6244V14.7275H12.1709V11.5033Z" fill="url(#paint2_linear_51_111)"/>
<path d="M21.8051 14.921H12V11.31H21.8051V14.921ZM21.453 11.6678H12.3526V14.562H21.453V11.6678Z" fill="url(#paint3_linear_51_111)"/>
<path d="M14.6421 11.9765H15.3299C15.4167 11.9708 15.5037 11.9843 15.5849 12.0161C15.6661 12.0478 15.7396 12.0971 15.8002 12.1604C15.9182 12.3065 15.9769 12.4926 15.9645 12.681C15.9769 12.8703 15.9182 13.0572 15.8002 13.2044C15.7394 13.2674 15.6659 13.3163 15.5847 13.3478C15.5035 13.3792 15.4166 13.3925 15.3299 13.3866H15.0561V14.1362H14.6421V11.9765ZM15.0566 12.3798V12.9833H15.2861C15.3209 12.9853 15.3557 12.9793 15.388 12.9657C15.4202 12.9521 15.449 12.9314 15.4722 12.9049C15.5192 12.841 15.5424 12.7623 15.5379 12.6827C15.543 12.603 15.5197 12.5241 15.4722 12.4604C15.449 12.4339 15.4202 12.4131 15.388 12.3996C15.3558 12.386 15.3209 12.38 15.2861 12.3821H15.0566V12.3798ZM16.6714 12.3993V13.7156H16.8198C16.8928 13.7205 16.9659 13.708 17.0332 13.6791C17.1006 13.6501 17.1603 13.6055 17.2075 13.5489C17.3064 13.4053 17.3539 13.2318 17.3422 13.0571C17.3539 12.8835 17.3068 12.711 17.2086 12.5682C17.1611 12.5116 17.1012 12.467 17.0337 12.4381C16.9662 12.4091 16.893 12.3966 16.8198 12.4015H16.6714V12.3993ZM16.2569 11.9804H16.695C16.878 11.9709 17.0612 11.9936 17.2366 12.0476C17.359 12.0959 17.4656 12.1781 17.5443 12.2848C17.6212 12.3852 17.6783 12.4998 17.7124 12.6221C17.7507 12.763 17.7692 12.9088 17.7672 13.0549C17.7692 13.2024 17.7507 13.3494 17.7124 13.4916C17.6783 13.614 17.6212 13.7285 17.5443 13.8289C17.4646 13.9359 17.3574 14.0186 17.2344 14.0678C17.0587 14.1219 16.8752 14.1454 16.6917 14.1373H16.2536V11.9765L16.2569 11.9804ZM18.0837 11.9765H19.2079V12.3976H18.5015V12.7993H19.1635V13.2205H18.5015V14.1362H18.087V11.9765" fill="#FFF9F9"/>
<path d="M14.0576 23.6669H26.3076V25.4169H14.0576V23.6669Z" fill="url(#paint4_linear_51_111)"/>
<defs>
<filter id="filter0_d_51_111" x="0.125" y="2.625" width="37.75" height="37.75" filterUnits="userSpaceOnUse" color-interpolation-filters="sRGB">
<feFlood flood-opacity="0" result="BackgroundImageFix"/>
<feColorMatrix in="SourceAlpha" type="matrix" values="0 0 0 0 0 0 0 0 0 0 0 0 0 0 0 0 0 0 127 0" result="hardAlpha"/>
<feOffset dy="4"/>
<feGaussianBlur stdDeviation="2"/>
<feComposite in2="hardAlpha" operator="out"/>
<feColorMatrix type="matrix" values="0 0 0 0 0 0 0 0 0 0 0 0 0 0 0 0 0 0 0.25 0"/>
<feBlend mode="normal" in2="BackgroundImageFix" result="effect1_dropShadow_51_111"/>
<feBlend mode="normal" in="SourceGraphic" in2="effect1_dropShadow_51_111" result="shape"/>
</filter>
<linearGradient id="paint0_linear_51_111" x1="18.1385" y1="21.5466" x2="22.0992" y2="14.4917" gradientUnits="userSpaceOnUse">
<stop stop-color="white"/>
<stop offset="1" stop-color="#E1E1E1"/>
</linearGradient>
<linearGradient id="paint1_linear_51_111" x1="23.0172" y1="13.0386" x2="23.6209" y2="12.4901" gradientUnits="userSpaceOnUse">
<stop stop-color="white"/>
<stop offset="1" stop-color="#C8C8C8"/>
</linearGradient>
<linearGradient id="paint2_linear_51_111" x1="17.8159" y1="15.9832" x2="15.9304" y2="10.2637" gradientUnits="userSpaceOnUse">
<stop offset="0.127" stop-color="#8A0000"/>
<stop offset="0.244" stop-color="#900000" stop-opacity="0.999"/>
<stop offset="0.398" stop-color="#A00000" stop-opacity="0.999"/>
<stop offset="0.573" stop-color="#BC0000" stop-opacity="0.998"/>
<stop offset="0.761" stop-color="#E20000" stop-opacity="0.997"/>
<stop offset="0.867" stop-color="#FA0000" stop-opacity="0.996"/>
</linearGradient>
<linearGradient id="paint3_linear_51_111" x1="17.8937" y1="16.2106" x2="15.8591" y2="10.0378" gradientUnits="userSpaceOnUse">
<stop offset="0.315" stop-color="#5E0000"/>
<stop offset="0.444" stop-color="#830000" stop-opacity="0.999"/>
<stop offset="0.618" stop-color="#AE0000" stop-opacity="0.998"/>
<stop offset="0.775" stop-color="#CD0000" stop-opacity="0.997"/>
<stop offset="0.908" stop-color="#E00000" stop-opacity="0.996"/>
<stop offset="1" stop-color="#E70000" stop-opacity="0.996"/>
</linearGradient>
<linearGradient id="paint4_linear_51_111" x1="21.3726" y1="26.0984" x2="20.9062" y2="22.7211" gradientUnits="userSpaceOnUse">
<stop offset="0.127" stop-color="#8A0000"/>
<stop offset="0.244" stop-color="#900000" stop-opacity="0.999"/>
<stop offset="0.398" stop-color="#A00000" stop-opacity="0.999"/>
<stop offset="0.573" stop-color="#BC0000" stop-opacity="0.998"/>
<stop offset="0.761" stop-color="#E20000" stop-opacity="0.997"/>
<stop offset="0.867" stop-color="#FA0000" stop-opacity="0.996"/>
</linearGradient>
</defs>
</svg>
