<svg width="39" height="41" viewBox="0 0 39 41" fill="none" xmlns="http://www.w3.org/2000/svg">
<rect x="1.66666" width="35" height="35" rx="5" fill="#FFE9AE"/>
<g filter="url(#filter0_d_51_125)">
<rect x="4.29166" y="2.625" width="29.75" height="29.75" rx="5" fill="white"/>
</g>
<path d="M22.4107 21.9508V22.2796H21.3954V21.9508H22.4107ZM21.6468 21.5205H22.1109V23.1692C22.1109 23.2197 22.1174 23.2583 22.1303 23.2852C22.1442 23.3121 22.1647 23.3309 22.1915 23.3416C22.2184 23.3513 22.2522 23.3561 22.293 23.3561C22.3221 23.3561 22.3478 23.355 22.3704 23.3529C22.394 23.3497 22.4139 23.3464 22.43 23.3432L22.4316 23.6849C22.3919 23.6978 22.3489 23.708 22.3027 23.7155C22.2565 23.723 22.2055 23.7268 22.1496 23.7268C22.0475 23.7268 21.9584 23.7101 21.8821 23.6768C21.8069 23.6424 21.7489 23.5877 21.708 23.5124C21.6672 23.4372 21.6468 23.3384 21.6468 23.2159V21.5205Z" fill="#D3B155"/>
<path d="M20.161 22.3231V23.6946H19.6969V21.9508H20.132L20.161 22.3231ZM20.0933 22.7614H19.9676C19.9676 22.6325 19.9843 22.5165 20.0176 22.4133C20.0509 22.3091 20.0976 22.2205 20.1578 22.1474C20.218 22.0733 20.2894 22.0169 20.3721 21.9782C20.4559 21.9385 20.5494 21.9186 20.6525 21.9186C20.7342 21.9186 20.8089 21.9304 20.8766 21.954C20.9442 21.9777 21.0023 22.0153 21.0506 22.0668C21.1 22.1184 21.1376 22.1866 21.1634 22.2715C21.1903 22.3564 21.2037 22.4601 21.2037 22.5826V23.6946H20.7363V22.5809C20.7363 22.5036 20.7256 22.4434 20.7041 22.4004C20.6826 22.3575 20.6509 22.3274 20.609 22.3102C20.5682 22.2919 20.5177 22.2828 20.4575 22.2828C20.3952 22.2828 20.341 22.2952 20.2948 22.3199C20.2496 22.3446 20.212 22.379 20.182 22.423C20.153 22.466 20.1309 22.5165 20.1159 22.5745C20.1008 22.6325 20.0933 22.6948 20.0933 22.7614Z" fill="#D3B155"/>
<path d="M19.3226 21.9508V23.6945H18.8568V21.9508H19.3226ZM18.8278 21.4963C18.8278 21.4286 18.8515 21.3728 18.8987 21.3287C18.946 21.2847 19.0094 21.2626 19.0889 21.2626C19.1673 21.2626 19.2302 21.2847 19.2775 21.3287C19.3258 21.3728 19.35 21.4286 19.35 21.4963C19.35 21.564 19.3258 21.6199 19.2775 21.6639C19.2302 21.708 19.1673 21.73 19.0889 21.73C19.0094 21.73 18.946 21.708 18.8987 21.6639C18.8515 21.6199 18.8278 21.564 18.8278 21.4963Z" fill="#D3B155"/>
<path d="M18.0881 22.3311V23.6946H17.624V21.9508H18.0607L18.0881 22.3311ZM18.6135 21.9395L18.6055 22.3698C18.5829 22.3666 18.5555 22.3639 18.5233 22.3618C18.4921 22.3585 18.4636 22.3569 18.4378 22.3569C18.3723 22.3569 18.3154 22.3655 18.267 22.3827C18.2197 22.3988 18.18 22.423 18.1478 22.4552C18.1166 22.4875 18.093 22.5267 18.0769 22.5729C18.0618 22.6191 18.0532 22.6717 18.0511 22.7308L17.9576 22.7018C17.9576 22.589 17.9689 22.4853 17.9914 22.3908C18.014 22.2952 18.0468 22.2119 18.0897 22.141C18.1338 22.0701 18.1875 22.0153 18.2509 21.9766C18.3143 21.9379 18.3868 21.9186 18.4685 21.9186C18.4943 21.9186 18.5206 21.9207 18.5474 21.925C18.5743 21.9282 18.5963 21.9331 18.6135 21.9395Z" fill="#D3B155"/>
<path d="M16.4396 22.8581H15.8417V22.481H16.4396C16.532 22.481 16.6072 22.4659 16.6652 22.4359C16.7232 22.4047 16.7657 22.3617 16.7925 22.3069C16.8194 22.2521 16.8328 22.1904 16.8328 22.1216C16.8328 22.0518 16.8194 21.9868 16.7925 21.9266C16.7657 21.8664 16.7232 21.8181 16.6652 21.7815C16.6072 21.745 16.532 21.7267 16.4396 21.7267H16.0093V23.6945H15.5258V21.348H16.4396C16.6233 21.348 16.7807 21.3813 16.9118 21.4479C17.0439 21.5135 17.1449 21.6043 17.2148 21.7203C17.2846 21.8363 17.3195 21.969 17.3195 22.1184C17.3195 22.2699 17.2846 22.4009 17.2148 22.5116C17.1449 22.6223 17.0439 22.7077 16.9118 22.7678C16.7807 22.828 16.6233 22.8581 16.4396 22.8581Z" fill="#D3B155"/>
<path d="M25.5987 13.0577H12.8196C12.1687 13.0577 11.5445 13.3019 11.0842 13.7366C10.624 14.1713 10.3654 14.7609 10.3654 15.3756V21.6899C10.3654 22.2835 10.615 22.8527 11.0594 23.2724C11.5038 23.6921 12.1065 23.9279 12.735 23.9279H13.0735V25.5137C13.0735 25.941 13.2533 26.3509 13.5732 26.6531C13.8932 26.9552 14.3272 27.125 14.7797 27.125H23.5541C24.0065 27.125 24.4405 26.9552 24.7605 26.6531C25.0804 26.3509 25.2602 25.941 25.2602 25.5137V23.9279H25.5987C26.2272 23.9279 26.8299 23.6921 27.2743 23.2724C27.7187 22.8527 27.9683 22.2835 27.9683 21.6899V15.2957C27.9683 14.7021 27.7187 14.1329 27.2743 13.7132C26.8299 13.2935 26.2272 13.0577 25.5987 13.0577ZM23.9061 25.5137C23.9058 25.6017 23.8686 25.6861 23.8026 25.7484C23.7367 25.8107 23.6473 25.8458 23.5541 25.8462H14.7797C14.6864 25.8458 14.597 25.8107 14.5311 25.7484C14.4651 25.6861 14.4279 25.6017 14.4276 25.5137V19.145C14.4279 19.0569 14.4651 18.9725 14.5311 18.9102C14.597 18.848 14.6864 18.8128 14.7797 18.8125H23.5541C23.6473 18.8128 23.7367 18.848 23.8026 18.9102C23.8686 18.9725 23.9058 19.0569 23.9061 19.145V25.5137ZM25.0063 16.891C24.7992 16.9068 24.5919 16.8621 24.4125 16.7631C24.2331 16.664 24.0902 16.5154 24.003 16.3373C23.9159 16.1591 23.8887 15.96 23.9251 15.7668C23.9616 15.5736 24.0599 15.3955 24.2068 15.2568C24.3538 15.118 24.5422 15.0251 24.7468 14.9907C24.9514 14.9563 25.1622 14.982 25.3509 15.0643C25.5395 15.1466 25.6969 15.2816 25.8017 15.451C25.9066 15.6205 25.9539 15.8162 25.9372 16.0118C25.9179 16.2389 25.8136 16.4521 25.643 16.6132C25.4725 16.7743 25.2467 16.8728 25.0063 16.891ZM22.8906 10.5H15.4432C14.8736 10.5008 14.3233 10.695 13.8928 11.0472C13.4623 11.3993 13.1802 11.886 13.0981 12.4183H25.2356C25.1535 11.886 24.8714 11.3993 24.4409 11.0472C24.0104 10.695 23.4601 10.5008 22.8906 10.5Z" fill="#D3B155"/>
<defs>
<filter id="filter0_d_51_125" x="0.291656" y="2.625" width="37.75" height="37.75" filterUnits="userSpaceOnUse" color-interpolation-filters="sRGB">
<feFlood flood-opacity="0" result="BackgroundImageFix"/>
<feColorMatrix in="SourceAlpha" type="matrix" values="0 0 0 0 0 0 0 0 0 0 0 0 0 0 0 0 0 0 127 0" result="hardAlpha"/>
<feOffset dy="4"/>
<feGaussianBlur stdDeviation="2"/>
<feComposite in2="hardAlpha" operator="out"/>
<feColorMatrix type="matrix" values="0 0 0 0 0 0 0 0 0 0 0 0 0 0 0 0 0 0 0.25 0"/>
<feBlend mode="normal" in2="BackgroundImageFix" result="effect1_dropShadow_51_125"/>
<feBlend mode="normal" in="SourceGraphic" in2="effect1_dropShadow_51_125" result="shape"/>
</filter>
</defs>
</svg>
