<svg width="18" height="16" viewBox="0 0 18 16" fill="none" xmlns="http://www.w3.org/2000/svg">
<path d="M6.74658 15.333H13.1999C13.8469 15.333 14.3732 14.8066 14.3732 14.1596V9.4663C14.3732 8.81934 13.8469 8.29297 13.1999 8.29297H6.74658C6.09961 8.29297 5.57324 8.81934 5.57324 9.4663V14.1596C5.57324 14.8066 6.09961 15.333 6.74658 15.333ZM6.15991 9.4663C6.15991 9.14275 6.42302 8.87964 6.74658 8.87964H13.1999C13.5235 8.87964 13.7866 9.14275 13.7866 9.4663V14.1596C13.7866 14.4832 13.5235 14.7463 13.1999 14.7463H6.74658C6.42302 14.7463 6.15991 14.4832 6.15991 14.1596V9.4663Z" fill="white"/>
<path d="M16.4267 0.666504H9.97338C9.32642 0.666504 8.80005 1.19287 8.80005 1.83984V6.53317C8.80005 7.18014 9.32642 7.70651 9.97338 7.70651H16.4267C17.0737 7.70651 17.6001 7.18014 17.6001 6.53317V1.83984C17.6001 1.19287 17.0737 0.666504 16.4267 0.666504ZM17.0134 6.53317C17.0134 6.85673 16.7503 7.11984 16.4267 7.11984H9.97338C9.64983 7.11984 9.38672 6.85673 9.38672 6.53317V1.83984C9.38672 1.51628 9.64983 1.25317 9.97338 1.25317H16.4267C16.7503 1.25317 17.0134 1.51628 17.0134 1.83984V6.53317Z" fill="white"/>
<path d="M7.04012 13.8664H12.9068C13.2919 13.86 13.2926 13.2863 12.9068 13.2798H12.6135V12.3998C12.6135 12.2378 12.4821 12.1064 12.3201 12.1064C12.1581 12.1064 12.0268 12.2378 12.0268 12.3998V13.2798H11.4401V10.9331C11.4401 10.7711 11.3088 10.6398 11.1468 10.6398C10.9848 10.6398 10.8535 10.7711 10.8535 10.9331V13.2798H10.2668V10.0531C10.2668 9.89111 10.1354 9.75977 9.97345 9.75977C9.81146 9.75977 9.68012 9.89111 9.68012 10.0531V13.2798H9.09345V11.8131C9.09345 11.6511 8.96211 11.5198 8.80012 11.5198C8.63812 11.5198 8.50678 11.6511 8.50678 11.8131V13.2798H7.92012V10.9331C7.92012 10.7711 7.78878 10.6398 7.62678 10.6398C7.46479 10.6398 7.33345 10.7711 7.33345 10.9331V13.2798H7.04012C6.65454 13.2863 6.65465 13.86 7.04012 13.8664Z" fill="white"/>
<path d="M1.76 14.7468H5.01302C5.39888 14.7375 5.39913 14.1684 5.01302 14.1601H1.76C1.11303 14.1601 0.586667 13.6337 0.586667 12.9868V3.01342C0.586667 2.36645 1.11303 1.84008 1.76 1.84008H8.23969C8.62059 1.83799 8.62811 1.2582 8.23967 1.25342H1.76C0.789481 1.25342 0 2.0429 0 3.01342V12.9868C0 13.9573 0.789481 14.7468 1.76 14.7468Z" fill="white"/>
<path d="M2.34676 2.71973C1.18637 2.75015 1.18661 4.44947 2.3468 4.47973C3.50715 4.44931 3.50692 2.74997 2.34676 2.71973ZM2.34676 3.89306C1.9613 3.88613 1.96135 3.31325 2.34678 3.30639C2.73223 3.3133 2.73217 3.88618 2.34676 3.89306Z" fill="white"/>
<path d="M7.33338 3.89331C7.71795 3.88706 7.71971 3.31325 7.33338 3.30664H4.10671C3.72214 3.31289 3.72039 3.8867 4.10671 3.89331H7.33338Z" fill="white"/>
<path d="M2.34676 5.06641C1.18637 5.09682 1.18661 6.79615 2.3468 6.82641C3.50715 6.79599 3.50692 5.09665 2.34676 5.06641ZM2.34676 6.23974C1.9613 6.23281 1.96135 5.65993 2.34678 5.65307C2.73223 5.65998 2.73217 6.23286 2.34676 6.23974Z" fill="white"/>
<path d="M4.10671 6.23999H7.33338C7.71795 6.23374 7.71971 5.65993 7.33338 5.65332H4.10671C3.72214 5.65957 3.72039 6.23338 4.10671 6.23999Z" fill="white"/>
<path d="M2.34676 7.41309C1.18637 7.4435 1.18661 9.14283 2.3468 9.17309C3.50715 9.14267 3.50692 7.44333 2.34676 7.41309ZM2.34676 8.58642C1.9613 8.57949 1.96135 8.00661 2.34678 7.99975C2.73223 8.00666 2.73217 8.57954 2.34676 8.58642Z" fill="white"/>
<path d="M5.73164 8.29333C5.73164 8.13134 5.6003 8 5.43831 8H4.10657C3.94457 8 3.81323 8.13134 3.81323 8.29333C3.81323 8.45533 3.94457 8.58667 4.10657 8.58667H5.43831C5.6003 8.58667 5.73164 8.45533 5.73164 8.29333Z" fill="white"/>
<path d="M2.34676 9.75977C1.18637 9.79018 1.18661 11.4895 2.3468 11.5198C3.50715 11.4893 3.50692 9.79001 2.34676 9.75977ZM2.34676 10.9331C1.9613 10.9262 1.96135 10.3533 2.34678 10.3464C2.73223 10.3533 2.73217 10.9262 2.34676 10.9331Z" fill="white"/>
<path d="M4.10676 10.3462C3.72145 10.3527 3.72104 10.9263 4.10678 10.9329H4.98676C5.14875 10.9329 5.28009 10.8015 5.28009 10.6395C5.28009 10.4775 5.14875 10.3462 4.98676 10.3462H4.10676Z" fill="white"/>
<path d="M15.8401 1.83984H11.1467C10.7623 1.84604 10.7603 2.41989 11.1468 2.42651H15.8401C16.2242 2.42041 16.2268 1.84648 15.8401 1.83984Z" fill="white"/>
<path d="M10.2682 2.42651C10.6538 2.41994 10.6537 1.84634 10.2682 1.83984C9.8791 1.84595 9.8822 2.42017 10.2682 2.42651Z" fill="white"/>
<path d="M11.148 3.59985H14.0799C14.4647 3.59349 14.4659 3.01975 14.0799 3.01318H11.148C10.7633 3.01945 10.7617 3.59324 11.148 3.59985Z" fill="white"/>
<path d="M10.2697 3.01318C9.88057 3.01929 9.88366 3.59351 10.2697 3.59985C10.6552 3.59328 10.6552 3.01968 10.2697 3.01318Z" fill="white"/>
<path d="M14.9601 4.18652H11.1482C10.7638 4.19272 10.7617 4.76657 11.1482 4.77319H14.9601C15.3445 4.767 15.3466 4.19315 14.9601 4.18652Z" fill="white"/>
<path d="M10.2697 4.18652C9.88057 4.19263 9.88366 4.76685 10.2697 4.77319C10.6552 4.76662 10.6552 4.19302 10.2697 4.18652Z" fill="white"/>
<path d="M13.4932 5.35986H11.148C10.7631 5.3662 10.7619 5.93994 11.148 5.94653H13.4932C13.8781 5.94019 13.8793 5.36643 13.4932 5.35986Z" fill="white"/>
<path d="M10.2697 5.35986C9.88057 5.36597 9.88366 5.94019 10.2697 5.94653C10.6552 5.93996 10.6552 5.36636 10.2697 5.35986Z" fill="white"/>
</svg>
