<svg width="33" height="30" viewBox="0 0 33 30" fill="none" xmlns="http://www.w3.org/2000/svg">
<path d="M28.2596 2.03426C28.7795 2.03426 29.2781 2.23304 29.6457 2.58688C30.0133 2.94073 30.2198 3.42064 30.2198 3.92105V19.0154C30.2198 19.5158 30.0133 19.9957 29.6457 20.3496C29.2781 20.7034 28.7795 20.9022 28.2596 20.9022H9.46885C8.42917 20.9024 7.43214 21.3001 6.69709 22.0079L2.77663 25.7815V3.92105C2.77663 3.42064 2.98316 2.94073 3.35077 2.58688C3.71838 2.23304 4.21698 2.03426 4.73686 2.03426H28.2596ZM4.73686 0.147461C3.69709 0.147461 2.69991 0.545034 1.96468 1.25272C1.22945 1.9604 0.816406 2.92023 0.816406 3.92105L0.816406 28.0588C0.816447 28.2455 0.874022 28.4279 0.981844 28.5831C1.08967 28.7383 1.24289 28.8592 1.42212 28.9305C1.60134 29.0018 1.79852 29.0203 1.98869 28.9837C2.17886 28.9471 2.35348 28.857 2.49044 28.7248L8.08297 23.3418C8.4505 22.988 8.94901 22.7891 9.46885 22.789H28.2596C29.2994 22.789 30.2965 22.3914 31.0318 21.6837C31.767 20.976 32.18 20.0162 32.18 19.0154V3.92105C32.18 2.92023 31.767 1.9604 31.0318 1.25272C30.2965 0.545034 29.2994 0.147461 28.2596 0.147461L4.73686 0.147461Z" fill="white"/>
<path d="M6.69531 6.75101C6.69531 6.50081 6.79857 6.26085 6.98238 6.08393C7.16619 5.90701 7.41548 5.80762 7.67543 5.80762H25.3175C25.5774 5.80762 25.8267 5.90701 26.0105 6.08393C26.1943 6.26085 26.2976 6.50081 26.2976 6.75101C26.2976 7.00122 26.1943 7.24118 26.0105 7.4181C25.8267 7.59502 25.5774 7.69441 25.3175 7.69441H7.67543C7.41548 7.69441 7.16619 7.59502 6.98238 7.4181C6.79857 7.24118 6.69531 7.00122 6.69531 6.75101ZM6.69531 11.468C6.69531 11.2178 6.79857 10.9778 6.98238 10.8009C7.16619 10.624 7.41548 10.5246 7.67543 10.5246H25.3175C25.5774 10.5246 25.8267 10.624 26.0105 10.8009C26.1943 10.9778 26.2976 11.2178 26.2976 11.468C26.2976 11.7182 26.1943 11.9582 26.0105 12.1351C25.8267 12.312 25.5774 12.4114 25.3175 12.4114H7.67543C7.41548 12.4114 7.16619 12.312 6.98238 12.1351C6.79857 11.9582 6.69531 11.7182 6.69531 11.468ZM6.69531 16.185C6.69531 15.9348 6.79857 15.6948 6.98238 15.5179C7.16619 15.341 7.41548 15.2416 7.67543 15.2416H17.4766C17.7365 15.2416 17.9858 15.341 18.1696 15.5179C18.3534 15.6948 18.4567 15.9348 18.4567 16.185C18.4567 16.4352 18.3534 16.6751 18.1696 16.8521C17.9858 17.029 17.7365 17.1284 17.4766 17.1284H7.67543C7.41548 17.1284 7.16619 17.029 6.98238 16.8521C6.79857 16.6751 6.69531 16.4352 6.69531 16.185Z" fill="white"/>
</svg>
