<svg width="127" height="37" viewBox="0 0 127 37" fill="none" xmlns="http://www.w3.org/2000/svg">
<g style="mix-blend-mode:screen">
<path d="M75.1233 20.9683H64.7344C65.0447 21.4072 65.3418 21.8444 65.6313 22.2824H75.1233V20.9683Z" fill="white"/>
<path d="M68.5704 26.5894H75.1207V25.5679H67.832C67.9697 25.7843 68.4369 26.5894 68.5704 26.5894Z" fill="white"/>
<path d="M55.3281 26.5894H61.8784V25.5679H55.3281V26.5894Z" fill="white"/>
<path d="M75.1206 4.90576H68.5703V11.6049C68.5703 11.9891 68.5803 12.7728 68.6054 13.595H75.1206V4.90576Z" fill="white"/>
<path d="M65.8289 11.0214C64.6951 9.36074 63.779 7.6975 62.6476 6.03598C62.5684 5.92133 62.0219 4.90576 61.8784 4.90576H55.3281V13.595H67.3674C66.8877 12.7129 66.3904 11.8436 65.8289 11.0214Z" fill="white"/>
<path d="M75.1239 18.2666H63.0195C63.3458 18.8356 63.682 19.3968 64.0374 19.9452H75.1239V18.2666Z" fill="white"/>
<path d="M61.4512 15.4913C61.7466 15.9995 62.0327 16.5129 62.3189 17.0262H75.1207V14.8359H68.6572C68.6981 15.5709 68.7565 16.1706 68.8375 16.3144C68.563 15.8267 68.2977 15.3322 68.0323 14.8359H55.3281V17.0262H61.7324C61.6556 16.2536 61.5555 15.671 61.4512 15.4913Z" fill="white"/>
<path d="M61.8784 20.9688H55.3281V22.2829H61.8784V20.9688Z" fill="white"/>
<path d="M61.8267 18.2671H55.3281V19.9457H61.8776C61.875 19.3828 61.8567 18.8095 61.8267 18.2671Z" fill="white"/>
<path d="M66.2969 23.3037C66.5747 23.7281 66.8542 24.1516 67.142 24.5768L75.1173 24.552V23.3037H66.2969Z" fill="white"/>
<path d="M61.8784 23.3037H55.3281V24.6119L61.8784 24.5922V23.3037Z" fill="white"/>
<path d="M84.0893 4.90576H77.5391V13.595H84.0893V4.90576Z" fill="white"/>
<path d="M77.5391 26.5894H84.0893V25.5679H77.5391V26.5894Z" fill="white"/>
<path d="M77.5391 23.3037V24.5426L84.0893 24.5229V23.3037H77.5391Z" fill="white"/>
<path d="M77.5391 22.2824H84.0893V20.9683H77.5391V22.2824Z" fill="white"/>
<path d="M77.5391 19.9457H84.0893V18.2671H77.5391V19.9457Z" fill="white"/>
<path d="M84.0893 14.8354H77.5391V17.0257H84.0893V14.8354Z" fill="white"/>
<path d="M89.5303 24.5067L99.4588 24.4767C99.4454 24.0943 99.4304 23.6947 99.4162 23.3037H88.3164C88.691 23.7358 89.0965 24.1388 89.5303 24.5067Z" fill="white"/>
<path d="M93.1149 26.4611C94.1728 26.7708 95.2783 26.9488 96.3787 26.971C96.7024 26.977 99.5533 26.8649 99.545 26.6416C99.545 26.6416 99.5291 26.2036 99.5058 25.5679H91.0391C91.6907 25.9435 92.384 26.2463 93.1149 26.4611Z" fill="white"/>
<path d="M97.1245 10.3203C97.7252 10.3134 98.5153 10.3511 99.0526 10.5393L99.2662 4.80096C98.411 4.58194 97.0903 4.46387 96.1692 4.46387C90.8078 4.46387 86.3451 8.40379 85.3789 13.6134H92.4348C93.1815 11.7037 94.9928 10.3451 97.1245 10.3203Z" fill="white"/>
<path d="M86.282 19.9457H94.8814C94.1689 19.5205 93.5648 18.9516 93.1243 18.2671H85.7539C85.8874 18.8386 86.0651 19.4007 86.282 19.9457Z" fill="white"/>
<path d="M87.5318 22.2819H99.3825C99.3616 21.695 99.3432 21.2125 99.3349 20.9678H86.75C86.9828 21.4229 87.2431 21.8618 87.5318 22.2819Z" fill="white"/>
<path d="M92.3894 14.8354H85.4937C85.4712 15.1246 85.457 15.4164 85.457 15.7116C85.457 16.1513 85.4846 16.5902 85.5363 17.0257H92.5571C92.4236 16.5825 92.3485 16.1085 92.3427 15.608C92.3402 15.3454 92.356 15.0878 92.3894 14.8354Z" fill="white"/>
<path d="M124.223 12.3234H118.017V3.8464H124.223V12.3234ZM124.223 15.6859H118.017V13.5401H124.223V15.6859ZM124.223 18.5469H118.017V16.9025H124.223V18.5469ZM124.223 20.8364H118.017V19.5488H124.223V20.8364ZM124.223 23.0395L118.017 23.0438V21.8374H124.223V23.0395ZM124.223 25.057V25.0963H118.017V24.0559H124.223V25.057ZM115.971 20.8364H105.836C105.872 20.2846 105.904 19.8149 105.921 19.5488C105.931 19.3999 105.937 19.3135 105.937 19.3135C106.172 19.3888 106.474 19.4761 106.803 19.5488C107.507 19.7045 108.337 19.7918 108.918 19.5488H116.097C116.097 19.9826 116.056 20.4138 115.971 20.8364ZM115.018 23.0455L105.689 23.0515C105.715 22.6648 105.743 22.2481 105.77 21.8374H115.675C115.508 22.2592 115.29 22.6648 115.018 23.0455ZM113.267 24.595C112.909 24.7858 112.532 24.9372 112.146 25.057C110.844 25.4599 109.421 25.4873 108.09 25.3308C107.956 25.3154 107.143 25.1913 106.476 25.057C105.983 24.9569 105.571 24.8508 105.576 24.7781C105.576 24.7781 105.594 24.4931 105.623 24.0559H114.074C113.822 24.2604 113.553 24.4427 113.267 24.595ZM105.195 11.3943C104.721 9.74474 104.927 8.00193 105.785 6.52093C106.631 5.06131 107.981 4.21258 109.5 3.81132C111.051 3.39979 112.779 3.45711 114.325 3.81132C114.761 3.91057 115.181 4.03377 115.58 4.17665L115.231 9.14754C114.087 8.78478 111.909 8.5033 111.341 9.58902C110.848 10.531 111.658 11.5919 112.296 12.3234H105.548C105.409 12.03 105.289 11.722 105.195 11.3943ZM107.964 15.6859C107.394 14.9612 106.785 14.2801 106.266 13.5401H113.363C113.439 13.6282 113.517 13.7163 113.592 13.8062C114.092 14.4025 114.564 15.0228 114.969 15.6859H107.964ZM115.58 16.9025C115.789 17.4346 115.939 17.9882 116.021 18.5469H109.615C109.616 18.4759 109.611 18.4032 109.603 18.3313C109.538 17.7923 109.268 17.3311 108.945 16.9025H115.58ZM0.972656 0.598633V2.93521H102.317V27.1745H126.95V0.598633H0.972656Z" fill="white"/>
<path d="M118.02 25.0976H124.225V25.0576H118.02V25.0976Z" fill="white"/>
<path d="M14.3906 5.19141H15.6029L17.7997 9.14844V5.19141H18.8768V10.8664H17.7204L15.4677 6.8401V10.8664H14.3906V5.19141Z" fill="white"/>
<path d="M21.3177 8.72237H22.7344L22.0361 6.48931L21.3177 8.72237ZM21.3936 5.19141H22.7019L24.66 10.8664H23.406L23.0406 9.70029H21.0032L20.6277 10.8664H19.418L21.3936 5.19141Z" fill="white"/>
<path d="M28.6625 5.19141V6.19671H27.0064V10.8664H25.8425V6.19671H24.1797V5.19141H28.6625Z" fill="white"/>
<path d="M30.2391 10.8664H29.0898V5.19141H30.2391V10.8664Z" fill="white"/>
<path d="M34.7062 9.50152C34.9749 9.15502 35.1092 8.6622 35.1092 8.02309C35.1092 7.38654 34.9749 6.89459 34.7062 6.54637C34.4367 6.199 34.073 6.02447 33.6157 6.02447C33.1569 6.02447 32.7914 6.19815 32.5186 6.54466C32.2458 6.89116 32.1098 7.38397 32.1098 8.02309C32.1098 8.6622 32.2458 9.15502 32.5186 9.50152C32.7914 9.84803 33.1569 10.0209 33.6157 10.0209C34.073 10.0209 34.4367 9.84803 34.7062 9.50152ZM35.4287 10.3639C35.0107 10.8054 34.4059 11.0262 33.6157 11.0262C32.824 11.0262 32.2199 10.8054 31.8019 10.3639C31.2413 9.82236 30.9609 9.04208 30.9609 8.02309C30.9609 6.98357 31.2413 6.20328 31.8019 5.68223C32.2199 5.24076 32.824 5.02002 33.6157 5.02002C34.4059 5.02002 35.0107 5.24076 35.4287 5.68223C35.9869 6.20328 36.2656 6.98357 36.2656 8.02309C36.2656 9.04208 35.9869 9.82236 35.4287 10.3639Z" fill="white"/>
<path d="M36.9766 5.19141H38.1888L40.3856 9.14844V5.19141H41.4635V10.8664H40.3072L38.0545 6.8401V10.8664H36.9766V5.19141Z" fill="white"/>
<path d="M43.8989 8.72237H45.3164L44.6173 6.48931L43.8989 8.72237ZM43.9757 5.19141H45.2839L47.242 10.8664H45.9881L45.6226 9.70029H43.5844L43.2098 10.8664H42L43.9757 5.19141Z" fill="white"/>
<path d="M47.7891 5.19141H48.9454V9.84659H51.7087V10.8664H47.7891V5.19141Z" fill="white"/>
<path d="M2.12194 18.7522H0.972656V13.0771H2.12194V18.7522Z" fill="white"/>
<path d="M3.02734 13.0771H4.23961L6.43638 17.0342V13.0771H7.51433V18.7522H6.35796L4.10529 14.7258V18.7522H3.02734V13.0771Z" fill="white"/>
<path d="M8.44922 13.084H12.3956V14.0816H9.59808V15.3863H12.0493V16.372H9.59808V18.7513H8.44922V13.084Z" fill="white"/>
<path d="M16.5296 17.3863C16.7991 17.0398 16.9334 16.547 16.9334 15.9079C16.9334 15.2713 16.7991 14.7794 16.5296 14.4311C16.2609 14.0838 15.8972 13.9092 15.4391 13.9092C14.9811 13.9092 14.6157 14.0829 14.3428 14.4294C14.07 14.7759 13.934 15.2687 13.934 15.9079C13.934 16.547 14.07 17.0398 14.3428 17.3863C14.6157 17.7328 14.9811 17.9056 15.4391 17.9056C15.8972 17.9056 16.2609 17.7328 16.5296 17.3863ZM17.2529 18.2487C16.835 18.6902 16.2301 18.9109 15.4391 18.9109C14.6482 18.9109 14.0441 18.6902 13.6262 18.2487C13.0655 17.7071 12.7852 16.9268 12.7852 15.9079C12.7852 14.8683 13.0655 14.088 13.6262 13.567C14.0441 13.1255 14.6482 12.9048 15.4391 12.9048C16.2301 12.9048 16.835 13.1255 17.2529 13.567C17.8111 14.088 18.0898 14.8683 18.0898 15.9079C18.0898 16.9268 17.8111 17.7071 17.2529 18.2487Z" fill="white"/>
<path d="M19.9734 14.0628V15.5874H21.2182C21.4652 15.5874 21.6504 15.5566 21.7747 15.495C21.9933 15.3872 22.1026 15.1742 22.1026 14.8559C22.1026 14.5119 21.9967 14.2809 21.7856 14.1629C21.6663 14.0961 21.4877 14.0628 21.2499 14.0628H19.9734ZM22.3638 13.2235C22.5673 13.3133 22.74 13.4459 22.8819 13.6204C22.9987 13.7642 23.0913 13.9233 23.1597 14.0978C23.2281 14.2724 23.2623 14.4709 23.2623 14.6942C23.2623 14.9637 23.1964 15.2289 23.0637 15.4899C22.9311 15.75 22.7117 15.9339 22.4063 16.0417C22.6616 16.147 22.8427 16.2967 22.9494 16.49C23.0554 16.6843 23.1088 16.9803 23.1088 17.3781V17.7589C23.1088 18.0181 23.1188 18.1943 23.1388 18.2867C23.1697 18.4331 23.2406 18.5409 23.3524 18.6102V18.7522H22.0759C22.0409 18.6264 22.0158 18.5255 22.0008 18.4485C21.9708 18.2893 21.9549 18.1259 21.9524 17.9591L21.9449 17.432C21.9399 17.0701 21.879 16.8288 21.7622 16.7082C21.6446 16.5876 21.4251 16.5268 21.1031 16.5268H19.9734V18.7522H18.8438V13.0771H21.4902C21.869 13.0848 22.1602 13.1336 22.3638 13.2235Z" fill="white"/>
<path d="M27.8933 13.0771H29.557V18.7522H28.4799V14.9141C28.4799 14.8037 28.4807 14.6488 28.4832 14.4503C28.4857 14.251 28.4874 14.0979 28.4874 13.99L27.4386 18.7522H26.3148L25.2736 13.99C25.2736 14.0979 25.2744 14.251 25.2769 14.4503C25.2794 14.6488 25.2802 14.8037 25.2802 14.9141V18.7522H24.2031V13.0771H25.886L26.893 17.5398L27.8933 13.0771Z" fill="white"/>
<path d="M31.9779 16.6081H33.3946L32.6962 14.3751L31.9779 16.6081ZM32.0538 13.0771H33.362L35.3202 18.7522H34.0662L33.7008 17.586H31.6633L31.2879 18.7522H30.0781L32.0538 13.0771Z" fill="white"/>
<path d="M39.3266 13.0771V14.0824H37.6713V18.7522H36.5074V14.0824H34.8438V13.0771H39.3266Z" fill="white"/>
<path d="M40.8993 18.7512H39.75V13.0762H40.8993V18.7512Z" fill="white"/>
<path d="M42.3552 13.6695C42.8007 13.2023 43.368 12.9688 44.0564 12.9688C44.9775 12.9688 45.6508 13.2819 46.0771 13.9082C46.3124 14.2598 46.4384 14.6132 46.4559 14.9674H45.2995C45.2261 14.6953 45.131 14.49 45.0158 14.3514C44.8098 14.105 44.5052 13.9818 44.1006 13.9818C43.6884 13.9818 43.363 14.1554 43.1253 14.5037C42.8875 14.851 42.769 15.343 42.769 15.9795C42.769 16.6161 42.8942 17.0935 43.1453 17.41C43.3964 17.7266 43.7151 17.8857 44.1023 17.8857C44.4986 17.8857 44.8014 17.7497 45.0092 17.4776C45.1243 17.3313 45.2194 17.1114 45.2953 16.8188H46.4442C46.3449 17.4374 46.0921 17.9405 45.685 18.3281C45.2778 18.7157 44.7555 18.9099 44.1189 18.9099C43.3322 18.9099 42.7131 18.6481 42.2626 18.1244C41.8112 17.5983 41.5859 16.877 41.5859 15.9607C41.5859 14.9699 41.8421 14.2059 42.3552 13.6695Z" fill="white"/>
<path d="M48.0569 17.0004C48.0928 17.2597 48.1637 17.453 48.268 17.5814C48.4599 17.8149 48.7878 17.9321 49.2533 17.9321C49.532 17.9321 49.7581 17.9013 49.9317 17.8397C50.2612 17.7217 50.4264 17.5018 50.4264 17.1809C50.4264 16.9936 50.3455 16.849 50.1845 16.7463C50.0226 16.6462 49.7665 16.5572 49.416 16.4802L48.8162 16.3459C48.228 16.2124 47.8233 16.067 47.6031 15.9104C47.2301 15.6486 47.0432 15.2396 47.0432 14.6827C47.0432 14.1745 47.2259 13.7518 47.5905 13.4156C47.956 13.0793 48.4916 12.9116 49.1983 12.9116C49.789 12.9116 50.2921 13.0699 50.7092 13.3873C51.1264 13.7039 51.3442 14.1642 51.365 14.7674H50.2537C50.2328 14.426 50.0843 14.183 49.8073 14.0393C49.6221 13.9443 49.3927 13.8972 49.1182 13.8972C48.8128 13.8972 48.5692 13.9588 48.3865 14.082C48.2046 14.2053 48.1137 14.3772 48.1137 14.598C48.1137 14.8007 48.2029 14.9522 48.3832 15.0523C48.4983 15.119 48.7436 15.1969 49.1182 15.2867L50.0893 15.522C50.5148 15.6247 50.8344 15.7615 51.0463 15.9335C51.3767 16.2005 51.5411 16.5872 51.5411 17.0928C51.5411 17.6113 51.3458 18.0417 50.9554 18.3839C50.5641 18.727 50.0117 18.8981 49.2984 18.8981C48.57 18.8981 47.9969 18.7295 47.5797 18.3916C47.1617 18.0545 46.9531 17.5908 46.9531 17.0004H48.0569Z" fill="white"/>
<path d="M22.0388 21.5557C22.4843 21.0886 23.0516 20.855 23.74 20.855C24.661 20.855 25.3343 21.1681 25.7599 21.7944C25.9951 22.146 26.1219 22.4994 26.1395 22.8536H24.9831C24.9088 22.5815 24.8146 22.3762 24.6994 22.2376C24.4934 21.9912 24.188 21.868 23.7833 21.868C23.372 21.868 23.0466 22.0417 22.8089 22.3899C22.5711 22.7372 22.4526 23.2292 22.4526 23.8658C22.4526 24.5023 22.5777 24.9797 22.8289 25.2963C23.08 25.6128 23.3987 25.772 23.785 25.772C24.1821 25.772 24.4842 25.6359 24.6928 25.3639C24.8071 25.2176 24.903 24.9977 24.9789 24.7051H26.1278C26.0285 25.3237 25.7757 25.8267 25.3686 26.2152C24.9606 26.6019 24.4391 26.7961 23.8025 26.7961C23.0149 26.7961 22.3959 26.5343 21.9453 26.0107C21.4948 25.4845 21.2695 24.7632 21.2695 23.8469C21.2695 22.8562 21.5257 22.0921 22.0388 21.5557Z" fill="white"/>
<path d="M31.0035 21.9687H28.075V23.1733H30.7632V24.159H28.075V25.6186H31.1386V26.6384H26.9453V20.9634H31.0035V21.9687Z" fill="white"/>
<path d="M31.8672 20.9634H33.0795L35.2762 24.9204V20.9634H36.3542V26.6384H35.1978L32.9451 22.6121V26.6384H31.8672V20.9634Z" fill="white"/>
<path d="M41.3031 20.9624V21.9677H39.647V26.6374H38.4831V21.9677H36.8203V20.9624H41.3031Z" fill="white"/>
<path d="M42.9851 21.948V23.4727H44.2299C44.4769 23.4727 44.6621 23.4419 44.7864 23.3803C45.005 23.2725 45.1143 23.0594 45.1143 22.7411C45.1143 22.3972 45.0084 22.1662 44.7965 22.0481C44.678 21.9814 44.4994 21.948 44.2617 21.948H42.9851ZM45.3755 21.1087C45.579 21.1985 45.7518 21.3312 45.8936 21.5057C46.0104 21.6494 46.103 21.8086 46.1714 21.9831C46.2398 22.1576 46.274 22.3561 46.274 22.5794C46.274 22.8489 46.2081 23.1142 46.0755 23.3751C45.9428 23.6352 45.7234 23.8192 45.418 23.927C45.6733 24.0322 45.8544 24.1819 45.9612 24.3753C46.0671 24.5695 46.1205 24.8655 46.1205 25.2634V25.6441C46.1205 25.9034 46.1305 26.0796 46.1506 26.172C46.1814 26.3183 46.2523 26.4261 46.3641 26.4954V26.6374H45.0876C45.0526 26.5117 45.0276 26.4107 45.0125 26.3337C44.9825 26.1746 44.9667 26.0112 44.9642 25.8443L44.9566 25.3173C44.9516 24.9554 44.8907 24.7141 44.7731 24.5935C44.6563 24.4728 44.4369 24.4121 44.1148 24.4121H42.9851V26.6374H41.8555V20.9624H44.5019C44.8807 20.9701 45.1719 21.0189 45.3755 21.1087Z" fill="white"/>
<path d="M51.316 21.9677H48.3875V23.1724H51.0757V24.158H48.3875V25.6176H51.4511V26.6374H47.2578V20.9624H51.316V21.9677Z" fill="white"/>
<path d="M67.2188 28.7802V28.8535V28.7802Z" fill="white"/>
<path d="M67.2188 28.7802V28.8535" stroke="#0A80C2" stroke-width="1.33333" stroke-miterlimit="10"/>
<path d="M90.5398 31.2256C90.1961 31.2256 89.9216 31.3556 89.7172 31.6149C89.5128 31.875 89.4102 32.2446 89.4102 32.7237C89.4102 33.2028 89.5128 33.5733 89.7172 33.8325C89.9216 34.0926 90.1961 34.2227 90.5398 34.2227C90.8827 34.2227 91.1556 34.0926 91.3575 33.8325C91.5594 33.5733 91.6603 33.2028 91.6603 32.7237C91.6603 32.2463 91.5594 31.8775 91.3575 31.6166C91.1556 31.3556 90.8827 31.2256 90.5398 31.2256Z" fill="white"/>
<path d="M97.1473 31.416C97.0581 31.3655 96.9246 31.3398 96.746 31.3398H95.7891V32.4837H96.7227C96.9079 32.4837 97.0464 32.4606 97.1398 32.4144C97.3034 32.3332 97.3851 32.174 97.3851 31.9353C97.3851 31.6769 97.3059 31.5041 97.1473 31.416Z" fill="white"/>
<path d="M101.945 33.2489H103.009L102.484 31.5737L101.945 33.2489Z" fill="white"/>
<path d="M84.7935 31.3398H84.0117V32.5941H84.7935C84.9912 32.5941 85.1447 32.5428 85.2549 32.4401C85.365 32.3383 85.4201 32.1766 85.4201 31.9559C85.4201 31.7343 85.365 31.576 85.2549 31.4819C85.1447 31.3878 84.9912 31.3398 84.7935 31.3398Z" fill="white"/>
<path d="M79.4598 31.416C79.3706 31.3655 79.2371 31.3398 79.0585 31.3398H78.1016V32.4837H79.0352C79.2204 32.4837 79.3589 32.4606 79.4523 32.4144C79.6159 32.3332 79.6976 32.174 79.6976 31.9353C79.6976 31.6769 79.6184 31.5041 79.4598 31.416Z" fill="white"/>
<path d="M72.8562 31.2256C72.5125 31.2256 72.238 31.3556 72.0336 31.6149C71.8292 31.875 71.7266 32.2446 71.7266 32.7237C71.7266 33.2028 71.8292 33.5733 72.0336 33.8325C72.238 34.0926 72.5125 34.2227 72.8562 34.2227C73.1991 34.2227 73.472 34.0926 73.6739 33.8325C73.8758 33.5733 73.9767 33.2028 73.9767 32.7237C73.9767 32.2463 73.8758 31.8775 73.6739 31.6166C73.472 31.3556 73.1991 31.2256 72.8562 31.2256Z" fill="white"/>
<path d="M118.763 31.3398H117.961V34.1188H118.763C119.172 34.1188 119.459 33.9108 119.62 33.4976C119.708 33.27 119.752 32.9997 119.752 32.6865C119.752 32.2527 119.686 31.9199 119.554 31.6889C119.421 31.4562 119.157 31.3398 118.763 31.3398Z" fill="white"/>
<path d="M20.8591 31.416C20.7698 31.3655 20.6363 31.3398 20.4578 31.3398H19.5V32.4837H20.4336C20.6188 32.4837 20.7582 32.4606 20.8508 32.4144C21.0151 32.3332 21.0969 32.174 21.0969 31.9353C21.0969 31.6769 21.0176 31.5041 20.8591 31.416Z" fill="white"/>
<path d="M120.297 34.0627C119.996 34.5923 119.532 34.8567 118.904 34.8567H117.115V30.6002H118.904C119.162 30.6045 119.375 30.6353 119.546 30.6926C119.838 30.791 120.074 30.9716 120.254 31.2334C120.399 31.4447 120.497 31.674 120.55 31.9204C120.603 32.1668 120.629 32.4012 120.629 32.6254C120.629 33.1909 120.518 33.67 120.297 34.0627ZM114.709 34.8567H111.564V30.6002H114.607V31.3549H112.411V32.2583H114.427V32.9976H112.411V34.0918H114.709V34.8567ZM109.301 31.3549H108.06V34.8567H107.187V31.3549H105.939V30.6002H109.301V31.3549ZM103.512 34.8567L103.239 33.9823H101.71L101.429 34.8567H100.521L102.003 30.6002H102.984L104.453 34.8567H103.512ZM98.323 34.8567H97.366C97.3393 34.7626 97.321 34.6865 97.3093 34.6291C97.2868 34.5094 97.2751 34.387 97.2726 34.2621L97.2676 33.8668C97.2634 33.5947 97.2175 33.4142 97.1299 33.3235C97.0423 33.2337 96.8779 33.1883 96.636 33.1883H95.7891V34.8567H94.9415V30.6002H96.9263C97.21 30.6071 97.4286 30.643 97.5813 30.7106C97.7339 30.7773 97.8641 30.8766 97.9701 31.0083C98.0577 31.1161 98.1277 31.2351 98.1786 31.366C98.2304 31.4969 98.2554 31.6466 98.2554 31.8134C98.2554 32.0154 98.2053 32.2147 98.1061 32.4098C98.0068 32.6057 97.8424 32.7435 97.6138 32.8247C97.8049 32.9026 97.9409 33.0155 98.0201 33.161C98.1002 33.3064 98.1403 33.528 98.1403 33.8266V34.1124C98.1403 34.3066 98.1478 34.4383 98.1628 34.5076C98.1861 34.6172 98.2395 34.6984 98.323 34.7506V34.8567ZM91.902 34.4786C91.5883 34.8097 91.1353 34.9756 90.5421 34.9756C89.9489 34.9756 89.495 34.8097 89.1822 34.4786C88.7617 34.073 88.5514 33.4869 88.5514 32.7229C88.5514 31.9435 88.7617 31.3583 89.1822 30.9673C89.495 30.6362 89.9489 30.471 90.5421 30.471C91.1353 30.471 91.5883 30.6362 91.902 30.9673C92.3209 31.3583 92.5294 31.9435 92.5294 32.7229C92.5294 33.4869 92.3209 34.073 91.902 34.4786ZM85.9158 33.0147C85.673 33.2226 85.3259 33.327 84.8754 33.327H84.011V34.8567H83.1492V30.6002H84.9313C85.3426 30.6002 85.6697 30.7106 85.9141 30.9296C86.1586 31.1495 86.2804 31.4892 86.2804 31.9495C86.2804 32.4517 86.1594 32.8068 85.9158 33.0147ZM80.6362 34.8567H79.6792C79.6525 34.7626 79.6342 34.6865 79.6225 34.6291C79.6 34.5094 79.5874 34.387 79.5858 34.2621L79.5808 33.8668C79.5766 33.5947 79.5315 33.4142 79.4431 33.3235C79.3555 33.2337 79.1911 33.1883 78.9492 33.1883H78.1024V34.8567H77.2547V30.6002H79.2395C79.524 30.6071 79.7418 30.643 79.8945 30.7106C80.048 30.7773 80.1773 30.8766 80.2833 31.0083C80.3709 31.1161 80.441 31.2351 80.4919 31.366C80.5436 31.4969 80.5686 31.6466 80.5686 31.8134C80.5686 32.0154 80.5194 32.2147 80.4193 32.4098C80.32 32.6057 80.1556 32.7435 79.927 32.8247C80.1181 32.9026 80.2541 33.0155 80.3333 33.161C80.4134 33.3064 80.4535 33.528 80.4535 33.8266V34.1124C80.4535 34.3066 80.461 34.4383 80.476 34.5076C80.4994 34.6172 80.5528 34.6984 80.6362 34.7506V34.8567ZM74.2153 34.4786C73.9016 34.8097 73.4485 34.9756 72.8553 34.9756C72.2621 34.9756 71.8082 34.8097 71.4954 34.4786C71.0749 34.073 70.8646 33.4869 70.8646 32.7229C70.8646 31.9435 71.0749 31.3583 71.4954 30.9673C71.8082 30.6362 72.2621 30.471 72.8553 30.471C73.4485 30.471 73.9016 30.6362 74.2153 30.9673C74.6341 31.3583 74.8427 31.9435 74.8427 32.7229C74.8427 33.4869 74.6341 34.073 74.2153 34.4786ZM66.1132 33.8506C66.3017 34.0884 66.5412 34.2073 66.8315 34.2073C67.1285 34.2073 67.3555 34.1055 67.5115 33.901C67.5982 33.7915 67.6692 33.6273 67.7259 33.4074H68.5878C68.5135 33.8711 68.3233 34.2493 68.0179 34.5393C67.7125 34.8302 67.3213 34.9756 66.844 34.9756C66.2533 34.9756 65.7894 34.7789 65.4515 34.3862C65.1136 33.9917 64.9443 33.451 64.9443 32.7631C64.9443 32.0205 65.1362 31.4481 65.5208 31.046C65.8553 30.6952 66.2809 30.5198 66.7973 30.5198C67.4881 30.5198 67.9929 30.7551 68.3124 31.2239C68.4885 31.4883 68.5836 31.7527 68.5961 32.0188H67.7292C67.6742 31.8143 67.6033 31.6603 67.5165 31.5568C67.3621 31.372 67.1335 31.2796 66.8298 31.2796C66.5211 31.2796 66.2775 31.4096 66.099 31.6706C65.9204 31.9315 65.8312 32.3003 65.8312 32.7785C65.8312 33.2551 65.9254 33.6127 66.1132 33.8506ZM62.5806 34.8567H61.7138L60.0243 31.8374V34.8567H59.2158V30.6002H60.1252L61.7722 33.5682V30.6002H62.5806V34.8567ZM56.6887 34.8567H55.8268V30.6002H56.6887V34.8567ZM47.6087 34.5812C47.3151 34.8379 46.9012 34.9662 46.3664 34.9662C45.82 34.9662 45.3903 34.8405 45.0766 34.5872C44.7637 34.334 44.6077 33.9857 44.6077 33.5434H45.4353C45.462 33.7376 45.5146 33.8831 45.593 33.9789C45.7365 34.1543 45.9835 34.2416 46.3322 34.2416C46.5408 34.2416 46.711 34.2193 46.8412 34.1723C47.0881 34.0841 47.2116 33.9199 47.2116 33.6786C47.2116 33.5383 47.1515 33.4296 47.0305 33.3526C46.9087 33.2773 46.7168 33.2106 46.454 33.1533L46.0043 33.0523C45.563 32.9522 45.2593 32.8436 45.0941 32.7263C44.8146 32.5296 44.6744 32.2224 44.6744 31.8049C44.6744 31.4233 44.8121 31.1076 45.0849 30.8552C45.3586 30.6028 45.7607 30.4762 46.2913 30.4762C46.7335 30.4762 47.1115 30.596 47.4244 30.8338C47.7364 31.0708 47.9007 31.4156 47.9158 31.8682H47.0823C47.0673 31.6124 46.9555 31.4301 46.7477 31.3223C46.6092 31.2513 46.4365 31.2154 46.2313 31.2154C46.0018 31.2154 45.8191 31.2624 45.6823 31.3549C45.5455 31.4473 45.477 31.5756 45.477 31.7416C45.477 31.8939 45.5446 32.0068 45.6798 32.0821C45.7657 32.1326 45.9501 32.1907 46.2313 32.2583L46.9596 32.4346C47.2783 32.5116 47.5178 32.6143 47.6771 32.7435C47.9241 32.9437 48.0484 33.2337 48.0484 33.6127C48.0484 34.0011 47.9016 34.3237 47.6087 34.5812ZM42.4042 34.8567H39.2588V30.6002H42.3024V31.3549H40.1065V32.2583H42.1222V32.9976H40.1065V34.0918H42.4042V34.8567ZM34.328 33.8506C34.5166 34.0884 34.7552 34.2073 35.0455 34.2073C35.3425 34.2073 35.5695 34.1055 35.7255 33.901C35.8123 33.7915 35.884 33.6273 35.9407 33.4074H36.8026C36.7275 33.8711 36.5381 34.2493 36.2328 34.5393C35.9274 34.8302 35.5353 34.9756 35.0589 34.9756C34.4682 34.9756 34.0035 34.7789 33.6656 34.3862C33.3277 33.9917 33.1583 33.451 33.1583 32.7631C33.1583 32.0205 33.351 31.4481 33.7356 31.046C34.0694 30.6952 34.4949 30.5198 35.0113 30.5198C35.7021 30.5198 36.2069 30.7551 36.5264 31.2239C36.7033 31.4883 36.7976 31.7527 36.8109 32.0188H35.9432C35.8882 31.8143 35.8173 31.6603 35.7313 31.5568C35.577 31.372 35.3475 31.2796 35.0438 31.2796C34.7351 31.2796 34.4915 31.4096 34.313 31.6706C34.1344 31.9315 34.046 32.3003 34.046 32.7785C34.046 33.2551 34.1394 33.6127 34.328 33.8506ZM30.798 34.8567H29.9361V30.6002H30.798V34.8567ZM26.3444 34.8567H25.5251L24.1217 30.6002H25.0478L25.9489 33.8317L26.8583 30.6002H27.7594L26.3444 34.8567ZM22.0384 34.8567H21.0806C21.0548 34.7626 21.0356 34.6865 21.0247 34.6291C21.0022 34.5094 20.9897 34.387 20.988 34.2621L20.9822 33.8668C20.9789 33.5947 20.933 33.4142 20.8454 33.3235C20.7578 33.2337 20.5926 33.1883 20.3514 33.1883H19.5038V34.8567H18.6569V30.6002H20.6418C20.9255 30.6071 21.1441 30.643 21.2967 30.7106C21.4494 30.7773 21.5787 30.8766 21.6855 31.0083C21.7731 31.1161 21.8424 31.2351 21.8941 31.366C21.945 31.4969 21.9709 31.6466 21.9709 31.8134C21.9709 32.0154 21.9208 32.2147 21.8215 32.4098C21.7222 32.6057 21.5579 32.7435 21.3284 32.8247C21.5203 32.9026 21.6555 33.0155 21.7356 33.161C21.8157 33.3064 21.8557 33.528 21.8557 33.8266V34.1124C21.8557 34.3066 21.8632 34.4383 21.8783 34.5076C21.9008 34.6172 21.9542 34.6984 22.0384 34.7506V34.8567ZM16.2307 34.8567H13.0853V30.6002H16.1298V31.3549H13.933V32.2583H15.9496V32.9976H13.933V34.0918H16.2307V34.8567ZM10.282 34.5812C9.98917 34.8379 9.57535 34.9662 9.03971 34.9662C8.49323 34.9662 8.06356 34.8405 7.75069 34.5872C7.43781 34.334 7.28096 33.9857 7.28096 33.5434H8.10861C8.13531 33.7376 8.1887 33.8831 8.26713 33.9789C8.41063 34.1543 8.65676 34.2416 9.00551 34.2416C9.21492 34.2416 9.38429 34.2193 9.51444 34.1723C9.76223 34.0841 9.88571 33.9199 9.88571 33.6786C9.88571 33.5383 9.82481 33.4296 9.70383 33.3526C9.58286 33.2773 9.39096 33.2106 9.12815 33.1533L8.67845 33.0523C8.23709 32.9522 7.9334 32.8436 7.76821 32.7263C7.48871 32.5296 7.34854 32.2224 7.34854 31.8049C7.34854 31.4233 7.48537 31.1076 7.75903 30.8552C8.03269 30.6028 8.43483 30.4762 8.96462 30.4762C9.40765 30.4762 9.7856 30.596 10.0976 30.8338C10.4105 31.0708 10.574 31.4156 10.5899 31.8682H9.75639C9.74054 31.6124 9.62874 31.4301 9.421 31.3223C9.2825 31.2513 9.11063 31.2154 8.90455 31.2154C8.67511 31.2154 8.4924 31.2624 8.3564 31.3549C8.21957 31.4473 8.15116 31.5756 8.15116 31.7416C8.15116 31.8939 8.21874 32.0068 8.35307 32.0821C8.43984 32.1326 8.62339 32.1907 8.90455 32.2583L9.63292 32.4346C9.95246 32.5116 10.1911 32.6143 10.3504 32.7435C10.5982 32.9437 10.7217 33.2337 10.7217 33.6127C10.7217 34.0011 10.5757 34.3237 10.282 34.5812ZM0.972656 36.5927H126.95V28.854H0.972656V36.5927Z" fill="white"/>
</g>
</svg>
