<svg width="51" height="51" viewBox="0 0 51 51" fill="none" xmlns="http://www.w3.org/2000/svg">
<path d="M25.4996 51C39.5832 51 51 39.5832 51 25.4996C51 11.4168 39.5832 0 25.4996 0C11.4168 0 0 11.4168 0 25.4996C0 39.5832 11.4168 51 25.4996 51Z" fill="white" fill-opacity="0.57"/>
<path d="M38.6742 26.739C38.7202 26.517 38.7482 26.353 38.7652 26.198L38.7752 26.098C38.7792 26.044 38.7822 25.984 38.7852 25.924C38.7892 25.822 38.7912 25.714 38.7912 25.583C38.7912 24.755 39.2612 25.01 38.7912 23.453C38.6152 22.869 38.5122 22.38 38.4262 21.948C38.3962 21.804 38.3692 21.667 38.3422 21.534C38.2572 21.027 38.0912 20.537 37.8502 20.083C37.4602 19.382 36.9502 18.972 36.9622 18.437C36.9752 18.224 37.0482 18.02 37.1732 17.846C37.3862 17.522 37.6282 17.139 37.8982 16.764C38.1602 16.387 38.4612 16.04 38.7972 15.728C38.4612 16.04 38.1602 16.387 37.8982 16.764C38.1602 16.387 38.4612 16.04 38.7972 15.728C38.4562 15.245 38.2312 14.691 38.1392 14.108C38.0382 13.461 38.1012 12.794 38.0452 12.133C38.0202 11.834 37.9692 11.529 37.9192 11.224C37.8882 11.025 37.8502 10.825 37.8192 10.62C37.7942 10.47 37.7752 10.314 37.7622 10.165C37.7282 9.84201 37.7342 9.51499 37.7812 9.19299C37.7942 9.12499 37.8062 9.062 37.8192 9C37.5832 9.04 37.3552 9.12201 37.1482 9.24301C36.6682 9.55201 36.2142 9.89901 35.7902 10.282C35.6762 10.371 35.5592 10.457 35.4372 10.537C35.0872 10.789 34.6752 10.94 34.2442 10.975C33.9022 10.946 33.5572 10.954 33.2162 11C33.1432 11.02 33.0722 11.049 33.0062 11.086C32.7832 11.245 32.6032 11.458 32.4842 11.703C32.3642 11.949 32.3092 12.221 32.3222 12.493C32.3732 12.844 32.3252 13.202 32.1842 13.527C32.1242 13.621 32.0452 13.701 31.9522 13.763C31.6492 13.926 31.3152 14.026 30.9712 14.059C30.2492 14.188 29.5542 14.44 28.9182 14.804C28.2822 15.166 27.7152 15.637 27.2422 16.193C26.8722 16.63 26.2952 16.916 26.1762 17.526C26.1502 17.802 26.1402 18.079 26.1452 18.355C26.1172 18.898 25.8972 19.414 25.5242 19.813C25.4832 19.861 25.4352 19.904 25.3832 19.94C25.3312 19.976 25.2712 19.997 25.2082 20.002C24.9822 20.014 24.8442 19.765 24.7752 19.547C24.6922 19.258 24.6392 18.962 24.6182 18.662C24.4952 18.679 24.3762 18.719 24.2682 18.779C24.1052 18.876 23.9632 19.004 23.8502 19.156C23.7372 19.308 23.6562 19.48 23.6112 19.663C23.5082 20.156 23.5342 20.666 23.6872 21.146C23.7322 21.276 23.7542 21.413 23.7502 21.551C23.7262 21.687 23.6732 21.816 23.5942 21.929C23.5152 22.042 23.4112 22.136 23.2922 22.205L23.2902 22.206L23.2882 22.207C23.0402 22.369 22.7832 22.518 22.5172 22.652C22.2572 22.783 22.0222 22.958 21.8242 23.171C21.5782 23.461 21.4502 23.832 21.4662 24.211C21.5642 24.643 21.6252 25.083 21.6482 25.525C21.5652 25.871 21.4232 26.2 21.2282 26.497C21.1292 26.645 21.0652 26.813 21.0412 26.989C21.0172 27.165 21.0342 27.344 21.0902 27.513C21.1792 27.642 21.2502 27.783 21.3032 27.93C21.3472 28.167 21.1842 28.385 21.1402 28.622C21.0652 29.033 21.3412 29.512 21.0712 29.83C21.0162 29.892 20.9472 29.941 20.8702 29.971C20.6412 30.066 20.3442 30.045 20.1032 30.143C20.0232 30.178 19.9482 30.221 19.8782 30.272C19.7442 30.382 19.6012 30.481 19.4502 30.567C19.3742 30.605 19.2912 30.626 19.2062 30.629C18.7612 30.635 18.5352 30.106 18.4532 29.676C18.3722 29.24 18.2342 28.71 17.7952 28.617C17.6572 28.582 17.5102 28.589 17.3762 28.639C16.5982 28.968 17.0952 31.045 17.0522 31.518C16.9962 31.827 16.8792 32.121 16.7082 32.384C16.5372 32.647 16.3152 32.874 16.0542 33.051C15.5592 33.437 14.9952 33.736 14.5302 34.16C14.0612 34.714 13.5392 35.222 12.9732 35.678C12.8852 35.732 12.7922 35.779 12.6962 35.818C12.5682 35.874 12.4232 35.923 12.2982 35.99C12.1722 36.048 12.0742 36.15 12.0222 36.278C11.9092 36.602 12.2482 36.913 12.5802 37.025C12.9912 37.13 13.4082 37.214 13.8282 37.274C14.0912 37.331 14.3382 37.446 14.5492 37.611V37.615C14.6692 37.714 14.7632 37.842 14.8232 37.986C14.9142 38.274 14.9332 38.58 14.8792 38.877C14.8162 39.679 14.8802 40.487 15.0672 41.269C15.0862 41.398 15.1352 41.519 15.2112 41.624C15.3432 41.743 15.5062 41.821 15.6822 41.849C16.0362 41.96 16.4072 42.01 16.7792 41.998C16.9642 41.988 17.1442 41.932 17.3022 41.835C17.4592 41.738 17.5902 41.604 17.6822 41.444C18.0332 40.709 17.1932 39.706 17.7262 39.083C17.9892 38.778 18.4662 38.753 18.7802 38.497C19.4692 37.943 18.9872 36.74 19.4882 36.012C19.1312 36.043 18.9492 35.519 19.1622 35.239C19.2852 35.112 19.4402 35.02 19.6112 34.973C19.7822 34.926 19.9632 34.925 20.1342 34.971C20.4862 35.034 20.8182 35.183 21.1692 35.214C21.3442 35.243 21.5232 35.217 21.6822 35.139C21.8412 35.06 21.9712 34.934 22.0532 34.778C22.0762 34.693 22.1052 34.61 22.1412 34.529C22.2292 34.423 22.3542 34.354 22.4912 34.336C22.6292 34.317 22.7682 34.351 22.8812 34.429C23.1192 34.56 23.2952 34.784 23.5402 34.922C23.8032 35.022 24.0832 35.07 24.3652 35.063C24.6472 35.055 24.9252 34.992 25.1822 34.878C25.2172 35.106 25.3322 35.314 25.5062 35.466C25.6812 35.618 25.9042 35.703 26.1362 35.706C26.6042 35.7 27.0602 35.557 27.4462 35.295C27.8272 35.032 28.2432 34.822 28.6822 34.672C28.8342 34.649 28.9812 34.598 29.1152 34.523C29.3402 34.361 29.3722 34.043 29.4342 33.769C29.5382 33.339 29.7562 32.945 30.0662 32.628C30.3762 32.311 30.7672 32.083 31.1972 31.969C31.5292 32.355 31.3472 32.947 31.1272 33.401C30.9812 33.608 30.8842 33.845 30.8442 34.094C30.8042 34.344 30.8222 34.599 30.8962 34.84C31.0272 35.09 31.2912 35.264 31.3852 35.532C31.4042 35.631 31.4402 35.725 31.4912 35.812C31.5582 35.883 31.6422 35.935 31.7362 35.962C32.0432 36.08 32.3512 36.186 32.6642 36.28C32.8052 36.138 32.9542 35.995 33.1042 35.855C33.3472 35.628 33.5862 35.41 33.8062 35.205C33.8582 35.157 33.9172 35.105 33.9652 35.057L33.9802 35.043C34.1002 34.928 34.2102 34.82 34.3012 34.722C34.3392 34.679 34.3892 34.629 34.4452 34.573C34.4952 34.51 34.5582 34.448 34.6272 34.373C34.6662 34.337 34.7012 34.297 34.7332 34.255C34.7962 34.193 34.8592 34.124 34.9222 34.05C35.0052 33.957 35.0982 33.854 35.1902 33.75C35.2732 33.656 35.3602 33.557 35.4472 33.455L35.4542 33.448C35.5292 33.36 35.6032 33.277 35.6812 33.184C35.8012 33.039 35.9252 32.886 36.0492 32.729L36.0812 32.688C36.1882 32.552 36.2952 32.411 36.4032 32.268C36.4442 32.212 36.4862 32.157 36.5272 32.099C36.6332 31.954 36.7392 31.807 36.8422 31.657C36.8682 31.618 36.8922 31.578 36.9192 31.539C37.0112 31.401 37.1052 31.261 37.1882 31.12C37.2592 31.007 37.3252 30.893 37.3922 30.779C37.4272 30.717 37.4652 30.655 37.4992 30.593C37.5432 30.516 37.5812 30.438 37.6212 30.36C37.6772 30.253 37.7322 30.145 37.7822 30.038C37.8162 29.965 37.8472 29.892 37.8792 29.819C37.9252 29.712 37.9682 29.605 38.0082 29.498C38.0362 29.422 38.0632 29.346 38.0882 29.27C38.1392 29.113 38.1872 28.957 38.2202 28.804C38.3832 28.057 38.5002 27.543 38.5832 27.164C38.6162 27.017 38.6432 26.89 38.6672 26.778L38.6692 26.765L38.6742 26.739Z" fill="#AC3DA5" stroke="#1A1A18" stroke-width="0.5" stroke-miterlimit="10"/>
</svg>
