<svg width="63" height="71" viewBox="0 0 63 71" fill="none" xmlns="http://www.w3.org/2000/svg">
<path d="M37.7025 8.48867L51.3337 16.503C51.7447 16.061 52.2251 15.678 52.7663 15.3538C54.2499 14.4864 56.0108 14.2529 57.6631 14.7047C59.3155 15.1565 60.7246 16.2566 61.5817 17.764C62.0971 18.6796 62.3887 19.7079 62.4319 20.7623C62.4751 21.8166 62.2687 22.8661 61.83 23.8222C61.3914 24.7783 60.7334 25.6131 59.9115 26.256C59.0896 26.899 58.1279 27.3314 57.1075 27.5167V43.3685C58.1392 43.5575 59.1102 43.9997 59.9362 44.6569C60.7622 45.3141 61.4184 46.1664 61.8479 47.14C62.2774 48.1136 62.4672 49.1792 62.4009 50.2443C62.3347 51.3095 62.0143 52.3421 61.4676 53.2528C60.9209 54.1634 60.1644 54.9247 59.2635 55.4705C58.3627 56.0164 57.3447 56.3304 56.2977 56.3853C55.2508 56.4403 54.2065 56.2345 53.2552 55.7859C52.304 55.3372 51.4746 54.6592 50.8388 53.8106L37.4507 61.6776C37.8634 62.6765 38.0271 63.7638 37.9273 64.8427C37.8275 65.9216 37.4672 66.9586 36.8785 67.8615C36.2899 68.7644 35.4911 69.5051 34.5533 70.0177C33.6155 70.5304 32.5677 70.799 31.5033 70.7997C30.4824 70.8021 29.4755 70.5576 28.5656 70.0863C27.6557 69.615 26.8687 68.9304 26.2696 68.0888C25.6705 67.2472 25.2763 66.2728 25.1195 65.2457C24.9627 64.2187 25.0478 63.1684 25.3678 62.1814L11.8292 54.2231C11.1611 54.9814 10.3289 55.5711 9.39848 55.9458C8.46804 56.3204 7.46479 56.4697 6.46796 56.3818C5.47114 56.2938 4.50804 55.9712 3.65473 55.4393C2.80143 54.9073 2.0813 54.1807 1.55121 53.3167C1.02112 52.4528 0.695605 51.4752 0.600364 50.4612C0.505123 49.4471 0.642768 48.4245 1.00243 47.4739C1.36209 46.5233 1.93391 45.6709 2.67273 44.984C3.41155 44.2971 4.29714 43.7944 5.25954 43.5158L5.26243 27.3694C4.31745 27.097 3.44592 26.6088 2.7141 25.942C1.98229 25.2751 1.40946 24.4472 1.03918 23.5211C0.668904 22.595 0.510921 21.5951 0.577249 20.5975C0.643576 19.5999 0.932467 18.6309 1.42195 17.764C1.90927 16.9072 2.58034 16.1735 3.38508 15.6175C4.18983 15.0616 5.10748 14.6978 6.06959 14.5534C7.03171 14.4089 8.01344 14.4875 8.94156 14.7832C9.86969 15.079 10.7202 15.5842 11.4298 16.2613L25.2202 8.15278C24.9969 7.18865 24.991 6.18557 25.2028 5.21876C25.4146 4.25196 25.8386 3.34652 26.4432 2.57034C27.0477 1.79417 27.8169 1.16741 28.6933 0.737058C29.5696 0.306709 30.5303 0.0839417 31.5033 0.0854626C32.5053 0.0834004 33.4941 0.319235 34.3909 0.774238C35.2878 1.22924 36.0681 1.89087 36.6699 2.7066C37.2716 3.52232 37.6783 4.46965 37.8575 5.47336C38.0368 6.47707 37.9837 7.50951 37.7025 8.48867V8.48867ZM36.2757 11.0815C36.131 11.2406 35.9776 11.3939 35.8213 11.5382L53.9905 43.5806L54.1902 43.5217V27.3546C53.3633 27.1108 52.5927 26.7007 51.9241 26.1485C51.2555 25.5964 50.7023 24.9134 50.2974 24.1399C49.8924 23.3664 49.6438 22.5182 49.5663 21.6452C49.4888 20.7723 49.584 19.8924 49.8462 19.0575L36.2728 11.0756L36.2757 11.0815ZM26.783 11.1375C26.69 11.0353 26.6003 10.9302 26.5139 10.8222L13.0505 18.7363C13.3833 19.6355 13.5181 20.598 13.4454 21.556C13.3727 22.5141 13.0942 23.4441 12.6296 24.2805C12.165 25.1169 11.5257 25.8392 10.7567 26.3963C9.98781 26.9535 9.10807 27.3319 8.17969 27.5049V43.3744L8.4691 43.4333L26.7801 11.1375H26.783ZM33.2658 12.9761C31.9306 13.3611 30.5092 13.2991 29.2112 12.7993L11.0941 44.7356C12.1228 45.5866 12.8703 46.7384 13.2357 48.0356H49.7622C50.0726 46.9202 50.6666 45.9079 51.4842 45.101L33.2629 12.9761H33.2658ZM36.0123 59.5296L49.7275 51.4682C49.6883 51.3153 49.6545 51.161 49.6262 51.0056H13.3804C13.3428 51.2119 13.2936 51.4181 13.2386 51.6185L26.8872 59.6416C28.0564 58.4188 29.6945 57.6616 31.5062 57.6616C33.2629 57.6616 34.8518 58.3746 36.0152 59.5296H36.0123Z" fill="#F36A2B"/>
</svg>
