<svg width="17" height="20" viewBox="0 0 17 20" fill="none" xmlns="http://www.w3.org/2000/svg">
<path d="M8.5 9.91667C11.1828 9.91667 13.3571 7.69704 13.3571 4.95833C13.3571 2.21963 11.1828 0 8.5 0C5.81719 0 3.64286 2.21963 3.64286 4.95833C3.64286 7.69704 5.81719 9.91667 8.5 9.91667ZM11.9 11.1562H11.2663C10.4239 11.5514 9.48661 11.776 8.5 11.776C7.51339 11.776 6.57991 11.5514 5.73371 11.1562H5.1C2.28437 11.1562 0 13.4882 0 16.3625V17.974C0 19.0005 0.815848 19.8333 1.82143 19.8333H15.1786C16.1842 19.8333 17 19.0005 17 17.974V16.3625C17 13.4882 14.7156 11.1562 11.9 11.1562Z" fill="#1E74BC"/>
</svg>
