<svg width="14" height="13" viewBox="0 0 14 13" fill="none" xmlns="http://www.w3.org/2000/svg">
<path d="M6.41134 10.2449C5.42554 10.1983 4.49558 9.77355 3.81463 9.05885C3.13368 8.34416 2.75408 7.39449 2.75469 6.4071C2.75469 4.28635 4.47735 2.56284 6.59706 2.56284C8.65913 2.56284 10.337 4.18383 10.433 6.22129L9.08819 5.81764C8.98352 5.37349 8.76218 4.96537 8.44707 4.63546C8.13195 4.30554 7.73448 4.06582 7.29575 3.94106C6.85702 3.8163 6.39295 3.81103 5.95151 3.92581C5.51006 4.04058 5.10726 4.27122 4.78475 4.59389C4.46223 4.91657 4.2317 5.31957 4.11699 5.76123C4.00227 6.20289 4.00754 6.66719 4.13223 7.10614C4.25693 7.54508 4.49654 7.94275 4.82629 8.25802C5.15604 8.57329 5.56396 8.79474 6.00789 8.89946L6.41134 10.2449ZM13.001 6.4071C13.001 6.59931 12.9946 6.79152 12.9754 6.98374L11.7138 6.60572C11.7202 6.54165 11.7202 6.47117 11.7202 6.4071C11.7202 3.57516 9.4276 1.28142 6.59706 1.28142C3.76651 1.28142 1.4739 3.57516 1.4739 6.4071C1.4739 9.23903 3.76651 11.5328 6.59706 11.5328C6.6611 11.5328 6.73154 11.5328 6.79558 11.5264L7.17341 12.7886C6.98129 12.8078 6.78917 12.8142 6.59706 12.8142C3.06208 12.8142 0.193115 9.94382 0.193115 6.4071C0.193115 2.87038 3.06208 0 6.59706 0C10.132 0 13.001 2.87038 13.001 6.4071ZM10.5867 9.13652L12.0404 8.64958C12.335 8.55348 12.3286 8.13061 12.034 8.04091L7.16701 6.58009C6.92366 6.50961 6.69312 6.73386 6.76996 6.97733L8.23006 11.8467C8.31972 12.1479 8.74238 12.1543 8.83844 11.8531L9.32514 10.3987L11.8291 12.9039C11.9572 13.032 12.1557 13.032 12.2838 12.9039L13.0971 12.0902C13.2251 11.9621 13.2251 11.7634 13.0971 11.6353L10.5867 9.13652Z" fill="white"/>
</svg>
