<svg width="51" height="51" viewBox="0 0 51 51" fill="none" xmlns="http://www.w3.org/2000/svg">
<path d="M25.4996 51C39.5832 51 51 39.5832 51 25.4996C51 11.4168 39.5832 0 25.4996 0C11.4168 0 0 11.4168 0 25.4996C0 39.5832 11.4168 51 25.4996 51Z" fill="white" fill-opacity="0.57"/>
<path d="M44.161 25.2026C44.2768 24.7389 44.4623 24.2094 44.161 23.8565C43.8631 23.5044 43.772 23.3722 43.772 23.1498C43.772 22.9298 43.8631 22.4209 43.8631 22.2887C43.8631 22.1566 43.7941 21.7831 43.5397 21.8036C43.4518 21.8126 43.3673 21.8406 43.2926 21.8865C43.1744 21.9555 43.0841 22.0482 43.0135 22.0893L43.0127 22.0901C42.9339 22.1393 42.842 22.1656 42.7476 22.1656C42.6532 22.1656 42.5613 22.1393 42.4825 22.0901C42.2978 21.9579 42.3446 21.738 41.93 21.6715C41.5164 21.605 41.3563 21.518 41.055 21.6715C41.0181 21.6904 40.9853 21.7092 40.9557 21.7273C40.8958 21.7634 40.8482 21.7962 40.803 21.8217C40.689 21.8873 40.5888 21.9087 40.3426 21.825C39.8977 21.6083 39.4364 21.4244 38.962 21.2742C38.6632 21.2545 38.3636 21.3152 38.0985 21.4515C38.055 21.4769 38.0139 21.5065 37.9753 21.5385C37.6922 21.7708 37.3031 22.1385 37.1504 22.2264C37.1348 22.237 37.1176 22.2436 37.0987 22.246C37.0076 22.246 36.4552 22.1566 36.4552 21.7831C36.3985 21.4252 36.4888 21.0608 36.7063 20.7661C36.8114 20.6807 36.923 20.6052 37.042 20.5396L37.0585 20.5297C37.29 20.4066 37.505 20.2564 37.6979 20.0824C38.0426 19.7516 38.3193 19.5973 38.3414 19.4413C38.3636 19.2878 38.2725 19.1549 37.9737 18.8905C37.6733 18.6254 37.4443 18.6041 37.3966 18.2495C37.3835 17.8949 37.4065 17.5395 37.4656 17.1898C37.4911 16.9485 37.4221 16.726 37.2588 16.7498C37.1964 16.7663 37.1373 16.7934 37.0856 16.8311C36.8237 17.0068 36.589 17.2161 36.3879 17.4541C36.181 17.7184 35.7665 18.1403 35.7419 18.206C35.6409 18.3685 35.517 18.5163 35.3742 18.6459L35.3733 18.6467C35.2822 18.7124 34.8209 17.6536 35.0499 17.3457C35.2568 17.1266 35.4981 16.9395 35.7649 16.7925C35.9438 16.6579 36.0858 16.4847 36.1794 16.2861C36.2237 16.1301 36.4552 15.9766 36.2237 15.9315C35.9947 15.8888 35.9257 15.998 35.6023 15.9315C35.2822 15.865 34.981 15.8888 34.9588 15.7328C34.9375 15.5793 34.912 15.0286 34.6608 14.917C34.4392 14.8201 33.9008 14.674 33.6307 14.8743C33.5905 14.9038 33.5577 14.9407 33.533 14.9826C33.3262 15.3347 33.3508 15.4669 33.0061 15.645H33.0053L33.0045 15.6458C32.6597 15.8231 32.2903 15.865 32.0605 16.021C31.6681 16.2089 31.3472 16.5093 31.142 16.882C30.9737 17.276 31.0936 17.8456 30.7735 18.0796C30.6848 18.1411 30.5814 18.1764 30.473 18.183C29.7827 18.2495 30.1964 18.4268 29.5061 18.1617C29.0629 17.9327 28.5786 17.7833 28.0795 17.7192C27.3671 17.6322 26.9747 18.0295 26.6546 17.743C26.3123 17.3778 25.9068 17.0716 25.4562 16.8377C25.3396 16.8245 25.2214 16.8344 25.1082 16.8656C24.9949 16.8976 24.8898 16.9501 24.7987 17.0215C24.5664 17.1619 24.3423 17.3441 24.1929 17.4541C23.9278 17.6536 23.6807 17.8752 23.4558 18.1165C23.2736 18.3151 22.3519 19.7294 22.0531 20.2351C21.7551 20.744 21.6862 21.2282 21.2249 21.4507L21.224 21.4515C20.7028 21.646 20.1488 21.7437 19.5898 21.738C18.9298 21.7445 18.274 21.8373 17.6403 22.0129C17.5886 22.04 17.5402 22.0737 17.4983 22.1131C17.1749 22.4209 16.9459 22.3544 16.8548 23.1063C16.863 23.6094 16.7522 24.1077 16.5322 24.5632C16.5175 24.5796 16.501 24.5944 16.483 24.6059C16.222 24.7906 15.4331 24.7988 15.0991 24.9843C15.0769 24.9966 15.0556 25.0114 15.0359 25.027C14.774 25.2379 14.7781 25.5367 14.4268 25.755C14.3718 25.7895 14.3136 25.8191 14.2528 25.8437C13.8892 25.9947 13.4829 26.0218 13.3163 26.131C13.2974 26.1417 13.281 26.1564 13.2678 26.1737C13.2547 26.1909 13.2457 26.2098 13.2408 26.2311C13.2367 26.2517 13.2358 26.273 13.2408 26.2935C13.2449 26.314 13.2531 26.3337 13.2662 26.351C13.4262 26.6826 13.4952 26.7039 13.6331 26.9896C13.771 27.2785 14.0468 27.3212 13.8621 27.565C13.6799 27.8079 13.771 27.7841 13.542 27.9409C13.4262 28.0172 13.368 28.0722 13.258 28.133C13.0692 28.2282 12.8706 28.3045 12.6653 28.3595C12.2673 28.5097 11.8486 28.6058 11.4234 28.646C11.169 28.646 11.1936 28.339 10.5731 28.5138C10.395 28.5614 10.2251 28.6337 10.0691 28.7297C9.94269 28.8069 9.83599 28.8898 9.68086 28.9759C9.55363 29.0457 9.42065 29.1056 9.28358 29.1549C8.61543 29.3987 8.17875 29.5973 7.92512 29.3535C7.67395 29.1097 7.35054 28.7125 7.21264 28.7125C7.16175 28.7182 7.11332 28.7371 7.07146 28.7658C6.96311 28.8315 6.86874 28.9168 6.79486 29.0178C6.72017 29.1179 6.66762 29.232 6.63971 29.3527C6.5289 29.7598 6.54451 30.1899 6.68405 30.5897C6.89089 31.1191 6.45504 31.4056 7.37436 31.4269C7.88983 31.4991 8.41598 31.431 8.89205 31.2283C8.99548 31.1618 9.10546 31.0518 9.22366 30.9861C9.28029 30.9467 9.34925 30.9278 9.41984 30.9311C9.48961 30.9352 9.55608 30.9623 9.60779 31.0083C9.88359 31.2275 9.99687 30.9418 9.92792 31.7577C9.85897 32.5761 9.83682 32.4652 9.97471 32.6187C10.1126 32.7747 10.0215 32.9069 9.90575 33.0817C9.79002 33.2598 9.60779 33.4584 9.72106 33.6571C9.8368 33.8557 9.92793 33.7679 10.0913 34.0995C10.2513 34.4303 10.5271 34.6289 10.4803 34.9597C10.5501 34.9572 10.6199 34.9581 10.6896 34.963C11.1616 35.0459 11.6475 35.0073 12.0982 34.8514C12.31 34.7242 12.5373 34.6207 12.7745 34.5444C13.0725 34.4886 13.4115 34.6051 13.6709 34.4517C13.858 34.3376 13.9467 34.1135 14.1313 33.9969L14.1322 33.9961H14.133C14.536 33.7466 15.0523 34.1545 15.53 34.1102C15.7508 34.0913 15.9798 33.9747 16.1785 34.0699C16.2778 34.134 16.3664 34.2128 16.4411 34.3031C16.6102 34.4188 16.8097 34.4861 17.0165 34.4992C17.2234 34.5124 17.4302 34.4705 17.6141 34.377C17.9777 34.1882 18.3676 34.0486 18.7706 33.9616C19.0637 33.955 19.3567 33.9756 19.6464 34.0224C20.0289 34.0667 20.418 34.0002 20.7611 33.8319C20.9318 33.7466 21.0788 33.6234 21.1896 33.4732C21.3012 33.3222 21.3734 33.149 21.4005 32.966C21.3882 32.7903 21.4169 32.6138 21.4867 32.4497C21.554 32.3659 21.6361 32.2929 21.7297 32.2354C22.4274 31.7314 22.7311 30.8688 23.3278 30.254C23.5494 30.0865 23.7062 29.8534 23.7751 29.5916C23.7858 29.4487 23.6947 29.2337 23.8302 29.1229C23.8458 29.1105 23.863 29.0999 23.881 29.0925C23.9089 29.0802 23.9393 29.0736 23.9697 29.0736C24.0001 29.0736 24.0304 29.0802 24.0575 29.0925C24.11 29.1171 24.1519 29.159 24.2044 29.1779C24.2291 29.1844 24.2545 29.1869 24.2799 29.1836C24.3054 29.1811 24.3292 29.1738 24.3514 29.1615C24.399 29.136 24.44 29.1024 24.4737 29.0621C24.5287 28.9768 24.5984 28.9012 24.6805 28.8397V28.8389H24.6822C24.7486 28.8052 24.8266 28.7986 24.898 28.82C24.9694 28.8413 25.0302 28.8889 25.0655 28.953C25.0778 28.9932 25.0967 29.0318 25.1205 29.0662C25.1525 29.1007 25.1952 29.1237 25.242 29.1327C25.3725 29.1631 25.5079 29.1639 25.6384 29.1368C25.7689 29.1089 25.8912 29.0523 25.9963 28.9727C26.0718 28.9267 26.1481 28.8775 26.2269 28.8315C26.6078 28.6115 26.964 28.3464 27.3367 28.1108L27.3375 28.11C28.114 27.6257 28.9151 27.18 29.74 26.7753C30.2153 26.4913 30.7677 26.3502 31.3275 26.3699C31.554 26.4363 31.7962 26.4363 32.0227 26.3699C32.0507 26.3551 32.0761 26.3362 32.0991 26.3148C32.177 26.2188 32.2411 26.1129 32.2895 25.9997C32.3593 25.8938 32.4561 25.8076 32.5719 25.7485C32.7746 25.6533 32.9921 25.5893 33.2154 25.5597C33.6143 25.4596 34.0206 25.3873 34.4302 25.3422C34.6625 25.3315 34.8833 25.3134 34.825 25.5646C34.7585 25.856 34.367 26.1663 34.1848 26.3994C34.0214 26.5619 33.9131 26.7679 33.8745 26.9904C33.8351 27.2128 33.8671 27.4418 33.9665 27.6471C34.115 27.8063 34.2841 27.9466 34.4688 28.0648C34.5599 28.1264 34.6297 28.2118 34.6707 28.3103C34.7118 28.4096 34.7208 28.5171 34.6978 28.6213C34.6371 28.7748 34.4606 28.9316 34.5599 29.0638C34.6428 29.1721 34.8193 29.1196 34.9605 29.1196C35.311 29.1245 35.4989 29.5858 35.3306 29.8821C35.2674 29.9913 35.1772 30.0832 35.0663 30.1489C34.8751 30.2589 34.6576 30.3205 34.4343 30.3278C34.0838 30.3467 33.7333 30.2802 33.3829 30.3016C33.3229 30.3007 33.2647 30.3155 33.2129 30.3434C33.0939 30.4181 33.0997 30.5979 32.9946 30.6931H32.9938V30.6939C32.8748 30.8023 32.6843 30.7571 32.5185 30.7596C32.3954 30.7629 32.2756 30.7973 32.1713 30.8605C32.0835 30.9106 32.008 30.9787 31.9505 31.0592C31.8922 31.1404 31.8528 31.2324 31.8356 31.3284C31.8077 31.5115 31.8487 31.7183 31.733 31.8611C31.7067 31.8931 31.6747 31.9211 31.6378 31.9416C31.4252 32.0655 31.0846 31.9834 30.8555 32.0918C30.8178 32.1099 30.7825 32.1336 30.7529 32.1632C30.6955 32.2239 30.6545 32.2978 30.6339 32.3774C30.6282 32.3955 30.6241 32.4143 30.6208 32.4332H30.62L30.6192 32.4341C30.6134 32.4603 30.6085 32.4866 30.6027 32.5161C30.5822 32.6532 30.5789 32.7919 30.5945 32.929C30.5995 32.993 30.6085 33.0587 30.6192 33.1227C30.6331 33.2097 30.6495 33.2951 30.6635 33.3796C30.6856 33.5093 30.7078 33.639 30.7185 33.7662C30.7431 34.047 30.716 34.3302 30.7603 34.606C30.8005 34.8538 30.8999 35.0894 31.0501 35.2946C31.0985 35.2528 31.151 35.2142 31.2052 35.1789C31.2577 35.1452 31.3136 35.1165 31.371 35.0927C31.6049 34.9967 31.8307 34.8842 32.0457 34.7554C32.2206 34.6626 32.3732 34.537 32.4964 34.386C32.5046 34.3737 32.5136 34.3622 32.5243 34.3515C32.53 34.3433 32.5374 34.3359 32.5464 34.3302C32.5538 34.322 32.562 34.3138 32.5711 34.3064C32.6515 34.2325 32.7894 34.129 32.9577 34.0018C33.0045 33.9698 33.057 33.9329 33.1095 33.8935C33.1177 33.8878 33.1259 33.8804 33.1341 33.8746C33.2474 33.7925 33.3713 33.703 33.501 33.607C33.6283 33.5142 33.758 33.419 33.8876 33.3238C34.2841 33.0447 34.651 32.7279 34.981 32.3783C35.5334 31.7159 35.9479 30.9426 36.2705 30.5453C36.3698 30.3984 36.5011 30.2737 36.6563 30.1809C36.8582 30.1013 37.0692 30.0455 37.285 30.0151C38.0788 29.887 38.8553 29.6736 39.5989 29.3781C39.6186 29.365 39.6367 29.3494 39.6523 29.3322C39.7442 29.2 39.8501 29.0777 39.9683 28.9669C39.9986 28.9447 40.0348 28.93 40.0717 28.9242C40.1095 28.9185 40.148 28.9218 40.1841 28.9341C40.4132 29.0006 41.1256 29.1089 41.1256 29.4849C41.1256 29.8608 41.2192 30.1686 41.5393 30.3007C41.9793 30.5166 42.4816 30.5864 42.9667 30.4994C43.1982 30.4534 43.4272 30.3935 43.6505 30.3196C43.735 30.2597 43.694 30.1637 43.4018 29.9708C42.7361 29.5308 42.9438 29.883 42.3224 29.2C41.701 28.5138 41.4942 28.3603 41.4006 28.0287C41.3087 27.6979 41.1486 27.2555 41.2619 27.0142C41.6378 26.47 42.045 25.9463 42.4825 25.4464C42.6261 25.2872 42.7935 25.1501 42.9799 25.0393C43.0759 24.9736 43.1949 24.9457 43.3123 24.9605C43.5183 25.0147 43.8754 25.4456 44.0634 25.3578C44.0904 25.3397 44.1134 25.3176 44.1298 25.2905C44.1471 25.2634 44.1577 25.2338 44.161 25.2026Z" fill="#F9B316" stroke="#654602" stroke-width="0.5" stroke-miterlimit="10"/>
</svg>
