<svg width="51" height="51" viewBox="0 0 51 51" fill="none" xmlns="http://www.w3.org/2000/svg">
<path d="M25.4996 51C39.5832 51 51 39.5832 51 25.4996C51 11.4168 39.5832 0 25.4996 0C11.4168 0 0 11.4168 0 25.4996C0 39.5832 11.4168 51 25.4996 51Z" fill="white" fill-opacity="0.57"/>
<path d="M23.277 37.7279C23.518 38.1239 23.244 38.6609 23.404 39.0989C23.43 39.1799 23.484 39.2489 23.557 39.2939C23.589 39.3169 23.629 39.3279 23.669 39.3249C23.75 39.3219 23.821 39.2629 23.9 39.2429C24 39.2299 24.1 39.2569 24.18 39.3179C24.261 39.3789 24.314 39.4689 24.33 39.5689C24.36 39.7049 24.353 39.8749 24.47 39.9469C24.517 39.9729 24.569 39.9869 24.622 39.9879C24.743 40.0059 24.866 40.0039 24.986 39.9799C25.015 39.9719 25.044 39.9599 25.071 39.9459C25.112 39.9259 25.148 39.8969 25.178 39.8619C25.207 39.8269 25.229 39.7859 25.242 39.7419C25.265 39.6309 25.216 39.5129 25.249 39.4049C25.271 39.3449 25.306 39.2909 25.351 39.2459C25.686 38.9499 25.911 38.5489 25.989 38.1069C25.982 37.9949 25.991 37.8829 26.017 37.7749C26.043 37.7039 26.09 37.6439 26.152 37.6009C26.203 37.5649 26.262 37.5399 26.323 37.5279C26.385 37.5159 26.448 37.5159 26.509 37.5299C26.606 37.5579 26.694 37.6079 26.769 37.6759C26.843 37.7439 26.9 37.8289 26.937 37.9229C26.977 38.0159 27.008 38.1209 27.094 38.1699C27.127 38.1869 27.162 38.1979 27.199 38.2039C27.432 38.2609 27.675 38.2619 27.908 38.2059C27.959 38.1909 28.009 38.1699 28.057 38.1449C28.104 38.1199 28.148 38.0899 28.189 38.0549C28.205 37.9519 28.222 37.8549 28.24 37.7699C28.301 37.5009 28.322 37.2249 28.304 36.9499C28.286 36.6999 28.418 36.5949 28.517 36.3789C28.698 35.9849 28.367 35.4969 28.538 35.0979C28.65 34.8409 28.937 34.7069 29.082 34.4679C29.202 34.1839 29.256 33.8769 29.242 33.5679C29.276 33.2609 29.382 32.9649 29.55 32.7069C29.679 32.5499 29.784 32.3739 29.86 32.1849C29.932 31.9409 29.853 31.6709 29.909 31.4209C29.954 31.2029 30.097 31.0149 30.145 30.7959C30.153 30.7629 30.158 30.7319 30.165 30.6989C30.08 30.6309 29.98 30.5829 29.873 30.5599C29.703 30.5349 29.534 30.4999 29.367 30.4569C29.232 30.4109 29.095 30.2819 29.141 30.1479C29.162 30.0949 29.202 30.0529 29.254 30.0289C29.305 30.0009 29.364 29.9809 29.416 29.9579C29.455 29.9409 29.492 29.9219 29.527 29.8999C29.757 29.7119 29.968 29.5019 30.158 29.2739C30.346 29.0989 30.575 28.9759 30.776 28.8159C30.881 28.7429 30.972 28.6499 31.041 28.5409C31.11 28.4329 31.158 28.3109 31.18 28.1839C31.198 27.9879 30.996 27.1289 31.313 26.9949C31.368 26.9739 31.427 26.9699 31.484 26.9849C31.662 27.0239 31.718 27.2419 31.751 27.4219C31.784 27.5999 31.876 27.8179 32.056 27.8159C32.09 27.8139 32.124 27.8059 32.154 27.7909C32.215 27.7549 32.273 27.7139 32.328 27.6689C32.356 27.6469 32.387 27.6289 32.42 27.6149C32.517 27.5739 32.637 27.5829 32.73 27.5449C32.761 27.5319 32.789 27.5119 32.811 27.4869C32.92 27.3559 32.808 27.1579 32.838 26.9879C32.856 26.8909 32.922 26.8009 32.905 26.7029C32.883 26.6419 32.854 26.5839 32.818 26.5309C32.795 26.4609 32.788 26.3869 32.798 26.3139C32.808 26.2419 32.834 26.1719 32.874 26.1109C32.953 25.9889 33.011 25.8529 33.045 25.7099C33.035 25.5279 33.01 25.3459 32.971 25.1679C32.964 25.0109 33.016 24.8579 33.116 24.7379C33.197 24.6499 33.292 24.5779 33.398 24.5239C33.506 24.4679 33.61 24.4069 33.711 24.3399C33.759 24.3109 33.801 24.2719 33.833 24.2259C33.865 24.1789 33.887 24.1259 33.896 24.0699C33.898 24.0129 33.89 23.9559 33.871 23.9029C33.809 23.7049 33.799 23.4939 33.841 23.2909C33.859 23.2149 33.892 23.1429 33.938 23.0809C33.984 23.0179 34.041 22.9649 34.108 22.9249C34.152 22.8999 34.201 22.8829 34.251 22.8759C34.259 22.9999 34.281 23.1219 34.315 23.2409C34.343 23.3309 34.399 23.4339 34.49 23.4289C34.515 23.4269 34.539 23.4179 34.56 23.4039C34.581 23.3889 34.6 23.3719 34.616 23.3519C34.767 23.1879 34.856 22.9749 34.868 22.7509C34.866 22.6369 34.87 22.5219 34.881 22.4089C34.929 22.1569 35.163 22.0379 35.313 21.8579C35.505 21.6279 35.735 21.4339 35.994 21.2839C36.252 21.1339 36.534 21.0289 36.827 20.9759C36.966 20.9619 37.101 20.9209 37.224 20.8539C37.262 20.8289 37.293 20.7959 37.317 20.7579C37.374 20.6229 37.394 20.4759 37.373 20.3309C37.368 20.2179 37.39 20.1059 37.439 20.0039C37.488 19.9029 37.561 19.8149 37.652 19.7499C37.679 19.7339 37.708 19.7219 37.738 19.7129C37.876 19.6939 38.016 19.6909 38.155 19.7029C38.329 19.6889 38.496 19.6259 38.638 19.5229C38.687 19.4899 38.734 19.4549 38.78 19.4179C38.952 19.2599 39.136 19.1159 39.331 18.9889H39.332L39.333 18.9879C39.416 18.9389 39.508 18.9049 39.604 18.8879C39.607 18.8699 39.611 18.8519 39.616 18.8339C39.635 18.7569 39.673 18.6849 39.726 18.6259C39.753 18.5969 39.786 18.5739 39.821 18.5559C40.032 18.4509 40.345 18.5299 40.542 18.4109C40.575 18.3909 40.605 18.3639 40.629 18.3329C40.735 18.1939 40.697 17.9939 40.723 17.8159C40.739 17.7219 40.775 17.6329 40.829 17.5549C40.883 17.4759 40.952 17.4099 41.033 17.3609C41.13 17.2999 41.241 17.2659 41.355 17.2629C41.507 17.2599 41.681 17.3029 41.791 17.1989C41.887 17.1059 41.882 16.9319 41.992 16.8599L41.993 16.8589C42.041 16.8309 42.095 16.8169 42.15 16.8179C42.473 16.7969 42.797 16.8619 43.12 16.8439C43.324 16.8359 43.524 16.7769 43.7 16.6699C43.802 16.6069 43.885 16.5179 43.942 16.4119C44.097 16.1239 43.925 15.6769 43.602 15.6719C43.472 15.6719 43.309 15.7229 43.233 15.6179C43.141 15.4889 43.304 15.3369 43.36 15.1879C43.381 15.0869 43.372 14.9819 43.335 14.8859C43.297 14.7899 43.233 14.7079 43.149 14.6479C42.978 14.5329 42.823 14.3969 42.686 14.2419C42.595 14.0429 42.565 13.8209 42.601 13.6049C42.637 13.3889 42.736 13.1889 42.887 13.0309C43.055 12.8049 43.416 12.5039 43.477 12.2209C43.53 11.9769 43.327 11.9949 43.113 12.0049C42.736 12.0479 42.362 12.1189 41.994 12.2159C41.789 12.2449 41.589 12.3059 41.402 12.3989C41.297 12.4559 41.207 12.5389 41.143 12.6419C41.099 12.7519 41.04 12.8549 40.968 12.9479C40.947 12.9689 40.923 12.9869 40.897 13.0019C40.688 13.0669 40.464 13.0679 40.255 13.0029C39.739 12.9839 39.23 13.1209 38.792 13.3959C38.033 13.7889 37.295 14.2209 36.58 14.6919C36.237 14.9209 35.909 15.1769 35.558 15.3909C35.485 15.4359 35.415 15.4839 35.345 15.5279C35.248 15.6059 35.135 15.6609 35.015 15.6879C34.894 15.7149 34.769 15.7139 34.649 15.6849C34.606 15.6759 34.567 15.6539 34.537 15.6199C34.515 15.5859 34.498 15.5489 34.486 15.5099C34.454 15.4479 34.398 15.4019 34.332 15.3809C34.266 15.3609 34.195 15.3669 34.133 15.3989C34.058 15.4589 33.994 15.5319 33.943 15.6139C33.913 15.6539 33.874 15.6869 33.83 15.7119C33.809 15.7239 33.787 15.7309 33.763 15.7339C33.74 15.7369 33.716 15.7349 33.693 15.7279C33.645 15.7099 33.606 15.6689 33.558 15.6459C33.533 15.6339 33.505 15.6279 33.478 15.6269C33.45 15.6269 33.422 15.6329 33.397 15.6449C33.38 15.6519 33.365 15.6619 33.351 15.6739C33.226 15.7819 33.31 15.9899 33.3 16.1289C33.237 16.3829 33.092 16.6089 32.888 16.7719C32.339 17.3679 32.059 18.2059 31.415 18.6949C31.33 18.7509 31.254 18.8219 31.191 18.9029C31.128 19.0619 31.101 19.2339 31.113 19.4049C31.087 19.5819 31.021 19.7509 30.918 19.8969C30.815 20.0429 30.68 20.1629 30.523 20.2449L30.521 20.2459C30.205 20.4099 29.847 20.4739 29.494 20.4309C29.228 20.3859 28.958 20.3659 28.688 20.3719C28.316 20.4569 27.957 20.5929 27.622 20.7759C27.453 20.8659 27.262 20.9069 27.072 20.8939C26.881 20.8819 26.697 20.8159 26.541 20.7039C26.473 20.6159 26.391 20.5399 26.3 20.4779C26.117 20.3849 25.905 20.4979 25.702 20.5159C25.262 20.5599 24.787 20.1649 24.416 20.4049C24.246 20.5179 24.164 20.7369 23.992 20.8469H23.991L23.99 20.8479C23.751 20.9969 23.438 20.8839 23.164 20.9379C22.945 21.0119 22.736 21.1129 22.541 21.2359C22.125 21.3879 21.678 21.4249 21.244 21.3439C21.18 21.3389 21.115 21.3389 21.051 21.3409C21.011 21.6619 20.924 21.7029 20.777 21.7259C20.629 21.7469 20.352 21.5749 20.034 21.5749C19.74 21.5539 19.448 21.6379 19.208 21.8109C19.017 21.9839 18.531 22.3899 18.531 22.3899H17.661C17.157 22.4079 16.66 22.5239 16.199 22.7319C15.754 22.8739 15.287 22.9329 14.821 22.9039C14.546 22.8839 13.656 23.0759 13.317 23.0969C12.805 23.0909 12.297 23.0039 11.812 22.8399C11.664 22.7319 11.092 22.2609 10.711 22.3899C10.297 22.5479 9.91098 22.7719 9.56598 23.0529C9.20498 23.3339 9.09802 23.6549 8.65302 23.6959C8.33302 23.7269 7.94598 23.7479 7.63098 23.7549C7.71798 24.1139 7.77202 24.4799 7.79102 24.8479C7.75802 25.3539 7.65102 25.8519 7.47302 26.3269C7.45302 26.3649 7.42898 26.4009 7.40198 26.4349C7.39198 26.4499 7.37902 26.4629 7.36902 26.4779V26.4829C7.36602 26.5219 7.25399 26.6119 7.20599 26.6559C7.20099 26.6609 7.19298 26.6659 7.19098 26.6709C7.17798 26.6839 7.16302 26.6969 7.15002 26.7119C7.12202 26.7379 7.09597 26.7659 7.07397 26.7969C7.06297 26.8129 7.05203 26.8289 7.04303 26.8459C7.02103 26.8989 7.007 26.9539 7 27.0109C7.092 27.1519 7.16399 27.3059 7.21399 27.4679C7.48799 28.2599 7.46801 28.3039 7.89001 28.7329C7.92801 28.7719 7.96401 28.8049 7.99701 28.8359C8.04801 28.8829 8.09397 28.9239 8.13397 28.9599C8.16197 28.9829 8.188 29.0059 8.211 29.0269C8.222 29.0359 8.23302 29.0459 8.24402 29.0569C8.25502 29.0659 8.26499 29.0769 8.27399 29.0879C8.30399 29.1179 8.32802 29.1519 8.34802 29.1889C8.35202 29.1979 8.35597 29.2069 8.35797 29.2169C8.36297 29.2249 8.36603 29.2349 8.36603 29.2449C8.37103 29.2649 8.37399 29.2859 8.37299 29.3069C8.37299 29.3359 8.36998 29.3659 8.36298 29.3939C8.34098 29.4839 8.30997 29.5699 8.27197 29.6539C8.03997 30.1889 7.82703 30.5329 8.01703 30.9399C8.13903 31.1979 8.22303 31.4739 8.26703 31.7569C8.30603 31.7369 8.34201 31.7089 8.37201 31.6759C8.53301 31.5499 8.649 31.3749 8.703 31.1769C8.754 30.8479 8.45598 30.5569 8.45398 30.2249C8.45298 30.1419 8.47102 30.0589 8.50702 29.9839C8.54302 29.9089 8.59497 29.8429 8.65997 29.7909C8.73597 29.7289 8.825 29.6909 8.896 29.6259C9.046 29.4869 9.087 29.2589 9.229 29.1119C9.262 29.0789 9.3 29.0509 9.341 29.0279C9.468 28.9629 9.61001 28.9339 9.75201 28.9439C9.94001 28.9549 10.123 29.0089 10.311 29.0369C10.39 29.0539 10.473 29.0459 10.547 29.0139C10.616 28.9649 10.672 28.9009 10.712 28.8269C10.793 28.7119 10.897 28.6159 11.017 28.5439C11.217 28.4229 11.453 28.3739 11.685 28.4069C11.727 28.4089 11.768 28.4199 11.806 28.4399C11.843 28.4599 11.875 28.4879 11.901 28.5229C11.962 28.6299 11.891 28.7749 11.934 28.8899C11.963 28.9439 12.009 28.9859 12.065 29.0099C12.121 29.0349 12.183 29.0389 12.242 29.0239C12.3 29.0099 12.356 28.9869 12.408 28.9559C12.46 28.9259 12.51 28.8909 12.561 28.8569H12.562C13.037 28.5549 13.606 28.4409 14.159 28.5379C14.4 28.5689 14.625 28.6759 14.803 28.8439C14.891 28.9679 14.989 29.0849 15.095 29.1939C15.172 29.2519 15.262 29.2889 15.357 29.2999C15.452 29.3119 15.549 29.2979 15.637 29.2599C15.774 29.2069 15.97 29.1529 16.087 29.2959C16.114 29.3359 16.131 29.3819 16.135 29.4299L16.181 29.6849C16.201 29.8029 16.237 29.9389 16.346 29.9879C16.389 30.0029 16.435 30.0049 16.479 29.9959C16.523 29.9859 16.564 29.9649 16.597 29.9349C16.622 29.9159 16.645 29.8939 16.666 29.8709C16.751 29.7689 16.805 29.6449 16.821 29.5129C16.818 29.4459 16.837 29.3799 16.877 29.3259C16.883 29.3209 16.89 29.3169 16.896 29.3139C16.925 29.2959 16.957 29.2829 16.99 29.2759C17.239 29.2149 17.493 29.1699 17.748 29.1419C17.807 29.1419 17.865 29.1249 17.915 29.0939C17.949 29.0629 17.975 29.0239 17.991 28.9809C18.057 28.8289 18.092 28.6659 18.095 28.4999C18.086 28.3599 18.092 28.2199 18.113 28.0809C18.135 28.0029 18.173 27.9309 18.223 27.8679C18.274 27.8059 18.337 27.7539 18.407 27.7159C18.455 27.6899 18.505 27.6679 18.557 27.6529C18.575 27.7869 18.613 27.9169 18.668 28.0389C18.696 28.1009 18.737 28.1559 18.787 28.1999C18.838 28.2449 18.897 28.2789 18.961 28.2989C19.026 28.3149 19.094 28.3099 19.156 28.2839C19.218 28.2599 19.268 28.2129 19.295 28.1529C19.325 28.0209 19.317 27.8839 19.273 27.7569C19.257 27.6429 19.269 27.5279 19.306 27.4189C19.344 27.3109 19.407 27.2139 19.489 27.1349C19.508 27.1159 19.529 27.0989 19.551 27.0839C19.615 27.0369 19.691 27.0089 19.77 27.0029C19.822 26.9989 19.875 27.0109 19.921 27.0379C19.966 27.0649 20.003 27.1039 20.027 27.1519C20.043 27.2019 20.054 27.2539 20.06 27.3059C20.071 27.4309 20.128 27.5459 20.22 27.6299C20.313 27.6569 20.41 27.6599 20.505 27.6409C20.73 27.6299 20.953 27.5899 21.168 27.5219C21.229 27.5039 21.287 27.4769 21.341 27.4419C21.456 27.3519 21.549 27.2359 21.612 27.1039C21.628 27.0819 21.648 27.0629 21.671 27.0499C21.953 26.9199 22.258 26.8499 22.567 26.8459C22.832 26.8459 22.473 27.3189 22.229 27.5869C21.985 27.8539 22.26 28.1419 22.463 28.2189C22.664 28.2939 22.397 28.5169 22.303 28.6249C22.123 28.8089 22.005 29.0439 21.965 29.2989C21.965 29.5689 22.41 29.7719 22.557 29.7079C22.577 29.6989 22.595 29.6879 22.612 29.6749C22.743 29.5779 22.877 29.3559 22.97 29.2789H22.971L22.972 29.2779C23.076 29.1939 23.414 29.2479 23.745 29.4279C24.073 29.6099 24.083 29.9209 24.157 29.9959C24.228 30.0669 24.322 30.1089 24.421 30.1139C24.606 30.1369 24.786 30.1919 24.953 30.2759C25.144 30.3819 24.879 30.7129 24.846 30.8849C24.813 31.0579 25.271 31.2609 25.609 31.3689C25.894 31.4789 26.131 31.6879 26.278 31.9579C26.329 32.0859 26.255 32.6849 26.138 32.6959L26.137 32.6969C25.996 32.7309 25.862 32.7919 25.742 32.8749C25.656 32.9269 25.579 32.9939 25.515 33.0709C25.481 33.1159 25.438 33.1529 25.389 33.1799C25.239 33.2519 25.075 33.2879 24.909 33.2849C24.796 33.2949 24.687 33.3269 24.588 33.3809C24.472 33.4429 24.369 33.5279 24.284 33.6289C24.194 33.7629 24.151 33.9229 24.159 34.0839C24.62 34.4079 24.991 34.7549 24.762 34.8809C24.337 35.1179 23.658 34.7319 23.363 34.9689C23.205 35.0659 23.082 35.2129 23.013 35.3869C22.945 35.5599 22.934 35.7519 22.982 35.9329C23.088 36.2579 23.152 36.5959 23.173 36.9379C23.136 37.1109 23.09 37.2809 23.035 37.4479C23.066 37.4759 23.094 37.5069 23.122 37.5379C23.179 37.5959 23.231 37.6599 23.277 37.7279Z" fill="#3FC1CF" stroke="#1A1A18" stroke-width="0.5" stroke-miterlimit="10"/>
</svg>
