<svg width="23" height="23" viewBox="0 0 23 23" fill="none" xmlns="http://www.w3.org/2000/svg">
<path fill-rule="evenodd" clip-rule="evenodd" d="M1.19792 1.2V11.3455H9.25663V1.2H1.19792ZM0.653409 0C0.292541 0 0 0.29305 0 0.654545V11.8909C0 12.2524 0.292541 12.5455 0.653409 12.5455H9.80114C10.162 12.5455 10.4545 12.2524 10.4545 11.8909V0.654545C10.4545 0.29305 10.162 0 9.80114 0H0.653409Z" fill="white"/>
<path fill-rule="evenodd" clip-rule="evenodd" d="M1.19792 15.3819V21.836H9.25663V15.3819H1.19792ZM0.653409 14.218C0.292541 14.218 0 14.5022 0 14.8528V22.365C0 22.7156 0.292541 22.9998 0.653409 22.9998H9.80114C10.162 22.9998 10.4545 22.7156 10.4545 22.365V14.8528C10.4545 14.5022 10.162 14.218 9.80114 14.218H0.653409Z" fill="white"/>
<path fill-rule="evenodd" clip-rule="evenodd" d="M13.2999 1.19726V6.74819H21.8275V1.19726H13.2999ZM12.7669 0C12.4137 0 12.1273 0.292381 12.1273 0.653051V7.2924C12.1273 7.65307 12.4137 7.94545 12.7669 7.94545H22.3605C22.7137 7.94545 23 7.65307 23 7.2924V0.653051C23 0.292381 22.7137 0 22.3605 0H12.7669Z" fill="white"/>
<path fill-rule="evenodd" clip-rule="evenodd" d="M13.2999 10.7958V21.8224H21.8275V10.7958H13.2999ZM12.7669 9.61816C12.4137 9.61816 12.1273 9.90574 12.1273 10.2605V22.3577C12.1273 22.7124 12.4137 23 12.7669 23H22.3605C22.7137 23 23 22.7124 23 22.3577V10.2605C23 9.90574 22.7137 9.61816 22.3605 9.61816H12.7669Z" fill="white"/>
</svg>
