<svg width="32" height="32" viewBox="0 0 32 32" fill="none" xmlns="http://www.w3.org/2000/svg">
<path d="M9.41179 3.14722V9.28356H3.24524C3.35797 5.74336 5.8235 3.44778 9.41179 3.14722ZM8.9753 3.62546C6.13751 3.92019 3.91705 6.1032 3.71332 8.86108H8.9753V3.62546Z" fill="#06447C"/>
<path d="M9.55518 3.14722V9.28356H15.7217C15.609 5.74336 13.1433 3.44778 9.55518 3.14722ZM9.99166 3.62546C12.8295 3.92019 15.0499 6.1032 15.2536 8.86108H9.99166V3.62546Z" fill="#06447C"/>
<path d="M9.41179 15.5343V9.39795H3.24524C3.35797 12.9382 5.8235 15.2337 9.41179 15.5343ZM8.9753 15.0561C6.13751 14.7613 3.91705 12.5783 3.71332 9.82043H8.9753V15.0561Z" fill="#06447C"/>
<path d="M9.55518 15.5343V9.39795H15.7217C15.609 12.9382 13.1433 15.2337 9.55518 15.5343ZM9.99166 15.0561C12.8295 14.7613 15.0499 12.5783 15.2536 9.82043H9.99166V15.0561Z" fill="#06447C"/>
<path d="M11.2531 28.9009V19.2168H12.8138V28.9009H11.2531Z" fill="#06447C"/>
<path d="M13.9221 28.902V24.8506H15.4821V28.902H13.9221Z" fill="#06447C"/>
<path d="M16.5902 28.9007V18.1428H18.1504V28.9007H16.5902Z" fill="#06447C"/>
<path d="M19.259 28.9004V21.1816H20.8192V28.9004H19.259Z" fill="#06447C"/>
<path d="M21.9271 28.8998V19.4583H23.4873V28.8998H21.9271Z" fill="#06447C"/>
<path d="M24.5957 28.8989V23.4778H26.1557V28.8989H24.5957Z" fill="#06447C"/>
<path d="M27.264 28.9018V21.1816H28.824V28.9018H27.264Z" fill="#06447C"/>
<path d="M5.91431 28.9008V21.8469H7.47507V28.9008H5.91431Z" fill="#06447C"/>
<path d="M3.24536 28.901V23.7468H4.80613V28.901H3.24536Z" fill="#06447C"/>
<path d="M8.5835 28.9019V26.7617H10.1448V28.9019H8.5835Z" fill="#06447C"/>
<path d="M20.4111 11.691H16.8449C16.7643 11.691 16.7067 11.7678 16.7067 11.856V15.3688C16.7067 15.4568 16.7643 15.5338 16.8449 15.5338H20.4111C20.4916 15.5338 20.5495 15.4568 20.5493 15.3688V11.856C20.5495 11.7678 20.4916 11.691 20.4111 11.691ZM19.7757 12.4649V14.7599H17.4806V12.4649H19.7757ZM27.9 14.2792H21.2536C21.0952 14.2792 20.9668 14.4463 20.9668 14.6046V15.0172C20.9668 15.1758 21.0952 15.3042 21.2536 15.3042H27.9C28.0584 15.3042 28.1871 15.1758 28.1869 15.0172V14.6046C28.1871 14.4462 28.0584 14.2792 27.9 14.2792ZM20.4114 7.41922H16.8451C16.7646 7.41941 16.707 7.49619 16.707 7.58419V11.097C16.707 11.1852 16.7646 11.262 16.8451 11.262H20.4114C20.4919 11.262 20.5498 11.1852 20.5496 11.097V7.58419C20.5498 7.49619 20.4919 7.41941 20.4114 7.41922ZM19.776 8.19316V10.4883H17.4809V8.19316H19.776ZM27.9006 9.90633H21.2561C21.0977 9.90651 20.967 10.0399 20.967 10.1983V10.7456C20.967 10.904 21.0955 11.0325 21.2539 11.0325H27.9003C28.0587 11.0325 28.1874 10.904 28.1872 10.7456V10.265C28.1624 10.066 28.059 9.90651 27.9006 9.90633ZM20.4117 3.14746L16.8454 3.14765C16.7649 3.14765 16.7072 3.22442 16.7072 3.31262V6.82526C16.7072 6.91345 16.7649 6.99023 16.8454 6.99023H20.4117C20.4922 6.99023 20.55 6.91345 20.5499 6.82526V3.31262C20.55 3.22442 20.4922 3.14765 20.4117 3.14746ZM19.7763 3.9214V6.21655H17.4812V3.9214H19.7763ZM27.9003 5.84383H21.2812C21.1228 5.84383 20.9673 5.97045 20.9673 6.12886V6.47402C20.9673 6.63243 21.0958 6.76089 21.2542 6.7607L27.9006 6.76089C28.059 6.76089 28.1877 6.63243 28.1875 6.47383L28.1872 6.12886C28.1874 5.97045 28.0587 5.84383 27.9003 5.84383Z" fill="#06447C"/>
<path d="M14.1949 15.9678L14.2842 15.9829L28.8243 18.4281L28.7047 19.1159L14.2542 16.6859L3.47667 20.3246L3.24597 19.6645L14.1093 15.9968L14.1949 15.9678Z" fill="#06447C"/>
</svg>
