<svg width="51" height="51" viewBox="0 0 51 51" fill="none" xmlns="http://www.w3.org/2000/svg">
<path d="M25.4996 51C39.5832 51 51 39.5832 51 25.4996C51 11.4168 39.5832 0 25.4996 0C11.4168 0 0 11.4168 0 25.4996C0 39.5832 11.4168 51 25.4996 51Z" fill="white" fill-opacity="0.57"/>
<path d="M42.194 31.849C42.415 31.725 42.6601 31.65 42.9111 31.629C43.2811 31.635 43.6471 31.554 43.9821 31.392C44.0891 31.329 44.1841 31.246 44.2601 31.146C44.4051 30.969 44.5771 30.817 44.7701 30.698C45.0381 30.509 45.3371 30.371 45.6541 30.291C45.9131 30.259 46.0771 28.907 45.9631 28.616C45.6351 28.002 45.106 27.527 44.47 27.277C43.715 27.032 42.6931 26.571 42.7671 26.179C42.8401 25.788 43.4311 25.034 43.0051 24.794C42.6331 24.603 42.2311 24.479 41.8181 24.426C41.5961 24.414 41.3861 24.318 41.2281 24.157C41.0631 23.988 41.041 23.281 40.308 22.866C39.572 22.458 38.818 22.335 38.584 22.526C38.375 22.701 38.0741 23.207 37.7811 23.427C37.7421 23.457 37.7011 23.483 37.6561 23.503C37.3271 23.649 36.3331 23.188 36.3331 22.574C36.4231 21.995 36.6871 21.459 37.0891 21.043C37.2991 20.798 37.895 20.29 37.446 20.12C36.992 19.945 36.3791 19.29 36.9241 18.683C37.4691 18.075 38.2701 17 37.6791 17C36.9891 17.01 36.3091 17.167 35.6811 17.461C35.6311 17.492 35.5871 17.534 35.5521 17.582C35.4111 17.885 35.2021 18.148 34.9431 18.352C34.8231 18.432 34.6931 18.494 34.5561 18.537C34.0751 18.69 33.577 18.781 33.074 18.805C32.863 18.851 32.645 18.843 32.438 18.782C32.233 18.592 32.1061 18.329 32.0801 18.046C32.0681 17.927 32.0431 17.809 32.0071 17.695C31.9541 17.587 31.8721 17.497 31.7701 17.436C31.6681 17.376 31.551 17.348 31.433 17.356C31.258 17.369 31.0901 17.433 30.9481 17.539C30.9001 17.573 30.854 17.611 30.811 17.653C30.628 17.832 30.4881 18.054 30.4041 18.3C30.3201 18.546 30.294 18.809 30.329 19.067C30.427 19.356 30.4441 19.668 30.3801 19.967C30.3171 20.105 30.205 20.212 30.066 20.267C29.927 20.326 29.7741 20.338 29.6281 20.301C29.4851 20.255 29.3531 20.179 29.2401 20.077C29.1281 19.976 29.0371 19.851 28.9741 19.711C28.8511 19.433 28.766 19.138 28.725 18.835C28.61 18.868 28.499 18.916 28.394 18.976C28.237 19.062 28.098 19.179 27.985 19.321C27.873 19.463 27.7891 19.627 27.7391 19.803C27.6921 20.118 27.6791 20.437 27.7001 20.755C27.6931 21.132 27.614 21.503 27.467 21.848C27.432 21.947 27.3741 22.036 27.2961 22.105L27.295 22.106L27.2941 22.107C27.1821 22.179 27.0521 22.218 26.9191 22.218C26.3491 22.281 25.7841 22.383 25.2271 22.522C25.1541 22.538 25.0851 22.566 25.0211 22.606C25.0061 22.613 24.993 22.622 24.98 22.631C24.891 22.754 24.847 22.905 24.855 23.058C24.819 23.357 24.6981 23.639 24.5081 23.87C24.4611 23.924 24.4091 23.973 24.3521 24.017C24.2771 24.087 24.186 24.135 24.087 24.157C23.989 24.178 23.886 24.173 23.79 24.14C23.546 24.029 23.4671 23.719 23.4211 23.451L23.319 22.872C23.308 22.763 23.2711 22.659 23.2111 22.568C22.9501 22.241 22.5131 22.364 22.2061 22.487C22.0091 22.572 21.794 22.604 21.582 22.577C21.369 22.55 21.1681 22.467 20.9971 22.335C20.7601 22.087 20.5411 21.822 20.3441 21.54C19.9471 21.159 19.445 20.916 18.907 20.845C17.673 20.626 16.403 20.883 15.342 21.569C15.229 21.644 15.1161 21.724 14.9991 21.793C14.8831 21.864 14.757 21.916 14.626 21.949C14.495 21.984 14.3561 21.973 14.2321 21.918C14.1071 21.863 14.0041 21.767 13.9391 21.645C13.8421 21.382 14.0011 21.055 13.8651 20.81C13.8081 20.732 13.736 20.668 13.652 20.622C13.569 20.577 13.4771 20.551 13.3821 20.546C12.8661 20.472 12.341 20.582 11.894 20.858C11.627 21.02 11.3961 21.238 11.2161 21.497C11.1271 21.668 11.001 21.814 10.847 21.924H10.8461L10.8441 21.926C10.6781 21.998 10.493 22.017 10.316 21.978C9.89604 21.914 9.48708 21.791 9.06708 21.768C8.75108 21.745 8.43406 21.811 8.15106 21.957C8.06106 22.008 7.97809 22.071 7.90509 22.146C7.58709 22.479 7.49705 22.999 7.16205 23.315C7.00305 23.461 6.80403 23.548 6.63403 23.688C6.48903 23.806 6.37209 23.956 6.29309 24.127C6.21309 24.299 6.17207 24.486 6.17407 24.676C6.17907 25.43 6.84404 26.09 6.73004 26.838C6.61004 27.288 6.35107 27.686 5.99207 27.971C5.92407 28.048 5.84305 28.111 5.75305 28.158L5.75903 28.24C5.76703 28.312 5.77107 28.38 5.77307 28.444L5.77606 28.491V28.567L5.77106 28.591C5.77406 28.674 5.75706 28.756 5.71906 28.83C5.70806 28.848 5.70204 28.871 5.69104 28.889L5.67108 28.923L5.65704 28.951C5.58904 29.087 5.50906 29.246 5.42206 29.424C5.38306 29.507 5.34405 29.586 5.30505 29.677L5.28809 29.718L5.28009 29.736C5.24509 29.816 5.21307 29.896 5.18207 29.978L5.14606 30.075C5.12906 30.126 5.11504 30.176 5.10004 30.225C5.08704 30.267 5.07905 30.308 5.06805 30.35C5.05705 30.395 5.04509 30.442 5.03809 30.484C5.02509 30.516 5.01607 30.549 5.01007 30.583C4.99907 30.664 4.99709 30.747 5.00409 30.828V30.832C5.01109 30.871 5.02009 30.91 5.03009 30.949L5.03204 30.951C5.04904 31.01 5.06107 31.074 5.08307 31.132L5.09106 31.154C5.10606 31.192 5.12208 31.231 5.14008 31.269L5.16309 31.313C5.19009 31.364 5.21908 31.414 5.24908 31.462L5.27808 31.51C5.30308 31.542 5.32403 31.573 5.34503 31.6C5.38103 31.649 5.42105 31.696 5.46405 31.74C5.50305 31.781 5.53809 31.816 5.57709 31.851C5.58709 31.862 5.59908 31.872 5.61108 31.88C5.64408 31.909 5.67807 31.935 5.71307 31.96L5.76709 31.996C5.79609 32.015 5.82404 32.03 5.85004 32.043C5.87204 32.053 5.89509 32.062 5.91809 32.07C5.94309 32.079 5.97007 32.09 5.99207 32.096C6.00907 32.102 6.02607 32.102 6.04907 32.108C6.08807 32.114 6.13909 32.12 6.20209 32.131C6.22909 32.133 6.25504 32.137 6.28204 32.143C6.32704 32.149 6.37806 32.155 6.43506 32.16C6.52606 32.172 6.62204 32.19 6.73004 32.201C6.89504 32.225 7.07707 32.248 7.28107 32.277L7.29706 32.28C7.42506 32.297 7.55907 32.316 7.70007 32.336L7.82709 32.355L7.90509 32.365C8.10609 32.394 8.31706 32.427 8.53406 32.461L8.64905 32.479C8.86805 32.514 9.09504 32.552 9.32404 32.592C9.62004 32.642 9.92105 32.695 10.222 32.757C10.389 32.791 10.5561 32.827 10.7211 32.864L10.7621 32.873C10.8641 32.896 10.964 32.919 11.066 32.943C11.183 32.97 11.2981 32.998 11.4131 33.027C11.4861 33.045 11.5571 33.063 11.6291 33.082C11.7511 33.115 11.8711 33.148 11.9891 33.182C12.0651 33.203 12.1411 33.225 12.2151 33.247C12.2981 33.273 12.3761 33.299 12.4561 33.325C12.5441 33.354 12.6361 33.381 12.7211 33.411C13.4471 33.668 13.8791 33.837 14.2541 33.925L14.3391 33.943C14.3961 33.956 14.452 33.965 14.506 33.974C14.535 33.979 14.5641 33.981 14.5931 33.985C14.7241 34.001 14.8551 34.004 14.9861 33.995C15.0281 33.996 15.0701 33.994 15.1111 33.989C15.1561 33.983 15.1961 33.983 15.2421 33.978C15.3211 33.972 15.4011 33.96 15.4861 33.948C15.5541 33.937 15.628 33.925 15.707 33.913C15.809 33.898 15.9261 33.878 16.0491 33.858L16.1771 33.835L16.2811 33.814C16.3491 33.802 16.4111 33.791 16.4791 33.779C16.5161 33.768 16.5541 33.76 16.5931 33.756C16.6021 33.753 16.612 33.751 16.621 33.75C16.689 33.738 16.7631 33.726 16.8431 33.709C16.9621 33.685 17.093 33.662 17.235 33.633C17.524 33.58 17.8481 33.522 18.2111 33.458C18.3311 33.434 18.45 33.417 18.563 33.393C18.79 33.352 19.0061 33.312 19.2051 33.271C19.3071 33.253 19.404 33.236 19.506 33.212C19.597 33.195 19.6931 33.177 19.7841 33.154C19.9231 33.125 20.048 33.098 20.173 33.073L20.3791 33.027C20.4331 33.014 20.4871 33 20.5391 32.99C20.6301 32.967 20.7211 32.949 20.8061 32.926C20.8971 32.908 20.9821 32.885 21.0621 32.868C21.1201 32.852 21.1741 32.84 21.2291 32.827L21.373 32.791L21.4631 32.768C21.5541 32.744 21.6461 32.72 21.7261 32.698C21.9301 32.646 22.1181 32.593 22.2941 32.546C22.4131 32.511 22.5271 32.482 22.6351 32.453C22.6891 32.437 22.7381 32.425 22.7911 32.411L22.899 32.382L22.925 32.376C23.004 32.355 23.0861 32.333 23.1631 32.312C23.2161 32.3 23.2731 32.289 23.3271 32.276C23.4111 32.256 23.496 32.238 23.582 32.22C23.641 32.207 23.7021 32.195 23.7631 32.183C23.8971 32.157 24.038 32.133 24.186 32.111C24.216 32.106 24.2401 32.1 24.2701 32.096C24.4491 32.071 24.6291 32.056 24.8101 32.05L24.8741 32.047C24.9031 32.046 24.9341 32.044 24.9631 32.044C25.0531 32.044 25.1391 32.05 25.2241 32.055C25.2571 32.055 25.288 32.059 25.319 32.062L25.381 32.067H25.3881C25.4681 32.073 25.548 32.085 25.621 32.096L25.826 32.131C25.9 32.143 25.9681 32.161 26.0421 32.178C26.1101 32.19 26.1831 32.213 26.2521 32.231L26.3251 32.248C26.4161 32.278 26.5131 32.301 26.6041 32.33C26.6681 32.349 26.7301 32.366 26.7921 32.382C26.8711 32.404 26.9501 32.426 27.0301 32.446C27.0771 32.457 27.123 32.467 27.17 32.477C27.24 32.493 27.3111 32.508 27.3831 32.521C27.4281 32.529 27.4711 32.536 27.5181 32.54C27.5431 32.546 27.5711 32.548 27.5981 32.552C27.6751 32.561 27.7531 32.57 27.8331 32.575L27.91 32.581C28.057 32.587 28.2051 32.593 28.3521 32.605C28.6021 32.616 28.858 32.634 29.108 32.646C29.176 32.646 29.2441 32.651 29.3121 32.651C29.4271 32.656 29.54 32.658 29.652 32.66C29.69 32.66 29.7281 32.662 29.7651 32.662C29.8651 32.661 29.9621 32.655 30.0591 32.649C30.1201 32.647 30.1801 32.644 30.2401 32.639L30.2571 32.637C30.3701 32.627 30.4821 32.613 30.5911 32.595L30.6411 32.587C30.7751 32.564 30.9081 32.53 31.0381 32.488C31.1681 32.449 31.2931 32.398 31.4131 32.336L31.4401 32.321C31.5461 32.267 31.6461 32.213 31.7391 32.16L31.837 32.104L31.8791 32.079L31.9181 32.055L31.92 32.056C32.051 31.98 32.1771 31.907 32.3021 31.839C32.5801 31.687 32.8751 31.571 33.1811 31.492C33.2291 31.479 33.28 31.466 33.332 31.454C33.635 31.387 33.9411 31.341 34.2491 31.315C34.6671 31.279 35.0851 31.272 35.5031 31.292C35.7231 31.301 35.943 31.317 36.162 31.339C36.58 31.381 36.9961 31.445 37.4081 31.531C37.7271 31.597 38.0431 31.683 38.3531 31.787C38.5351 31.846 38.714 31.917 38.889 31.999C39.002 32.054 39.151 32.133 39.324 32.23C39.41 32.278 39.502 32.331 39.6 32.388C39.794 32.502 40.0071 32.631 40.2271 32.77C40.5571 32.979 40.903 33.209 41.23 33.445L41.2341 33.446C41.2151 33.08 41.3121 32.717 41.5121 32.413C41.7021 32.182 41.933 31.99 42.194 31.849Z" fill="#E4E701" stroke="#1A1A18" stroke-width="0.5" stroke-miterlimit="10"/>
</svg>
