<svg width="51" height="51" viewBox="0 0 51 51" fill="none" xmlns="http://www.w3.org/2000/svg">
<path d="M25.4996 51C39.5832 51 51 39.5832 51 25.4996C51 11.4168 39.5832 0 25.4996 0C11.4168 0 0 11.4168 0 25.4996C0 39.5832 11.4168 51 25.4996 51Z" fill="white" fill-opacity="0.57"/>
<path d="M16.947 37.868C18.53 37.998 18.591 37.371 20.356 37.371C22.121 37.371 23.26 38.993 24.64 38.993C25.17 39.034 25.69 38.895 26.13 38.6C26.57 38.305 26.88 37.871 27.03 37.371C27.48 36.377 27.73 35.262 28.37 35.133C29.23 35.044 30.11 35.199 30.89 35.581C31.84 36.009 32.28 36.506 33.28 36.406C33.6 36.375 33.92 36.308 34.24 36.207C34.15 36.049 34.08 35.886 34.01 35.72L33.99 35.656C33.98 35.622 33.96 35.587 33.95 35.551C33.93 35.473 33.9 35.393 33.88 35.312L33.84 35.133L33.82 35.074C33.73 34.677 33.77 34.263 33.92 33.887C33.98 33.769 34.06 33.662 34.16 33.571C34.25 33.484 34.36 33.412 34.48 33.356C34.72 33.245 34.97 33.146 35.23 33.059C35.34 33.019 35.45 32.97 35.55 32.914C35.69 32.835 35.81 32.723 35.9 32.586C36.01 32.341 36.03 32.069 35.96 31.81C35.9 31.551 35.75 31.321 35.54 31.154C35.44 31.066 35.33 30.985 35.22 30.913C34.92 30.719 34.59 30.566 34.28 30.379C34.25 30.355 34.2 30.334 34.17 30.308C34.04 30.224 33.92 30.13 33.8 30.03C33.74 29.97 33.68 29.92 33.63 29.861C33.59 29.829 33.55 29.792 33.52 29.751C33.48 29.7 33.44 29.656 33.4 29.607L33.38 29.582C33.36 29.552 33.34 29.532 33.32 29.502C33.29 29.475 33.27 29.445 33.25 29.413L33.24 29.403L33.19 29.323C33.17 29.308 33.16 29.291 33.15 29.273L33.14 29.254L33.12 29.214C33.1 29.193 33.08 29.169 33.07 29.144L33.04 29.107L33.02 29.055L33.01 29.025L32.99 28.985L32.97 28.976V28.975C32.96 28.951 32.95 28.928 32.93 28.906L32.92 28.861L32.9 28.836L32.88 28.796C32.86 28.757 32.84 28.713 32.82 28.667C32.81 28.63 32.79 28.59 32.78 28.553C32.74 28.46 32.7 28.368 32.66 28.269C32.65 28.216 32.63 28.163 32.62 28.11L32.59 28.03C32.58 27.984 32.57 27.943 32.55 27.9L32.54 27.861L32.51 27.732C32.49 27.632 32.48 27.543 32.46 27.443V27.442C32.33 26.698 32.38 25.932 32.62 25.215C32.38 25.932 32.33 26.698 32.46 27.442C32.45 27.393 32.45 27.344 32.45 27.294C32.44 27.162 32.44 27.028 32.46 26.896C32.51 26.339 32.69 25.593 32.8 24.867C32.87 24.638 32.95 24.419 33.03 24.19C33.1 23.984 33.21 23.747 33.33 23.492L33.35 23.437C33.54 23.037 33.77 22.588 34.01 22.109C34.28 21.55 34.56 20.953 34.79 20.351C34.96 19.911 35.1 19.459 35.2 18.998C35.41 18.216 35.31 17.383 34.92 16.67C34.44 15.936 33.88 15.248 33.27 14.616C32.9 14.222 32.51 13.84 32.13 13.493C31.87 13.257 31.62 13.037 31.38 12.837C31.15 12.638 30.92 12.459 30.72 12.307C30.45 12.08 30.14 11.895 29.82 11.756C29.38 11.644 28.75 11.042 27.94 11H27.93C27.62 11 27.31 11.068 27.03 11.198C26.74 11.329 26.49 11.519 26.29 11.756C25.9 12.146 25.54 12.564 25.21 13.008C24.75 13.635 24.35 14.241 23.94 14.712C23.61 15.165 23.12 15.485 22.565 15.615C21.995 15.703 21.42 15.757 20.843 15.779C20.17 15.795 19.499 15.85 18.833 15.944C18.686 15.969 18.54 16.005 18.399 16.053C18.281 16.093 18.161 16.126 18.039 16.151C17.887 16.184 17.726 16.213 17.563 16.241C16.762 16.379 15.93 16.519 16.069 17.287C16.088 17.38 16.114 17.473 16.146 17.563C16.444 18.472 17.292 19.104 17.522 19.773C17.774 20.529 16.13 26.18 15.756 29.045C15.679 29.587 15.572 30.125 15.435 30.656C15.302 31.179 15.151 31.686 15 32.178C15 32.178 15.373 37.749 16.947 37.868Z" fill="#CF786C" stroke="#1A1A18" stroke-width="0.5" stroke-miterlimit="10"/>
</svg>
