<svg width="31" height="29" viewBox="0 0 31 29" fill="none" xmlns="http://www.w3.org/2000/svg">
<rect x="0.5" y="0.5" width="30" height="28" rx="4.5" fill="#DDEEFD" stroke="#085DAD"/>
<path d="M13.2798 22.9999H21.1998C21.9938 22.9999 22.6398 22.3539 22.6398 21.5599V15.7999C22.6398 15.0059 21.9938 14.3599 21.1998 14.3599H13.2798C12.4858 14.3599 11.8398 15.0059 11.8398 15.7999V21.5599C11.8398 22.3539 12.4858 22.9999 13.2798 22.9999ZM12.5598 15.7999C12.5598 15.4028 12.8828 15.0799 13.2798 15.0799H21.1998C21.5969 15.0799 21.9198 15.4028 21.9198 15.7999V21.5599C21.9198 21.957 21.5969 22.2799 21.1998 22.2799H13.2798C12.8828 22.2799 12.5598 21.957 12.5598 21.5599V15.7999Z" fill="black"/>
<path d="M25.16 5H17.24C16.446 5 15.8 5.64599 15.8 6.44V12.2C15.8 12.994 16.446 13.64 17.24 13.64H25.16C25.9541 13.64 26.6 12.994 26.6 12.2V6.44C26.6 5.64599 25.9541 5 25.16 5ZM25.88 12.2C25.88 12.5971 25.5571 12.92 25.16 12.92H17.24C16.843 12.92 16.52 12.5971 16.52 12.2V6.44C16.52 6.04291 16.843 5.72 17.24 5.72H25.16C25.5571 5.72 25.88 6.04291 25.88 6.44V12.2Z" fill="black"/>
<path d="M13.64 21.2002H20.84C21.3127 21.1922 21.3135 20.4882 20.84 20.4802H20.48V19.4002C20.48 19.2013 20.3188 19.0402 20.12 19.0402C19.9212 19.0402 19.76 19.2013 19.76 19.4002V20.4802H19.04V17.6002C19.04 17.4013 18.8788 17.2402 18.68 17.2402C18.4812 17.2402 18.32 17.4013 18.32 17.6002V20.4802H17.6V16.5202C17.6 16.3213 17.4388 16.1602 17.24 16.1602C17.0412 16.1602 16.88 16.3213 16.88 16.5202V20.4802H16.16V18.6802C16.16 18.4813 15.9988 18.3202 15.8 18.3202C15.6012 18.3202 15.44 18.4813 15.44 18.6802V20.4802H14.72V17.6002C14.72 17.4013 14.5588 17.2402 14.36 17.2402C14.1612 17.2402 14 17.4013 14 17.6002V20.4802H13.64C13.1668 20.4882 13.1669 21.1922 13.64 21.2002Z" fill="black"/>
<path d="M7.16 22.2802H11.1523C11.6259 22.2689 11.6262 21.5704 11.1523 21.5602H7.16C6.36599 21.5602 5.72 20.9142 5.72 20.1202V7.88021C5.72 7.08621 6.36599 6.44021 7.16 6.44021H15.1123C15.5798 6.43764 15.589 5.72608 15.1123 5.72021H7.16C5.96891 5.72021 5 6.68912 5 7.88021V20.1202C5 21.3113 5.96891 22.2802 7.16 22.2802Z" fill="black"/>
<path d="M7.87998 7.52002C6.45587 7.55735 6.45616 9.64289 7.88003 9.68002C9.3041 9.64269 9.30381 7.55713 7.87998 7.52002ZM7.87998 8.96002C7.40691 8.95152 7.40698 8.24844 7.88001 8.24002C8.35306 8.2485 8.35299 8.95158 7.87998 8.96002Z" fill="black"/>
<path d="M14.0001 8.96023C14.4721 8.95257 14.4742 8.24834 14.0001 8.24023H10.0401C9.56812 8.2479 9.56596 8.95213 10.0401 8.96023H14.0001Z" fill="black"/>
<path d="M7.87998 10.3999C6.45587 10.4372 6.45616 12.5228 7.88003 12.5599C9.3041 12.5226 9.30381 10.437 7.87998 10.3999ZM7.87998 11.8399C7.40691 11.8314 7.40698 11.1283 7.88001 11.1199C8.35306 11.1284 8.35299 11.8315 7.87998 11.8399Z" fill="black"/>
<path d="M10.0401 11.8401H14.0001C14.4721 11.8324 14.4742 11.1282 14.0001 11.1201H10.0401C9.56812 11.1278 9.56596 11.832 10.0401 11.8401Z" fill="black"/>
<path d="M7.87998 13.2798C6.45587 13.3171 6.45616 15.4027 7.88003 15.4398C9.3041 15.4025 9.30381 13.3169 7.87998 13.2798ZM7.87998 14.7198C7.40691 14.7113 7.40698 14.0082 7.88001 13.9998C8.35306 14.0083 8.35299 14.7113 7.87998 14.7198Z" fill="black"/>
<path d="M12.0343 14.36C12.0343 14.1612 11.8732 14 11.6743 14H10.0399C9.84112 14 9.67993 14.1612 9.67993 14.36C9.67993 14.5588 9.84112 14.72 10.0399 14.72H11.6743C11.8732 14.72 12.0343 14.5588 12.0343 14.36Z" fill="black"/>
<path d="M7.87998 16.1602C6.45587 16.1975 6.45616 18.283 7.88003 18.3202C9.3041 18.2828 9.30381 16.1973 7.87998 16.1602ZM7.87998 17.6002C7.40691 17.5917 7.40698 16.8886 7.88001 16.8802C8.35306 16.8886 8.35299 17.5917 7.87998 17.6002Z" fill="black"/>
<path d="M10.0401 16.8799C9.56727 16.8878 9.56677 17.5919 10.0402 17.5999H11.1201C11.319 17.5999 11.4801 17.4387 11.4801 17.2399C11.4801 17.0411 11.319 16.8799 11.1201 16.8799H10.0401Z" fill="black"/>
<path d="M24.44 6.43994H18.68C18.2082 6.44754 18.2057 7.15181 18.68 7.15994H24.44C24.9113 7.15245 24.9146 6.44809 24.44 6.43994Z" fill="black"/>
<path d="M17.6018 7.15994C18.075 7.15188 18.075 6.44792 17.6018 6.43994C17.1243 6.44743 17.1281 7.15216 17.6018 7.15994Z" fill="black"/>
<path d="M18.6817 8.59988H22.2799C22.7523 8.59208 22.7538 7.88795 22.2799 7.87988H18.6817C18.2096 7.88757 18.2077 8.59178 18.6817 8.59988Z" fill="black"/>
<path d="M17.6035 7.87988C17.126 7.88737 17.1298 8.5921 17.6036 8.59988C18.0768 8.59182 18.0767 7.88786 17.6035 7.87988Z" fill="black"/>
<path d="M23.3602 9.32031H18.6819C18.2102 9.32792 18.2076 10.0322 18.6819 10.0403H23.3602C23.8319 10.0327 23.8345 9.32844 23.3602 9.32031Z" fill="black"/>
<path d="M17.6035 9.32031C17.126 9.3278 17.1298 10.0325 17.6036 10.0403C18.0768 10.0322 18.0767 9.32829 17.6035 9.32031Z" fill="black"/>
<path d="M21.56 10.7598H18.6817C18.2094 10.7675 18.2079 11.4717 18.6817 11.4798H21.56C22.0323 11.472 22.0338 10.7678 21.56 10.7598Z" fill="black"/>
<path d="M17.6035 10.7598C17.126 10.7673 17.1298 11.472 17.6036 11.4798C18.0768 11.4717 18.0767 10.7677 17.6035 10.7598Z" fill="black"/>
</svg>
