<svg width="51" height="51" viewBox="0 0 51 51" fill="none" xmlns="http://www.w3.org/2000/svg">
<path d="M25.4996 51C39.5832 51 51 39.5832 51 25.4996C51 11.4168 39.5832 0 25.4996 0C11.4168 0 0 11.4168 0 25.4996C0 39.5832 11.4168 51 25.4996 51Z" fill="white" fill-opacity="0.57"/>
<path d="M33.4399 25.055H33.46C33.5 25.062 33.5399 25.062 33.5699 25.07C33.6399 25.082 33.7 25.099 33.77 25.121C33.8 25.13 33.83 25.145 33.86 25.166L33.89 25.18L33.91 25.199L33.9399 25.212V25.217L33.95 25.225L33.97 25.239L34.02 25.291C34.04 25.314 34.0599 25.339 34.0699 25.367C34.1099 24.957 33.97 24.51 34.15 24.144C34.32 23.812 34.73 23.606 34.74 23.23C34.75 22.921 34.46 22.685 34.36 22.397C34.09 21.646 35.06 20.961 35 20.172C34.91 19.829 34.8 19.496 34.65 19.178C34.39 18.294 34.9999 17.115 34.3199 16.518C34.0099 16.253 33.51 16.209 33.33 15.841C33.29 15.754 33.27 15.66 33.27 15.564C33.27 15.469 33.29 15.374 33.33 15.288C33.13 15.161 32.98 14.962 32.9 14.728C32.45 13.476 33.23 11.936 32.55 10.801C32.42 10.606 32.27 10.424 32.11 10.256C32.03 10.168 31.95 10.08 31.87 10C31.85 10.043 31.8299 10.086 31.8199 10.128C31.7799 10.252 31.7301 10.376 31.6801 10.5C31.6601 10.571 31.63 10.638 31.6 10.708C31.54 10.859 31.47 11.004 31.4 11.141C31.39 11.165 31.38 11.195 31.37 11.219C31.29 11.367 31.2 11.506 31.09 11.635C31.03 11.72 30.96 11.797 30.88 11.865C30.82 11.91 30.76 11.948 30.7 11.977V11.978V11.979L30.67 11.994C30.55 12.05 30.44 12.107 30.33 12.169C30.25 12.215 30.18 12.264 30.11 12.315C30 12.389 29.9001 12.471 29.8101 12.56C29.7401 12.623 29.67 12.692 29.61 12.764L29.58 12.798C29.45 12.958 29.32 13.129 29.22 13.31L29.1899 13.364C29.0799 13.552 28.99 13.746 28.91 13.945C28.82 14.145 28.7099 14.332 28.5699 14.498C28.5399 14.536 28.5 14.567 28.47 14.602C28.43 14.643 28.4 14.685 28.36 14.723C28.22 14.858 28.07 14.98 27.92 15.1C27.77 15.223 27.62 15.345 27.48 15.477C27.39 15.553 27.31 15.634 27.24 15.721C27.06 15.919 26.94 16.14 26.79 16.347L26.73 16.424L26.6801 16.482L26.63 16.546C26.61 16.571 26.5801 16.593 26.5601 16.617C26.5301 16.644 26.5 16.672 26.47 16.698C26.44 16.725 26.4 16.75 26.36 16.772C26.25 16.845 26.12 16.898 26 16.929L25.96 16.941C25.88 16.954 25.8 16.962 25.72 16.964C25.69 16.965 25.66 16.973 25.62 16.973L25.58 16.971C25.52 16.97 25.46 16.965 25.39 16.959C25.28 16.948 25.1701 16.932 25.0601 16.909C25.0201 16.902 25 16.903 24.96 16.894C23.91 16.679 22.84 16.679 21.79 16.893C21.79 16.896 21.78 16.931 21.74 17.002C21.73 17.032 21.7099 17.076 21.6899 17.128C21.6399 17.224 21.59 17.349 21.51 17.496C21.49 17.549 21.45 17.617 21.42 17.674C21.36 17.792 21.3 17.919 21.22 18.051L21.1899 18.121C21.0899 18.295 20.99 18.473 20.88 18.652C20.85 18.689 20.8401 18.726 20.8101 18.763C20.7901 18.8 20.76 18.833 20.74 18.869C20.71 18.921 20.67 18.974 20.64 19.025C20.59 19.095 20.54 19.162 20.49 19.228L20.46 19.272C20.3 19.498 20.11 19.705 19.9 19.887C19.87 19.911 19.8401 19.929 19.8101 19.95C19.7801 19.975 19.74 20.003 19.71 20.023V20.024V20.025C19.07 20.407 18.41 20.456 17.83 20.841C17.41 21.138 17.08 21.559 16.9 22.049L16.86 22.114C16.8 22.266 16.72 22.419 16.63 22.572L16.59 22.653C16.53 22.744 16.48 22.835 16.42 22.927C16.37 23.015 16.32 23.102 16.27 23.191C16.25 23.221 16.23 23.25 16.21 23.28C16.14 23.39 16.07 23.508 15.99 23.633C15.93 23.744 15.86 23.854 15.79 23.972C15.74 24.069 15.68 24.172 15.62 24.275L15.58 24.351C15.53 24.464 15.4701 24.573 15.4301 24.687C15.3601 24.831 15.3 24.976 15.25 25.127V25.143L15.24 25.173C15.22 25.232 15.2001 25.298 15.1801 25.35C15.1201 25.548 15.08 25.749 15.05 25.954L15.04 25.991C15.03 26.088 15.02 26.186 15.01 26.286C15 26.374 15 26.464 15 26.554C15 26.621 15 26.687 15 26.756C15.01 26.908 15.02 27.059 15.04 27.21V27.255C15.1 27.656 15.2 28.05 15.34 28.429C15.39 28.547 15.44 28.658 15.48 28.776L15.5 28.82C15.54 28.938 15.59 29.056 15.64 29.166C15.7 29.299 15.7599 29.432 15.8199 29.564L15.83 29.571V29.579C15.86 29.638 15.89 29.689 15.92 29.748C15.92 29.767 15.9299 29.784 15.9399 29.8C16.0299 29.982 16.12 30.159 16.22 30.33C16.35 30.574 16.48 30.817 16.62 31.045C16.63 31.065 16.64 31.088 16.65 31.111C16.85 31.435 17.05 31.752 17.23 32.047C17.42 32.349 17.61 32.636 17.78 32.916C17.86 33.034 17.93 33.152 17.99 33.27C18.01 33.288 18.02 33.308 18.03 33.329C18.12 33.461 18.19 33.601 18.26 33.727C18.33 33.859 18.4 33.977 18.45 34.102C18.57 34.335 18.67 34.577 18.75 34.824C18.82 35.041 18.86 35.267 18.87 35.495C18.87 35.547 18.88 35.598 18.88 35.657C18.88 35.711 18.88 35.765 18.88 35.819C18.89 35.974 18.9 36.136 18.91 36.305C18.91 36.386 18.91 36.467 18.92 36.556C18.93 36.615 18.9301 36.681 18.9301 36.747C18.9401 36.88 18.95 37.013 18.96 37.152C18.97 37.285 18.98 37.425 18.99 37.558C19 37.661 19.01 37.764 19.02 37.867C19.04 38.147 19.08 38.42 19.11 38.678C19.14 38.913 19.17 39.134 19.21 39.333C19.24 39.466 19.26 39.591 19.29 39.702C19.31 39.797 19.34 39.879 19.36 39.96C19.37 40.008 19.39 40.055 19.41 40.099C19.43 40.139 19.45 40.176 19.47 40.21C19.5 40.263 19.54 40.307 19.59 40.335C19.6 40.347 19.63 40.353 19.65 40.354C19.66 40.355 19.68 40.352 19.7 40.346L19.71 40.343C20 40.221 20.24 40.006 20.4 39.73C20.56 39.454 20.63 39.132 20.6 38.812C20.58 38.014 20.68 37.218 20.89 36.449V36.439C20.94 36.346 20.99 36.295 21.05 36.313H21.0601C21.0801 36.32 21.1 36.33 21.11 36.342L21.13 36.367L21.14 36.378C21.16 36.403 21.18 36.43 21.2 36.46C21.22 36.484 21.23 36.508 21.24 36.534C21.26 36.558 21.27 36.586 21.28 36.615C21.29 36.644 21.3099 36.681 21.3199 36.718C21.3699 36.848 21.41 36.981 21.46 37.113C21.48 37.173 21.5 37.233 21.52 37.293C21.53 37.347 21.5499 37.401 21.5699 37.455L21.58 37.477C21.59 37.488 21.59 37.501 21.59 37.514C21.61 37.576 21.62 37.638 21.64 37.701L21.6801 37.842C21.7001 37.909 21.73 37.979 21.74 38.044C21.77 38.14 21.7999 38.228 21.8199 38.324C21.8699 38.486 21.92 38.648 21.97 38.81C22.01 38.972 22.06 39.134 22.11 39.289C22.21 39.588 22.33 39.878 22.47 40.158C22.53 40.286 22.6099 40.41 22.6899 40.527C22.7399 40.588 22.79 40.645 22.84 40.696C22.89 40.748 22.95 40.799 23.01 40.851C23.07 40.903 23.14 40.954 23.21 41.006C23.29 41.057 23.37 41.101 23.45 41.153L23.46 41.16C23.5 41.177 23.5299 41.197 23.5699 41.219C23.5999 41.243 23.63 41.263 23.67 41.278C23.76 41.315 23.84 41.359 23.92 41.396C24.1 41.477 24.2701 41.544 24.4301 41.61C24.5201 41.639 24.6001 41.669 24.6801 41.698C24.8301 41.757 24.98 41.801 25.12 41.845C25.25 41.882 25.37 41.919 25.46 41.941C25.53 41.964 25.59 41.978 25.62 41.986C25.64 41.989 25.6601 41.994 25.6801 42C25.6801 41.992 25.88 41.685 26.15 41.257C26.24 41.114 26.3399 40.957 26.4399 40.795L26.5699 40.579C26.7099 40.349 26.86 40.114 27 39.889C27.06 39.79 27.11 39.695 27.17 39.602L27.29 39.401L27.3101 39.355C27.3601 39.285 27.3901 39.222 27.4301 39.159C27.5501 38.952 27.6401 38.786 27.6801 38.696C27.6901 38.675 27.7 38.652 27.71 38.628C27.71 38.444 26.9299 36.845 26.5699 35.865C26.5599 35.829 26.56 35.791 26.55 35.754C26.54 35.726 26.53 35.7 26.53 35.672C26.51 35.628 26.5 35.584 26.5 35.539V35.527L26.49 35.49C26.49 35.472 26.49 35.454 26.49 35.436C26.49 35.399 26.48 35.361 26.48 35.326V35.303C26.48 35.279 26.49 35.254 26.49 35.23C26.49 35.148 26.5 35.067 26.52 34.986C26.53 34.927 26.54 34.868 26.55 34.81L26.58 34.714V34.697C26.64 34.528 26.71 34.364 26.79 34.207L26.8 34.198C26.81 34.17 26.83 34.142 26.84 34.116C26.88 34.056 26.9099 33.995 26.9399 33.935L26.97 33.89L26.98 33.881C27.01 33.832 27.05 33.781 27.08 33.729C27.13 33.663 27.17 33.596 27.22 33.53L27.23 33.513L27.29 33.434C27.46 33.216 27.64 33.001 27.83 32.793L27.84 32.779C27.94 32.672 28.05 32.573 28.17 32.482C28.23 32.437 28.28 32.401 28.34 32.364C28.38 32.337 28.42 32.316 28.46 32.295C28.6 32.218 28.75 32.148 28.89 32.087L28.9 32.084L28.91 32.08C29.08 32.015 29.24 31.941 29.39 31.858L29.4301 31.835C29.5001 31.792 29.57 31.74 29.63 31.682L29.66 31.656C29.8 31.497 29.9 31.294 29.92 31.076C29.96 30.837 29.98 30.593 29.96 30.35V30.282L29.95 30.194C29.94 30.156 29.9401 30.116 29.9301 30.08C29.9301 30.047 29.92 30.015 29.92 29.983C29.82 29.492 29.6199 29.025 29.4399 28.247C29.4199 28.176 29.41 28.107 29.39 28.04L29.37 27.99C29.35 27.899 29.32 27.812 29.29 27.727C29.26 27.612 29.2199 27.502 29.1899 27.398C29.1599 27.319 29.14 27.245 29.12 27.172C29.09 27.082 29.07 26.99 29.05 26.897C29.04 26.849 29.04 26.8 29.04 26.751C29.04 26.706 29.04 26.66 29.04 26.615C29.05 26.542 29.08 26.472 29.11 26.407V26.405L29.12 26.4C29.15 26.346 29.18 26.297 29.22 26.254C29.28 26.203 29.33 26.158 29.39 26.119L29.41 26.109L29.4301 26.097C29.4601 26.08 29.48 26.062 29.52 26.045C29.55 26.027 29.59 26.011 29.62 25.994L29.6801 25.967C29.7601 25.935 29.8401 25.903 29.9301 25.871L29.98 25.851C30.25 25.762 30.54 25.667 30.84 25.572C31.06 25.501 31.29 25.431 31.52 25.366V25.365V25.364L31.54 25.361C31.65 25.328 31.76 25.299 31.88 25.27C31.93 25.255 31.99 25.238 32.05 25.225L32.0601 25.222C32.1601 25.2 32.25 25.183 32.34 25.164C32.4 25.149 32.47 25.132 32.54 25.121C32.6 25.109 32.66 25.105 32.72 25.096C32.78 25.087 32.85 25.075 32.91 25.07C32.94 25.061 32.98 25.056 33.02 25.055C33.09 25.049 33.16 25.046 33.24 25.048C33.29 25.048 33.34 25.05 33.39 25.054C33.4 25.054 33.4201 25.053 33.4301 25.053L33.4399 25.055Z" fill="#F69155" stroke="#1A1A18" stroke-width="0.5" stroke-miterlimit="10"/>
</svg>
