<svg width="451" height="30" viewBox="0 0 451 30" fill="none" xmlns="http://www.w3.org/2000/svg">
<path d="M37.0124 25.2893H30.3383C26.8029 25.2893 25.035 23.8371 25.035 20.9327C25.035 19.3507 25.9247 17.5679 27.7048 15.5844C25.7567 14.1913 24.7826 12.2669 24.7826 9.8111C24.7826 7.70956 25.5642 5.95045 27.1274 4.53364C28.6911 3.09328 30.7354 2.3731 33.2609 2.3731C35.0883 2.3731 36.7119 2.78632 38.1308 3.61276C39.1652 2.69184 39.875 1.48759 40.2595 0L41.6666 0.354184C41.2343 2.0071 40.4398 3.37661 39.2858 4.46283C40.9212 5.92682 41.7391 7.70956 41.7391 9.8111C41.7391 11.9126 40.9571 13.6836 39.3939 15.124C37.8303 16.5408 35.7863 17.2492 33.2609 17.2492C31.5289 17.2492 30.0256 16.9067 28.751 16.222C27.9091 17.379 27.4883 18.2527 27.4883 18.843C27.4883 20.0236 28.1859 20.6139 29.5807 20.6139H36.2552C39.791 20.6139 41.5581 21.889 41.5581 24.4392C41.5581 26.2574 40.6807 28.111 38.9246 30L38.059 29.1854C38.7562 28.359 39.1056 27.6506 39.1056 27.0603C39.1056 26.4935 38.9132 26.0567 38.5275 25.7497C38.1674 25.4427 37.6623 25.2893 37.0124 25.2893ZM31.0959 5.52542C30.6151 6.63523 30.3746 8.06377 30.3746 9.8111C30.3746 11.5585 30.6151 12.987 31.0959 14.0968C31.601 15.2066 32.3349 15.7616 33.2968 15.7616C34.259 15.7616 34.9806 15.2066 35.4617 14.0968C35.9665 12.987 36.2189 11.5585 36.2189 9.8111C36.2189 8.06377 35.9665 6.63523 35.4617 5.52542C34.9806 4.41557 34.259 3.86068 33.2968 3.86068C32.3349 3.86068 31.601 4.41557 31.0959 5.52542Z" fill="url(#paint0_linear_351_2425)"/>
<path d="M42.3911 4.65441C43.0458 3.94443 43.8709 3.3765 44.8641 2.95052C45.8802 2.52454 46.8745 2.31155 47.8458 2.31155C48.8394 2.31155 49.6526 2.52454 50.2847 2.95052C50.9169 3.35282 51.2335 3.86162 51.2335 4.47691V15.2329C51.2335 15.9901 51.4597 16.5699 51.9111 16.9722C52.3626 17.3509 52.9273 17.5402 53.6049 17.5402C55.0506 17.5402 56.2816 16.8894 57.2977 15.5878C58.3364 14.2863 58.8563 12.6178 58.8563 10.5826C58.8563 9.44663 58.6416 8.25154 58.212 6.99728C57.8061 7.28128 57.2862 7.42326 56.6541 7.42326C56.0213 7.42326 55.4461 7.16294 54.9262 6.6423C54.4289 6.09799 54.1808 5.44724 54.1808 4.6899C54.1808 3.93263 54.4289 3.29366 54.9262 2.77302C55.4461 2.2287 56.0894 1.95654 56.8574 1.95654C57.6254 1.95654 58.2805 2.26422 58.8223 2.87951C59.3867 3.47116 59.7936 4.26392 60.0417 5.2579C60.4483 6.98551 60.652 8.90232 60.652 11.0085C60.652 13.0911 60.4143 15.1855 59.9399 17.2917C59.4885 19.398 58.8782 21.2083 58.1102 22.7229C57.3651 24.2375 56.5182 25.5509 55.5698 26.6632C53.6279 28.8877 51.6515 30 49.6415 30C49.0986 30 48.6472 29.8699 48.2861 29.6096C47.9476 29.3729 47.5522 28.9233 47.1007 28.2606L45.3384 25.7048L46.2194 24.7463C47.3033 24.9356 48.2517 25.0303 49.0653 25.0303C51.5945 25.0303 53.6612 24.1902 55.2647 22.5099C56.8682 20.8297 58.1331 18.0964 59.0589 14.3099C57.6588 18.3804 55.084 20.4156 51.3353 20.4156C49.8896 20.4156 48.6587 19.9068 47.6425 18.8891C46.6483 17.8479 46.152 16.3806 46.152 14.4874V4.01544C44.9096 4.34677 43.9612 4.92661 43.3061 5.75489L42.3911 4.65441Z" fill="url(#paint1_linear_351_2425)"/>
<path d="M82.0428 3.12522V16.528C82.0428 17.1482 82.1964 17.642 82.5024 18.0095C82.8084 18.354 83.2788 18.5264 83.9141 18.5264C84.5496 18.5264 85.2797 18.1933 86.1029 17.5272L86.7389 18.354C84.856 20.0309 82.9728 20.8693 81.09 20.8693C78.8544 20.8693 77.4774 19.8471 76.9596 17.8028C75.7351 19.8471 73.9345 20.8693 71.558 20.8693C68.8509 20.8693 66.7917 20.0194 65.3792 18.3196C63.9668 16.5969 63.2606 14.4148 63.2606 11.7733C63.2606 9.10883 64.0143 6.91526 65.5208 5.19251C67.0502 3.46976 69.1808 2.6084 71.9107 2.6084C74.0058 2.6084 75.6174 3.42382 76.7473 5.0547V3.12522H82.0428ZM69.7219 6.5018C69.0631 7.78811 68.7332 9.53371 68.7332 11.7388C68.7332 13.9439 69.0631 15.6896 69.7219 16.9759C70.3806 18.2622 71.3809 18.9053 72.723 18.9053C74.088 18.9053 75.1231 18.2622 75.8293 16.9759C76.5594 15.6666 76.9237 13.9209 76.9237 11.7388C76.9237 9.55669 76.5594 7.82252 75.8293 6.53621C75.1231 5.22695 74.088 4.57232 72.723 4.57232C71.3809 4.57232 70.3806 5.21549 69.7219 6.5018Z" fill="url(#paint2_linear_351_2425)"/>
<path d="M87.3839 3.12522C89.2764 3.12522 90.9847 3.69947 92.5079 4.84794C93.3851 4.02102 94.2854 3.44681 95.2081 3.12522C96.1318 2.78068 97.3091 2.6084 98.74 2.6084C100.194 2.6084 101.371 3.06779 102.271 3.98658C103.195 4.88241 103.656 6.11129 103.656 7.67325V16.528C103.656 17.1482 103.806 17.642 104.106 18.0095C104.406 18.354 104.868 18.5264 105.491 18.5264C106.114 18.5264 106.83 18.1933 107.638 17.5272L108.26 18.354C106.415 20.0309 104.568 20.8693 102.722 20.8693C99.8822 20.8693 98.463 19.181 98.463 15.8044V6.94967C98.463 6.23761 98.2435 5.68634 97.8046 5.29584C97.3667 4.90536 96.7548 4.71013 95.9699 4.71013C95.2081 4.71013 94.4467 5.02022 93.6852 5.64041C92.9469 6.26056 92.5768 7.06452 92.5768 8.0522V20.3524H87.3839V4.5034C86.3454 4.5034 85.422 4.67569 84.6144 5.02022L84.13 3.74541C85.1219 3.33195 86.2069 3.12522 87.3839 3.12522Z" fill="url(#paint3_linear_351_2425)"/>
<path d="M24.7826 6.71835H19.5962V28.0438C18.732 28.0438 17.8923 27.8755 17.0771 27.5388C16.287 27.2281 15.8919 26.8655 15.8919 26.4512V20.1196L6.51984 27.8108C6.17392 27.6036 5.77883 27.2022 5.33423 26.6066C4.88997 26.011 4.59356 25.4801 4.44536 25.0139L9.77959 21.1295C7.97693 20.7152 6.61853 19.6276 5.70473 17.8666C4.81587 16.1057 4.37126 13.9822 4.37126 11.4962V6.71835H1.18562C0.395091 5.6825 0 4.53012 0 3.26123H23.597C24.3872 4.32295 24.7826 5.47533 24.7826 6.71835ZM15.8919 6.71835H8.26087V11.4573C8.26087 14.2542 8.44612 16.1704 8.81663 17.2063C9.21172 18.2162 9.98943 18.7212 11.1501 18.7212C11.9406 18.7212 12.7554 18.4234 13.5951 17.8278C14.4594 17.2063 15.225 16.4035 15.8919 15.4195V6.71835Z" fill="url(#paint4_linear_351_2425)"/>
<path d="M113 1.8932H120.914C124.431 1.8932 127.274 2.84466 129.443 4.74757C131.612 6.63107 132.697 9.07767 132.697 12.0874C132.697 15.0777 131.612 17.5243 129.443 19.4272C127.274 21.3301 124.431 22.2816 120.914 22.2816H113V21.1165H115.345V3.05825H113V1.8932ZM120.914 3.05825H119.742V21.1165H120.914C123.181 21.1165 124.949 20.3107 126.219 18.699C127.509 17.068 128.154 14.8641 128.154 12.0874C128.154 9.31068 127.509 7.1165 126.219 5.50485C124.949 3.87379 123.181 3.05825 120.914 3.05825Z" fill="url(#paint5_linear_351_2425)"/>
<path d="M149.616 7.71845V19.0485C149.616 19.5728 149.743 19.9903 149.997 20.301C150.251 20.5922 150.642 20.7379 151.169 20.7379C151.697 20.7379 152.303 20.4563 152.987 19.8932L153.514 20.5922C151.951 22.0097 150.388 22.7184 148.825 22.7184C146.968 22.7184 145.825 21.8544 145.395 20.1262C144.379 21.8544 142.884 22.7184 140.911 22.7184C138.663 22.7184 136.954 22 135.781 20.5631C134.609 19.1068 134.023 17.2621 134.023 15.0291C134.023 12.7767 134.648 10.9223 135.898 9.46602C137.169 8.00971 138.937 7.28155 141.204 7.28155C142.943 7.28155 144.281 7.97087 145.219 9.34951V7.71845H149.616ZM139.386 10.5728C138.839 11.6602 138.566 13.1359 138.566 15C138.566 16.8641 138.839 18.3398 139.386 19.4272C139.934 20.5146 140.764 21.0582 141.878 21.0582C143.011 21.0582 143.871 20.5146 144.457 19.4272C145.063 18.3204 145.366 16.8447 145.366 15C145.366 13.1553 145.063 11.6893 144.457 10.6019C143.871 9.49514 143.011 8.94175 141.878 8.94175C140.764 8.94175 139.934 9.48544 139.386 10.5728Z" fill="url(#paint6_linear_351_2425)"/>
<path d="M152.311 9.32039V8.12621H154.715V3.93204H159.112V8.12621H162.424V9.32039H159.112V19.0485C159.112 19.5728 159.239 19.9903 159.493 20.301C159.747 20.5922 160.137 20.7379 160.665 20.7379C161.193 20.7379 161.798 20.4563 162.482 19.8932L163.01 20.5922C161.447 22.0097 159.883 22.7184 158.32 22.7184C155.917 22.7184 154.715 21.2913 154.715 18.4369V9.32039H152.311Z" fill="url(#paint7_linear_351_2425)"/>
<path d="M179.331 7.71845V19.0485C179.331 19.5728 179.458 19.9903 179.712 20.301C179.966 20.5922 180.357 20.7379 180.885 20.7379C181.412 20.7379 182.018 20.4563 182.702 19.8932L183.229 20.5922C181.666 22.0097 180.103 22.7184 178.54 22.7184C176.683 22.7184 175.54 21.8544 175.11 20.1262C174.094 21.8544 172.599 22.7184 170.626 22.7184C168.379 22.7184 166.669 22 165.496 20.5631C164.324 19.1068 163.738 17.2621 163.738 15.0291C163.738 12.7767 164.363 10.9223 165.614 9.46602C166.884 8.00971 168.652 7.28155 170.919 7.28155C172.658 7.28155 173.997 7.97087 174.934 9.34951V7.71845H179.331ZM169.102 10.5728C168.554 11.6602 168.281 13.1359 168.281 15C168.281 16.8641 168.554 18.3398 169.102 19.4272C169.649 20.5146 170.479 21.0582 171.593 21.0582C172.726 21.0582 173.586 20.5146 174.172 19.4272C174.778 18.3204 175.081 16.8447 175.081 15C175.081 13.1553 174.778 11.6893 174.172 10.6019C173.586 9.49514 172.726 8.94175 171.593 8.94175C170.479 8.94175 169.649 9.48544 169.102 10.5728Z" fill="url(#paint8_linear_351_2425)"/>
<path d="M192.866 3.05825V1.8932H199.842L205.675 21.1165H207.14V22.2816H199.578V21.1165H201.278L200.194 17.534H192.221L191.166 21.1165H192.866V22.2816H187.912V21.1165H189.378L194.859 3.05825H192.866ZM196.178 4.31068L192.631 16.2233H199.783L196.178 4.31068Z" fill="url(#paint9_linear_351_2425)"/>
<path d="M209.024 7.71845C210.626 7.71845 212.072 8.20388 213.362 9.17476C214.104 8.47573 214.866 7.99029 215.648 7.71845C216.429 7.42718 217.426 7.28155 218.638 7.28155C219.869 7.28155 220.865 7.6699 221.627 8.4466C222.409 9.20388 222.8 10.2427 222.8 11.5631V19.0485C222.8 19.5728 222.927 19.9903 223.181 20.301C223.435 20.5922 223.826 20.7379 224.353 20.7379C224.881 20.7379 225.487 20.4563 226.17 19.8932L226.698 20.5922C225.135 22.0097 223.572 22.7184 222.008 22.7184C219.605 22.7184 218.403 21.2913 218.403 18.4369V10.9515C218.403 10.3495 218.217 9.88349 217.846 9.5534C217.475 9.2233 216.957 9.05825 216.293 9.05825C215.648 9.05825 215.003 9.32039 214.358 9.84466C213.733 10.3689 213.42 11.0485 213.42 11.8835V22.2816H209.024V8.8835C208.144 8.8835 207.363 9.02913 206.679 9.32039L206.268 8.24272C207.109 7.8932 208.027 7.71845 209.024 7.71845Z" fill="url(#paint10_linear_351_2425)"/>
<path d="M241.853 7.71845V19.0485C241.853 19.5728 241.98 19.9903 242.234 20.301C242.488 20.5922 242.879 20.7379 243.406 20.7379C243.934 20.7379 244.54 20.4563 245.223 19.8932L245.751 20.5922C244.188 22.0097 242.625 22.7184 241.061 22.7184C239.205 22.7184 238.062 21.8544 237.632 20.1262C236.616 21.8544 235.121 22.7184 233.147 22.7184C230.9 22.7184 229.19 22 228.018 20.5631C226.846 19.1068 226.259 17.2621 226.259 15.0291C226.259 12.7767 226.885 10.9223 228.135 9.46602C229.405 8.00971 231.174 7.28155 233.44 7.28155C235.18 7.28155 236.518 7.97087 237.456 9.34951V7.71845H241.853ZM231.623 10.5728C231.076 11.6602 230.802 13.1359 230.802 15C230.802 16.8641 231.076 18.3398 231.623 19.4272C232.17 20.5146 233.001 21.0582 234.115 21.0582C235.248 21.0582 236.108 20.5146 236.694 19.4272C237.3 18.3204 237.603 16.8447 237.603 15C237.603 13.1553 237.3 11.6893 236.694 10.6019C236.108 9.49514 235.248 8.94175 234.115 8.94175C233.001 8.94175 232.17 9.48544 231.623 10.5728Z" fill="url(#paint11_linear_351_2425)"/>
<path d="M243.405 1.92233C243.972 1.33981 244.685 0.873787 245.545 0.524272C246.424 0.174758 247.284 0 248.124 0C248.984 0 249.687 0.174758 250.235 0.524272C250.782 0.85437 251.055 1.27185 251.055 1.7767V19.0485C251.055 19.5728 251.182 19.9903 251.436 20.301C251.69 20.5922 252.081 20.7379 252.609 20.7379C253.136 20.7379 253.742 20.4563 254.426 19.8932L254.954 20.5922C253.39 22.0097 251.827 22.7184 250.264 22.7184C247.86 22.7184 246.659 21.2913 246.659 18.4369V1.39806C245.584 1.6699 244.763 2.14563 244.196 2.82524L243.405 1.92233Z" fill="url(#paint12_linear_351_2425)"/>
<path d="M252.99 9.20388C253.557 8.62136 254.27 8.15534 255.13 7.80583C256.009 7.45631 256.869 7.28155 257.709 7.28155C258.569 7.28155 259.273 7.45631 259.82 7.80583C260.367 8.13592 260.641 8.5534 260.641 9.05825V17.8835C260.641 18.5049 260.836 18.9806 261.227 19.3107C261.618 19.6214 262.106 19.7767 262.692 19.7767C263.943 19.7767 265.008 19.2427 265.887 18.1748C266.786 17.1068 267.236 15.7379 267.236 14.068C267.236 13.1359 267.05 12.1553 266.679 11.1262C266.327 11.3592 265.877 11.4757 265.33 11.4757C264.783 11.4757 264.285 11.2621 263.835 10.835C263.406 10.3883 263.191 9.85437 263.191 9.23301C263.191 8.61165 263.406 8.08738 263.835 7.66019C264.285 7.21359 264.842 6.99029 265.506 6.99029C266.171 6.99029 266.737 7.24272 267.206 7.74757C267.695 8.23301 268.046 8.8835 268.261 9.69903C268.613 11.1165 268.789 12.6893 268.789 14.4175C268.789 16.1262 268.584 17.8447 268.173 19.5728C267.783 21.301 267.255 22.7864 266.591 24.0291C265.946 25.2718 265.213 26.3495 264.392 27.2621C262.712 29.0874 261.002 30 259.263 30C258.794 30 258.403 29.8932 258.091 29.6796C257.797 29.4854 257.455 29.1165 257.065 28.5728L255.54 26.4757L256.303 25.6893C257.24 25.8447 258.061 25.9223 258.765 25.9223C260.953 25.9223 262.741 25.233 264.129 23.8544C265.516 22.4757 266.61 20.233 267.411 17.1262C266.2 20.466 263.972 22.1359 260.728 22.1359C259.478 22.1359 258.413 21.7184 257.534 20.8835C256.674 20.0291 256.244 18.8252 256.244 17.2718V8.67961C255.169 8.95146 254.348 9.42719 253.782 10.1068L252.99 9.20388Z" fill="url(#paint13_linear_351_2425)"/>
<path d="M270.37 9.32039V8.12621H272.774V3.93204H277.171V8.12621H280.483V9.32039H277.171V19.0485C277.171 19.5728 277.298 19.9903 277.552 20.301C277.806 20.5922 278.196 20.7379 278.724 20.7379C279.252 20.7379 279.857 20.4563 280.541 19.8932L281.069 20.5922C279.506 22.0097 277.942 22.7184 276.379 22.7184C273.976 22.7184 272.774 21.2913 272.774 18.4369V9.32039H270.37Z" fill="url(#paint14_linear_351_2425)"/>
<path d="M284.405 4.42718C283.956 3.96117 283.731 3.40777 283.731 2.76699C283.731 2.12621 283.956 1.58252 284.405 1.13592C284.874 0.669903 285.431 0.436893 286.076 0.436893C286.721 0.436893 287.268 0.669903 287.717 1.13592C288.186 1.58252 288.421 2.12621 288.421 2.76699C288.421 3.40777 288.186 3.96117 287.717 4.42718C287.268 4.87379 286.721 5.09709 286.076 5.09709C285.431 5.09709 284.874 4.87379 284.405 4.42718ZM285.519 7.28155C287.356 7.28155 288.274 8.06796 288.274 9.64078V19.0485C288.274 19.5728 288.401 19.9903 288.655 20.301C288.909 20.5922 289.3 20.7379 289.828 20.7379C290.355 20.7379 290.961 20.4563 291.645 19.8932L292.173 20.5922C290.609 22.0097 289.046 22.7184 287.483 22.7184C285.079 22.7184 283.878 21.2913 283.878 18.4369V8.67961C282.803 8.95146 281.982 9.42719 281.416 10.1068L280.624 9.20388C281.191 8.62136 281.904 8.15534 282.764 7.80583C283.643 7.45631 284.562 7.28155 285.519 7.28155Z" fill="url(#paint15_linear_351_2425)"/>
<path d="M299.542 22.7184C297.217 22.7184 295.331 21.9806 293.885 20.5049C292.458 19.0097 291.745 17.1748 291.745 15C291.745 12.8252 292.458 11 293.885 9.52427C295.331 8.02912 297.207 7.28155 299.513 7.28155C300.802 7.28155 302.063 7.65049 303.294 8.38835C304.525 9.12621 305.14 10.1262 305.14 11.3883C305.14 12.0291 304.906 12.5825 304.437 13.0485C303.987 13.4951 303.44 13.7184 302.795 13.7184C302.151 13.7184 301.594 13.4951 301.125 13.0485C300.675 12.5825 300.451 12.0583 300.451 11.4757C300.451 10.8932 300.607 10.3981 300.92 9.99029C301.232 9.58252 301.643 9.30097 302.151 9.14563C301.603 8.91262 300.978 8.79612 300.275 8.79612C298.965 8.79612 297.969 9.37864 297.285 10.5437C296.621 11.6893 296.288 13.1553 296.288 14.9417C296.288 16.7087 296.621 18.1456 297.285 19.2524C297.969 20.3592 298.965 20.9126 300.275 20.9126C302.033 20.9126 303.528 20.1845 304.759 18.7282L305.58 19.2524C304.935 20.301 304.085 21.1456 303.03 21.7864C301.994 22.4078 300.832 22.7184 299.542 22.7184Z" fill="url(#paint16_linear_351_2425)"/>
<path d="M309.67 10.1068C309.201 9.38835 308.966 8.74757 308.966 8.18447C308.966 7.62136 309.181 7.12621 309.611 6.69903C310.06 6.25243 310.598 6.02913 311.223 6.02913C311.848 6.02913 312.376 6.25243 312.806 6.69903C313.255 7.12621 313.48 7.64078 313.48 8.24272C313.48 8.84466 313.177 9.48544 312.571 10.165C314.174 11.3301 315.405 12.4757 316.264 13.6019C317.124 14.7087 317.554 16 317.554 17.4757C317.554 18.932 316.997 20.1748 315.883 21.2039C314.77 22.2136 313.187 22.7184 311.135 22.7184C310.197 22.7184 309.249 22.5146 308.292 22.1068C307.354 21.699 306.641 21.1942 306.152 20.5922L306.826 19.8932C307.686 20.5728 308.614 20.9126 309.611 20.9126C310.607 20.9126 311.418 20.6505 312.044 20.1262C312.689 19.5825 313.011 18.7476 313.011 17.6214C313.011 15.835 312.347 13.9709 311.018 12.0291L306.592 17.534L305.859 16.8932C307.344 14.5049 308.614 12.2427 309.67 10.1068Z" fill="url(#paint17_linear_351_2425)"/>
<path d="M325.745 3.05825V1.8932H332.193C337 1.8932 340.009 3.03883 341.221 5.3301C341.709 6.2233 341.954 7.31068 341.954 8.59223C341.954 9.87379 341.709 10.9612 341.221 11.8544C340.752 12.7476 340.058 13.4369 339.14 13.9223C337.42 14.835 335.105 15.2913 332.193 15.2913H331.9V21.1165H334.245V22.2816H325.745V21.1165H327.503V3.05825H325.745ZM332.193 3.05825H331.9V14.1262H332.193C333.737 14.1262 335.017 13.6408 336.033 12.6699C337.049 11.699 337.557 10.3398 337.557 8.59223C337.557 6.84466 337.049 5.48544 336.033 4.51456C335.017 3.54369 333.737 3.05825 332.193 3.05825Z" fill="url(#paint18_linear_351_2425)"/>
<path d="M341.227 1.92233C341.794 1.33981 342.507 0.873787 343.367 0.524272C344.246 0.174758 345.106 0 345.946 0C346.806 0 347.509 0.174758 348.056 0.524272C348.603 0.85437 348.877 1.27185 348.877 1.7767V19.0485C348.877 19.5728 349.004 19.9903 349.258 20.301C349.512 20.5922 349.903 20.7379 350.431 20.7379C350.958 20.7379 351.564 20.4563 352.248 19.8932L352.775 20.5922C351.212 22.0097 349.649 22.7184 348.086 22.7184C345.682 22.7184 344.48 21.2913 344.48 18.4369V1.39806C343.406 1.6699 342.585 2.14563 342.018 2.82524L341.227 1.92233Z" fill="url(#paint19_linear_351_2425)"/>
<path d="M367.93 7.71845V19.0485C367.93 19.5728 368.057 19.9903 368.311 20.301C368.565 20.5922 368.956 20.7379 369.483 20.7379C370.011 20.7379 370.617 20.4563 371.301 19.8932L371.828 20.5922C370.265 22.0097 368.702 22.7184 367.138 22.7184C365.282 22.7184 364.139 21.8544 363.709 20.1262C362.693 21.8544 361.198 22.7184 359.224 22.7184C356.977 22.7184 355.267 22 354.095 20.5631C352.923 19.1068 352.336 17.2621 352.336 15.0291C352.336 12.7767 352.962 10.9223 354.212 9.46602C355.482 8.00971 357.251 7.28155 359.518 7.28155C361.257 7.28155 362.595 7.97087 363.533 9.34951V7.71845H367.93ZM357.7 10.5728C357.153 11.6602 356.88 13.1359 356.88 15C356.88 16.8641 357.153 18.3398 357.7 19.4272C358.247 20.5146 359.078 21.0582 360.192 21.0582C361.325 21.0582 362.185 20.5146 362.771 19.4272C363.377 18.3204 363.68 16.8447 363.68 15C363.68 13.1553 363.377 11.6893 362.771 10.6019C362.185 9.49514 361.325 8.94175 360.192 8.94175C359.078 8.94175 358.247 9.48544 357.7 10.5728Z" fill="url(#paint20_linear_351_2425)"/>
<path d="M370.625 9.32039V8.12621H373.029V3.93204H377.425V8.12621H380.738V9.32039H377.425V19.0485C377.425 19.5728 377.552 19.9903 377.806 20.301C378.06 20.5922 378.451 20.7379 378.979 20.7379C379.507 20.7379 380.112 20.4563 380.796 19.8932L381.324 20.5922C379.761 22.0097 378.197 22.7184 376.634 22.7184C374.231 22.7184 373.029 21.2913 373.029 18.4369V9.32039H370.625Z" fill="url(#paint21_linear_351_2425)"/>
<path d="M381.289 9.32039V8.12621H383.693V5.18447C383.693 3.65049 384.133 2.40777 385.012 1.45631C385.891 0.485438 387.308 0 389.262 0C390.22 0 391.128 0.174758 391.988 0.524272C392.867 0.873787 393.59 1.33981 394.157 1.92233L393.366 2.82524C392.525 2.1068 391.587 1.74757 390.552 1.74757C388.91 1.74757 388.09 2.81553 388.09 4.95146V8.12621H391.402V9.32039H388.09V26.1262H383.693V9.32039H381.289Z" fill="url(#paint22_linear_351_2425)"/>
<path d="M393.396 20.5049C391.969 19.0097 391.256 17.1748 391.256 15C391.256 12.8252 391.969 11 393.396 9.52427C394.842 8.02912 396.717 7.28155 399.023 7.28155C401.329 7.28155 403.195 8.02912 404.622 9.52427C406.068 11 406.791 12.8252 406.791 15C406.791 17.1748 406.068 19.0097 404.622 20.5049C403.195 21.9806 401.329 22.7184 399.023 22.7184C396.717 22.7184 394.842 21.9806 393.396 20.5049ZM396.62 10.3398C396.073 11.5437 395.799 13.0971 395.799 15C395.799 16.9029 396.073 18.466 396.62 19.6893C397.167 20.8932 397.978 21.4951 399.053 21.4951C400.127 21.4951 400.938 20.8932 401.485 19.6893C402.032 18.466 402.306 16.9029 402.306 15C402.306 13.0971 402.032 11.5437 401.485 10.3398C400.938 9.1165 400.127 8.50485 399.053 8.50485C397.978 8.50485 397.167 9.1165 396.62 10.3398Z" fill="url(#paint23_linear_351_2425)"/>
<path d="M418.461 7.28155C419.047 7.28155 419.34 7.83495 419.34 8.94175V19.0485C419.34 19.5728 419.467 19.9903 419.721 20.301C419.975 20.5922 420.366 20.7379 420.894 20.7379C421.421 20.7379 422.027 20.4563 422.711 19.8932L423.239 20.5922C421.675 22.0097 420.112 22.7184 418.549 22.7184C416.145 22.7184 414.944 21.2913 414.944 18.4369V10.2524C414.025 10.6214 412.911 10.8738 411.602 11.0097C411.446 12.7961 410.928 14.5825 410.049 16.3689L408.847 16.0194C409.394 14.6408 409.687 13 409.726 11.0971C408.984 11.0971 408.378 10.8835 407.909 10.4563C407.46 10.0291 407.235 9.50485 407.235 8.8835C407.235 8.24272 407.45 7.70874 407.88 7.28155C408.329 6.83495 408.867 6.61165 409.492 6.61165C410.137 6.61165 410.674 6.83495 411.104 7.28155C411.534 7.72815 411.749 8.30097 411.749 9H412.306C413.849 9 415.491 8.57282 417.23 7.71845C417.797 7.42718 418.207 7.28155 418.461 7.28155Z" fill="url(#paint24_linear_351_2425)"/>
<path d="M421.777 8.24272C422.617 7.8932 423.516 7.71845 424.474 7.71845C425.451 7.71845 426.252 7.83495 426.877 8.06796C427.522 8.30097 428.186 8.6699 428.87 9.17476C429.574 8.47573 430.287 7.99029 431.01 7.71845C431.752 7.42718 432.622 7.28155 433.619 7.28155C435.612 7.28155 436.941 8.03883 437.605 9.5534C438.367 8.71845 439.129 8.13592 439.891 7.80583C440.673 7.45631 441.679 7.28155 442.91 7.28155C444.161 7.28155 445.167 7.6699 445.929 8.4466C446.711 9.20388 447.102 10.2427 447.102 11.5631V19.0485C447.102 19.5728 447.229 19.9903 447.483 20.301C447.737 20.5922 448.128 20.7379 448.655 20.7379C449.183 20.7379 449.788 20.4563 450.472 19.8932L451 20.5922C449.437 22.0097 447.874 22.7184 446.31 22.7184C443.907 22.7184 442.705 21.2913 442.705 18.4369V10.9515C442.705 10.3495 442.529 9.88349 442.177 9.5534C441.826 9.2233 441.337 9.05825 440.712 9.05825C440.106 9.05825 439.5 9.32039 438.895 9.84466C438.308 10.3689 438.015 11.0485 438.015 11.8835V22.2816H433.619V10.9515C433.619 10.3495 433.443 9.88349 433.091 9.5534C432.739 9.2233 432.251 9.05825 431.625 9.05825C431.02 9.05825 430.414 9.32039 429.808 9.84466C429.222 10.3689 428.929 11.0485 428.929 11.8835V22.2816H424.532V8.8835C423.653 8.8835 422.871 9.02913 422.187 9.32039L421.777 8.24272Z" fill="url(#paint25_linear_351_2425)"/>
<defs>
<linearGradient id="paint0_linear_351_2425" x1="67.4866" y1="-5.25115" x2="66.0145" y2="33.6932" gradientUnits="userSpaceOnUse">
<stop stop-color="#1D2399"/>
<stop offset="0.25" stop-color="#0710CA"/>
<stop offset="1" stop-color="#0367FF"/>
</linearGradient>
<linearGradient id="paint1_linear_351_2425" x1="66.1248" y1="-5.32967" x2="64.5503" y2="33.6937" gradientUnits="userSpaceOnUse">
<stop stop-color="#1D2399"/>
<stop offset="0.25" stop-color="#0710CA"/>
<stop offset="1" stop-color="#0367FF"/>
</linearGradient>
<linearGradient id="paint2_linear_351_2425" x1="66.495" y1="-4.80815" x2="65.0715" y2="33.0761" gradientUnits="userSpaceOnUse">
<stop stop-color="#1D2399"/>
<stop offset="0.25" stop-color="#0710CA"/>
<stop offset="1" stop-color="#0367FF"/>
</linearGradient>
<linearGradient id="paint3_linear_351_2425" x1="66.3563" y1="-4.80815" x2="64.9047" y2="33.074" gradientUnits="userSpaceOnUse">
<stop stop-color="#1D2399"/>
<stop offset="0.25" stop-color="#0710CA"/>
<stop offset="1" stop-color="#0367FF"/>
</linearGradient>
<linearGradient id="paint4_linear_351_2425" x1="12.2533" y1="-1.07668" x2="8.78812" y2="30.7637" gradientUnits="userSpaceOnUse">
<stop stop-color="#1D2399"/>
<stop offset="0.25" stop-color="#0710CA"/>
<stop offset="1" stop-color="#0367FF"/>
</linearGradient>
<linearGradient id="paint5_linear_351_2425" x1="-135.959" y1="-12.1843" x2="-136.24" y2="50.1407" gradientUnits="userSpaceOnUse">
<stop stop-color="#1D2399"/>
<stop offset="0.302083" stop-color="#0710CA"/>
<stop offset="0.833333" stop-color="#0367FF"/>
</linearGradient>
<linearGradient id="paint6_linear_351_2425" x1="-135.959" y1="-12.1843" x2="-136.24" y2="50.1407" gradientUnits="userSpaceOnUse">
<stop stop-color="#1D2399"/>
<stop offset="0.302083" stop-color="#0710CA"/>
<stop offset="0.833333" stop-color="#0367FF"/>
</linearGradient>
<linearGradient id="paint7_linear_351_2425" x1="-135.959" y1="-12.1843" x2="-136.24" y2="50.1407" gradientUnits="userSpaceOnUse">
<stop stop-color="#1D2399"/>
<stop offset="0.302083" stop-color="#0710CA"/>
<stop offset="0.833333" stop-color="#0367FF"/>
</linearGradient>
<linearGradient id="paint8_linear_351_2425" x1="-135.959" y1="-12.1843" x2="-136.24" y2="50.1407" gradientUnits="userSpaceOnUse">
<stop stop-color="#1D2399"/>
<stop offset="0.302083" stop-color="#0710CA"/>
<stop offset="0.833333" stop-color="#0367FF"/>
</linearGradient>
<linearGradient id="paint9_linear_351_2425" x1="-135.959" y1="-12.1843" x2="-136.24" y2="50.1407" gradientUnits="userSpaceOnUse">
<stop stop-color="#1D2399"/>
<stop offset="0.302083" stop-color="#0710CA"/>
<stop offset="0.833333" stop-color="#0367FF"/>
</linearGradient>
<linearGradient id="paint10_linear_351_2425" x1="-135.959" y1="-12.1843" x2="-136.24" y2="50.1407" gradientUnits="userSpaceOnUse">
<stop stop-color="#1D2399"/>
<stop offset="0.302083" stop-color="#0710CA"/>
<stop offset="0.833333" stop-color="#0367FF"/>
</linearGradient>
<linearGradient id="paint11_linear_351_2425" x1="-135.959" y1="-12.1843" x2="-136.24" y2="50.1407" gradientUnits="userSpaceOnUse">
<stop stop-color="#1D2399"/>
<stop offset="0.302083" stop-color="#0710CA"/>
<stop offset="0.833333" stop-color="#0367FF"/>
</linearGradient>
<linearGradient id="paint12_linear_351_2425" x1="-135.959" y1="-12.1843" x2="-136.24" y2="50.1407" gradientUnits="userSpaceOnUse">
<stop stop-color="#1D2399"/>
<stop offset="0.302083" stop-color="#0710CA"/>
<stop offset="0.833333" stop-color="#0367FF"/>
</linearGradient>
<linearGradient id="paint13_linear_351_2425" x1="-135.959" y1="-12.1843" x2="-136.24" y2="50.1407" gradientUnits="userSpaceOnUse">
<stop stop-color="#1D2399"/>
<stop offset="0.302083" stop-color="#0710CA"/>
<stop offset="0.833333" stop-color="#0367FF"/>
</linearGradient>
<linearGradient id="paint14_linear_351_2425" x1="-135.959" y1="-12.1843" x2="-136.24" y2="50.1407" gradientUnits="userSpaceOnUse">
<stop stop-color="#1D2399"/>
<stop offset="0.302083" stop-color="#0710CA"/>
<stop offset="0.833333" stop-color="#0367FF"/>
</linearGradient>
<linearGradient id="paint15_linear_351_2425" x1="-135.959" y1="-12.1843" x2="-136.24" y2="50.1407" gradientUnits="userSpaceOnUse">
<stop stop-color="#1D2399"/>
<stop offset="0.302083" stop-color="#0710CA"/>
<stop offset="0.833333" stop-color="#0367FF"/>
</linearGradient>
<linearGradient id="paint16_linear_351_2425" x1="-135.959" y1="-12.1843" x2="-136.24" y2="50.1407" gradientUnits="userSpaceOnUse">
<stop stop-color="#1D2399"/>
<stop offset="0.302083" stop-color="#0710CA"/>
<stop offset="0.833333" stop-color="#0367FF"/>
</linearGradient>
<linearGradient id="paint17_linear_351_2425" x1="-135.959" y1="-12.1843" x2="-136.24" y2="50.1407" gradientUnits="userSpaceOnUse">
<stop stop-color="#1D2399"/>
<stop offset="0.302083" stop-color="#0710CA"/>
<stop offset="0.833333" stop-color="#0367FF"/>
</linearGradient>
<linearGradient id="paint18_linear_351_2425" x1="-135.959" y1="-12.1843" x2="-136.24" y2="50.1407" gradientUnits="userSpaceOnUse">
<stop stop-color="#1D2399"/>
<stop offset="0.302083" stop-color="#0710CA"/>
<stop offset="0.833333" stop-color="#0367FF"/>
</linearGradient>
<linearGradient id="paint19_linear_351_2425" x1="-135.959" y1="-12.1843" x2="-136.24" y2="50.1407" gradientUnits="userSpaceOnUse">
<stop stop-color="#1D2399"/>
<stop offset="0.302083" stop-color="#0710CA"/>
<stop offset="0.833333" stop-color="#0367FF"/>
</linearGradient>
<linearGradient id="paint20_linear_351_2425" x1="-135.959" y1="-12.1843" x2="-136.24" y2="50.1407" gradientUnits="userSpaceOnUse">
<stop stop-color="#1D2399"/>
<stop offset="0.302083" stop-color="#0710CA"/>
<stop offset="0.833333" stop-color="#0367FF"/>
</linearGradient>
<linearGradient id="paint21_linear_351_2425" x1="-135.959" y1="-12.1843" x2="-136.24" y2="50.1407" gradientUnits="userSpaceOnUse">
<stop stop-color="#1D2399"/>
<stop offset="0.302083" stop-color="#0710CA"/>
<stop offset="0.833333" stop-color="#0367FF"/>
</linearGradient>
<linearGradient id="paint22_linear_351_2425" x1="-135.959" y1="-12.1843" x2="-136.24" y2="50.1407" gradientUnits="userSpaceOnUse">
<stop stop-color="#1D2399"/>
<stop offset="0.302083" stop-color="#0710CA"/>
<stop offset="0.833333" stop-color="#0367FF"/>
</linearGradient>
<linearGradient id="paint23_linear_351_2425" x1="-135.959" y1="-12.1843" x2="-136.24" y2="50.1407" gradientUnits="userSpaceOnUse">
<stop stop-color="#1D2399"/>
<stop offset="0.302083" stop-color="#0710CA"/>
<stop offset="0.833333" stop-color="#0367FF"/>
</linearGradient>
<linearGradient id="paint24_linear_351_2425" x1="-135.959" y1="-12.1843" x2="-136.24" y2="50.1407" gradientUnits="userSpaceOnUse">
<stop stop-color="#1D2399"/>
<stop offset="0.302083" stop-color="#0710CA"/>
<stop offset="0.833333" stop-color="#0367FF"/>
</linearGradient>
<linearGradient id="paint25_linear_351_2425" x1="-135.959" y1="-12.1843" x2="-136.24" y2="50.1407" gradientUnits="userSpaceOnUse">
<stop stop-color="#1D2399"/>
<stop offset="0.302083" stop-color="#0710CA"/>
<stop offset="0.833333" stop-color="#0367FF"/>
</linearGradient>
</defs>
</svg>
