<svg width="324" height="30" viewBox="0 0 324 30" fill="none" xmlns="http://www.w3.org/2000/svg">
<path d="M7.78174 2.43945C11.3218 2.43945 13.9839 3.29378 15.7681 5.00244C17.5617 6.7111 18.4585 9.25049 18.4585 12.6206C18.4585 16.019 17.5522 18.6009 15.7397 20.3662C13.9367 22.1221 11.284 23 7.78174 23H0.885742V2.43945H7.78174ZM8.0791 19.7007C9.99544 19.7007 11.4445 19.1107 12.4263 17.9307C13.408 16.7507 13.8989 14.9995 13.8989 12.6772C13.8989 10.3927 13.4128 8.66992 12.4404 7.50879C11.4681 6.34766 10.0143 5.76709 8.0791 5.76709H5.26123V19.7007H8.0791Z" fill="#0C7BD4"/>
<path d="M27.3511 7.50879C29.494 7.50879 31.1366 8.03743 32.2788 9.09473C33.4211 10.152 33.9922 11.686 33.9922 13.6968V23H30.3955L29.8999 21.2017C29.2769 21.8625 28.5736 22.3675 27.79 22.7168C27.016 23.0566 26.1852 23.2266 25.2979 23.2266C23.7308 23.2266 22.4847 22.8206 21.5596 22.0088C20.6439 21.1969 20.186 20.1066 20.186 18.7378C20.186 17.1519 20.8516 15.9152 22.1826 15.0278C23.5231 14.1405 25.3923 13.6968 27.79 13.6968H29.645V13.3145C29.5884 11.5586 28.5924 10.6807 26.6572 10.6807C25.9964 10.6807 25.2318 10.7798 24.3633 10.978C23.4948 11.1668 22.7113 11.4123 22.0127 11.7144L21.0923 8.7832C22.0929 8.37728 23.1455 8.06576 24.25 7.84863C25.3545 7.62207 26.3882 7.50879 27.3511 7.50879ZM28.1582 16.0757C26.9215 16.0757 25.9587 16.2881 25.2695 16.7129C24.5898 17.1377 24.25 17.7277 24.25 18.4829C24.25 19.106 24.4388 19.5827 24.8164 19.9131C25.194 20.234 25.7274 20.3945 26.4165 20.3945C27.0396 20.3945 27.6343 20.2576 28.2007 19.9839C28.7765 19.7101 29.258 19.342 29.645 18.8794V16.0757H28.1582Z" fill="#0C7BD4"/>
<path d="M47.1753 22.4194C45.8631 22.9575 44.6076 23.2266 43.4087 23.2266C40.0669 23.2266 38.396 21.6312 38.396 18.4404V10.8506H35.8896V7.80615H38.6792L39.5146 3.45898H42.7148V7.80615H46.8638V10.8506H42.7148V17.8315C42.7148 18.6056 42.8564 19.1579 43.1396 19.4883C43.4323 19.8187 43.9279 19.9839 44.6265 19.9839C45.2212 19.9839 45.8584 19.8659 46.5381 19.6299L47.1753 22.4194Z" fill="#0C7BD4"/>
<path d="M55.5581 7.50879C57.701 7.50879 59.3436 8.03743 60.4858 9.09473C61.6281 10.152 62.1992 11.686 62.1992 13.6968V23H58.6025L58.1069 21.2017C57.4839 21.8625 56.7806 22.3675 55.9971 22.7168C55.223 23.0566 54.3923 23.2266 53.5049 23.2266C51.9378 23.2266 50.6917 22.8206 49.7666 22.0088C48.8509 21.1969 48.3931 20.1066 48.3931 18.7378C48.3931 17.1519 49.0586 15.9152 50.3896 15.0278C51.7301 14.1405 53.5993 13.6968 55.9971 13.6968H57.8521V13.3145C57.7954 11.5586 56.7995 10.6807 54.8643 10.6807C54.2035 10.6807 53.4388 10.7798 52.5703 10.978C51.7018 11.1668 50.9183 11.4123 50.2197 11.7144L49.2993 8.7832C50.3 8.37728 51.3525 8.06576 52.457 7.84863C53.5615 7.62207 54.5952 7.50879 55.5581 7.50879ZM56.3652 16.0757C55.1286 16.0757 54.1657 16.2881 53.4766 16.7129C52.7969 17.1377 52.457 17.7277 52.457 18.4829C52.457 19.106 52.6458 19.5827 53.0234 19.9131C53.401 20.234 53.9344 20.3945 54.6235 20.3945C55.2466 20.3945 55.8413 20.2576 56.4077 19.9839C56.9836 19.7101 57.465 19.342 57.8521 18.8794V16.0757H56.3652Z" fill="#0C7BD4"/>
<path d="M76.3877 17.7183L74.7168 23H70.3555L77.0249 2.43945H82.8872L89.7266 23H85.436L83.6943 17.7183H76.3877ZM79.8994 6.23438L77.3789 14.4473H82.689L80.0977 6.23438H79.8994Z" fill="#0C7BD4"/>
<path d="M96.042 9.91602C97.3825 8.34896 99.1431 7.56543 101.324 7.56543C102.91 7.56543 104.132 8.03271 104.991 8.96729C105.85 9.89242 106.28 11.2046 106.28 12.9038V23H101.933V13.1445C101.933 12.2572 101.758 11.6152 101.409 11.2188C101.059 10.8223 100.498 10.624 99.7236 10.624C99.0251 10.624 98.3737 10.7845 97.7695 11.1055C97.1654 11.417 96.6792 11.8418 96.311 12.3799V23H91.9497V7.80615H95.5747L96.042 9.91602Z" fill="#0C7BD4"/>
<path d="M115.852 7.50879C117.995 7.50879 119.638 8.03743 120.78 9.09473C121.922 10.152 122.493 11.686 122.493 13.6968V23H118.896L118.401 21.2017C117.778 21.8625 117.075 22.3675 116.291 22.7168C115.517 23.0566 114.686 23.2266 113.799 23.2266C112.232 23.2266 110.986 22.8206 110.061 22.0088C109.145 21.1969 108.687 20.1066 108.687 18.7378C108.687 17.1519 109.353 15.9152 110.684 15.0278C112.024 14.1405 113.893 13.6968 116.291 13.6968H118.146V13.3145C118.089 11.5586 117.093 10.6807 115.158 10.6807C114.497 10.6807 113.733 10.7798 112.864 10.978C111.996 11.1668 111.212 11.4123 110.514 11.7144L109.593 8.7832C110.594 8.37728 111.646 8.06576 112.751 7.84863C113.855 7.62207 114.889 7.50879 115.852 7.50879ZM116.659 16.0757C115.423 16.0757 114.46 16.2881 113.771 16.7129C113.091 17.1377 112.751 17.7277 112.751 18.4829C112.751 19.106 112.94 19.5827 113.317 19.9131C113.695 20.234 114.228 20.3945 114.917 20.3945C115.541 20.3945 116.135 20.2576 116.702 19.9839C117.278 19.7101 117.759 19.342 118.146 18.8794V16.0757H116.659Z" fill="#0C7BD4"/>
<path d="M126.288 1.19336H130.635V23H126.288V1.19336Z" fill="#0C7BD4"/>
<path d="M138.579 22.915L132.83 7.80615H136.979L138.692 12.479C139.117 13.6401 139.655 15.4668 140.307 17.959L140.689 19.4033L141.128 17.7183C141.685 15.4149 142.176 13.6449 142.601 12.4082L144.257 7.80615H148.435L140.108 29.6411H136.144L138.579 22.915Z" fill="#0C7BD4"/>
<path d="M160.003 22.4194C158.691 22.9575 157.436 23.2266 156.237 23.2266C152.895 23.2266 151.224 21.6312 151.224 18.4404V10.8506H148.718V7.80615H151.507L152.343 3.45898H155.543V7.80615H159.692V10.8506H155.543V17.8315C155.543 18.6056 155.685 19.1579 155.968 19.4883C156.26 19.8187 156.756 19.9839 157.455 19.9839C158.049 19.9839 158.687 19.8659 159.366 19.6299L160.003 22.4194Z" fill="#0C7BD4"/>
<path d="M162.68 1.68896H167.027V5.65381H162.68V1.68896ZM162.68 7.97607H167.027V23H162.68V7.97607Z" fill="#0C7BD4"/>
<path d="M177.93 7.56543C179.478 7.56543 180.946 7.92415 182.334 8.6416L181.371 11.5161C180.342 10.978 179.346 10.709 178.383 10.709C177.128 10.709 176.155 11.1149 175.466 11.9268C174.787 12.7386 174.447 13.8856 174.447 15.3677C174.447 16.8403 174.796 17.9779 175.495 18.7803C176.203 19.5827 177.217 19.9839 178.539 19.9839C179.625 19.9839 180.687 19.7526 181.725 19.29L182.419 22.2495C181.72 22.561 180.965 22.8018 180.153 22.9717C179.341 23.1416 178.567 23.2266 177.831 23.2266C175.32 23.2266 173.399 22.5516 172.068 21.2017C170.737 19.8517 170.071 17.9071 170.071 15.3677C170.071 12.8944 170.756 10.978 172.125 9.61865C173.493 8.24984 175.429 7.56543 177.93 7.56543Z" fill="#0C7BD4"/>
<path d="M190.377 7.50879C191.812 7.50879 193.487 7.83919 195.404 8.5L194.498 11.3462C193.497 11.0158 192.699 10.7892 192.104 10.6665C191.519 10.5343 190.995 10.4683 190.533 10.4683C189.815 10.4683 189.249 10.6051 188.833 10.8789C188.418 11.1527 188.21 11.5208 188.21 11.9834C188.21 12.4271 188.409 12.7764 188.805 13.0312C189.202 13.2767 189.796 13.5174 190.589 13.7534C191.694 14.0649 192.567 14.3576 193.209 14.6313C193.86 14.8957 194.436 15.3441 194.937 15.9766C195.437 16.5996 195.687 17.4539 195.687 18.5396C195.687 20.0311 195.13 21.1969 194.016 22.0371C192.912 22.8678 191.392 23.2832 189.457 23.2832C187.427 23.2832 185.482 22.8773 183.623 22.0654L184.67 19.2051C185.775 19.611 186.667 19.8989 187.347 20.0688C188.036 20.2293 188.649 20.3096 189.188 20.3096C189.943 20.3096 190.514 20.168 190.901 19.8848C191.288 19.6016 191.481 19.2004 191.481 18.6812C191.481 18.1619 191.26 17.7796 190.816 17.5342C190.372 17.2887 189.655 17.0244 188.664 16.7412C187.738 16.4674 186.964 16.189 186.341 15.9058C185.728 15.6131 185.199 15.1553 184.755 14.5322C184.312 13.9092 184.09 13.0879 184.09 12.0684C184.09 10.6335 184.642 9.51481 185.747 8.7124C186.861 7.90999 188.404 7.50879 190.377 7.50879Z" fill="#0C7BD4"/>
<path d="M212.467 2.43945C214.978 2.43945 216.899 2.99642 218.23 4.11035C219.561 5.21484 220.227 6.82438 220.227 8.93896C220.227 10.9875 219.552 12.5828 218.202 13.7251C216.852 14.8579 214.968 15.4243 212.552 15.4243H209.791V23H205.415V2.43945H212.467ZM212.283 12.1816C213.482 12.1816 214.374 11.9173 214.959 11.3887C215.554 10.8506 215.851 10.034 215.851 8.93896C215.851 7.83447 215.558 7.02262 214.973 6.50342C214.397 5.97477 213.5 5.71045 212.283 5.71045H209.791V12.1816H212.283Z" fill="#0C7BD4"/>
<path d="M222.974 1.19336H227.321V23H222.974V1.19336Z" fill="#0C7BD4"/>
<path d="M237.29 7.50879C239.432 7.50879 241.075 8.03743 242.217 9.09473C243.36 10.152 243.931 11.686 243.931 13.6968V23H240.334L239.838 21.2017C239.215 21.8625 238.512 22.3675 237.729 22.7168C236.954 23.0566 236.124 23.2266 235.236 23.2266C233.669 23.2266 232.423 22.8206 231.498 22.0088C230.582 21.1969 230.125 20.1066 230.125 18.7378C230.125 17.1519 230.79 15.9152 232.121 15.0278C233.462 14.1405 235.331 13.6968 237.729 13.6968H239.583V13.3145C239.527 11.5586 238.531 10.6807 236.596 10.6807C235.935 10.6807 235.17 10.7798 234.302 10.978C233.433 11.1668 232.65 11.4123 231.951 11.7144L231.031 8.7832C232.031 8.37728 233.084 8.06576 234.188 7.84863C235.293 7.62207 236.327 7.50879 237.29 7.50879ZM238.097 16.0757C236.86 16.0757 235.897 16.2881 235.208 16.7129C234.528 17.1377 234.188 17.7277 234.188 18.4829C234.188 19.106 234.377 19.5827 234.755 19.9131C235.132 20.234 235.666 20.3945 236.355 20.3945C236.978 20.3945 237.573 20.2576 238.139 19.9839C238.715 19.7101 239.196 19.342 239.583 18.8794V16.0757H238.097Z" fill="#0C7BD4"/>
<path d="M257.114 22.4194C255.802 22.9575 254.546 23.2266 253.347 23.2266C250.005 23.2266 248.334 21.6312 248.334 18.4404V10.8506H245.828V7.80615H248.618L249.453 3.45898H252.653V7.80615H256.802V10.8506H252.653V17.8315C252.653 18.6056 252.795 19.1579 253.078 19.4883C253.371 19.8187 253.866 19.9839 254.565 19.9839C255.16 19.9839 255.797 19.8659 256.477 19.6299L257.114 22.4194Z" fill="#0C7BD4"/>
<path d="M260.427 6.17773C260.427 4.57292 260.904 3.30322 261.857 2.36865C262.811 1.43408 264.118 0.966797 265.78 0.966797C266.497 0.966797 267.172 1.0376 267.805 1.1792C268.447 1.3208 269.183 1.56624 270.014 1.91553L268.952 4.37939C268.083 4.08675 267.356 3.94043 266.771 3.94043C266.11 3.94043 265.596 4.12923 265.228 4.50684C264.869 4.88444 264.689 5.43197 264.689 6.14941V7.80615H268.343V10.8506H264.689V21.6973C264.689 23.6891 264.184 25.6007 263.174 27.4321H260.427V10.8506H257.921V7.80615H260.427V6.17773Z" fill="#0C7BD4"/>
<path d="M276.782 7.45215C279.284 7.45215 281.2 8.13656 282.531 9.50537C283.862 10.8647 284.528 12.8188 284.528 15.3677C284.528 17.9165 283.862 19.88 282.531 21.2583C281.2 22.6366 279.284 23.3257 276.782 23.3257C274.309 23.3257 272.402 22.6413 271.062 21.2725C269.721 19.8942 269.051 17.9259 269.051 15.3677C269.051 12.8188 269.716 10.8647 271.047 9.50537C272.378 8.13656 274.29 7.45215 276.782 7.45215ZM276.782 10.709C274.545 10.6995 273.426 12.2524 273.426 15.3677C273.426 18.4829 274.545 20.0405 276.782 20.0405C279.029 20.0405 280.152 18.4829 280.152 15.3677C280.152 12.2524 279.029 10.6995 276.782 10.709Z" fill="#0C7BD4"/>
<path d="M291.48 9.91602C292.434 8.34896 293.77 7.56543 295.488 7.56543C295.856 7.56543 296.167 7.58903 296.422 7.63623C296.687 7.67399 297.022 7.74951 297.428 7.86279L296.932 11.6577C296.12 11.3651 295.403 11.2235 294.78 11.2329C294.1 11.2329 293.524 11.3556 293.052 11.6011C292.58 11.8371 292.184 12.2147 291.863 12.7339V23H287.501V7.80615H290.957L291.48 9.91602Z" fill="#0C7BD4"/>
<path d="M303.687 9.91602C304.951 8.34896 306.637 7.56543 308.742 7.56543C309.827 7.56543 310.757 7.79199 311.531 8.24512C312.315 8.6888 312.9 9.33545 313.287 10.1851C314.005 9.29769 314.798 8.6416 315.666 8.2168C316.535 7.78255 317.512 7.56543 318.597 7.56543C320.221 7.56543 321.472 8.03271 322.35 8.96729C323.228 9.89242 323.667 11.2046 323.667 12.9038V23H319.319V13.1445C319.319 12.2572 319.145 11.6152 318.795 11.2188C318.446 10.8223 317.884 10.624 317.11 10.624C316.412 10.624 315.775 10.7798 315.199 11.0913C314.623 11.3934 314.141 11.8229 313.754 12.3799C313.754 12.4176 313.764 12.5073 313.783 12.6489C313.802 12.7811 313.811 12.9368 313.811 13.1162V23H309.464V13.1445C309.464 12.2572 309.289 11.6152 308.94 11.2188C308.591 10.8223 308.029 10.624 307.255 10.624C306.575 10.624 305.943 10.7845 305.357 11.1055C304.772 11.417 304.305 11.8418 303.956 12.3799V23H299.608V7.80615H303.233L303.687 9.91602Z" fill="#0C7BD4"/>
</svg>
