<svg width="123" height="34" viewBox="0 0 123 34" fill="none" xmlns="http://www.w3.org/2000/svg">
<path d="M72.7079 19.2412H62.6444C62.945 19.6558 63.2326 20.0688 63.5132 20.4826H72.7079V19.2412Z" fill="#153389"/>
<path d="M66.3628 24.5508H72.708V23.5859H65.6475C65.7809 23.7903 66.2336 24.5508 66.3628 24.5508Z" fill="#153389"/>
<path d="M53.5351 24.5508H59.8801V23.5859H53.5351V24.5508Z" fill="#153389"/>
<path d="M72.7081 4.06836H66.3631V10.3965C66.3631 10.7594 66.3727 11.4997 66.397 12.2764H72.7081V4.06836Z" fill="#153389"/>
<path d="M63.707 9.84532C62.6085 8.27661 61.7212 6.7055 60.6254 5.13598C60.5486 5.02769 60.0191 4.06836 59.8801 4.06836H53.5351V12.2764H65.1972C64.7325 11.4431 64.2509 10.622 63.707 9.84532Z" fill="#153389"/>
<path d="M72.708 16.6899H60.9828C61.2987 17.2274 61.6245 17.7576 61.9687 18.2756H72.708V16.6899Z" fill="#153389"/>
<path d="M59.4663 14.0678C59.7525 14.5479 60.0297 15.0328 60.3069 15.5177H72.7077V13.4487H66.4467C66.4862 14.143 66.5428 14.7095 66.6213 14.8453C66.3553 14.3846 66.0983 13.9175 65.8414 13.4487H53.5351V15.5177H59.7387C59.6644 14.7879 59.5674 14.2375 59.4663 14.0678Z" fill="#153389"/>
<path d="M59.8801 19.2412H53.5351V20.4826H59.8801V19.2412Z" fill="#153389"/>
<path d="M59.8301 16.6899H53.5351V18.2756H59.8792C59.8769 17.7438 59.859 17.2023 59.8301 16.6899Z" fill="#153389"/>
<path d="M64.1634 21.4482C64.4325 21.8491 64.7033 22.2491 64.9822 22.6508L72.7077 22.6273V21.4482H64.1634Z" fill="#153389"/>
<path d="M59.8801 21.4482H53.5351V22.6839L59.8801 22.6654V21.4482Z" fill="#153389"/>
<path d="M81.3978 4.06836H75.0527V12.2764H81.3978V4.06836Z" fill="#153389"/>
<path d="M75.0527 24.5508H81.3978V23.5859H75.0527V24.5508Z" fill="#153389"/>
<path d="M75.0527 21.4482V22.6186L81.3978 22.5998V21.4482H75.0527Z" fill="#153389"/>
<path d="M75.0527 20.4826H81.3978V19.2412H75.0527V20.4826Z" fill="#153389"/>
<path d="M75.0527 18.2756H81.3978V16.6899H75.0527V18.2756Z" fill="#153389"/>
<path d="M81.3978 13.4487H75.0527V15.5177H81.3978V13.4487Z" fill="#153389"/>
<path d="M86.6682 22.5847L96.2856 22.5563C96.2727 22.195 96.2582 21.8177 96.2444 21.4482H85.4922C85.8552 21.8564 86.248 22.2371 86.6682 22.5847Z" fill="#153389"/>
<path d="M90.134 24.4295C91.1588 24.7221 92.2297 24.8903 93.2958 24.9113C93.6094 24.917 96.3709 24.811 96.3628 24.6002C96.3628 24.6002 96.3474 24.1864 96.3249 23.5859H88.1232C88.7545 23.9406 89.4261 24.2268 90.134 24.4295Z" fill="#153389"/>
<path d="M94.288 9.16488C94.8697 9.15843 95.6352 9.19398 96.1556 9.37179L96.3625 3.95126C95.5341 3.74435 94.2547 3.63281 93.3624 3.63281C88.1691 3.63281 83.8461 7.35453 82.9102 12.2756H89.7451C90.4683 10.4717 92.2229 9.18832 94.288 9.16488Z" fill="#153389"/>
<path d="M83.5222 18.2756H91.8523C91.1621 17.874 90.5769 17.3365 90.1502 16.6899H83.0106C83.14 17.2298 83.3122 17.7608 83.5222 18.2756Z" fill="#153389"/>
<path d="M84.7286 20.4826H96.2082C96.188 19.9282 96.1703 19.4724 96.1622 19.2412H83.9714C84.1968 19.6712 84.4491 20.0858 84.7286 20.4826Z" fill="#153389"/>
<path d="M89.4353 13.4487H82.7554C82.7338 13.7219 82.7201 13.9975 82.7201 14.2763C82.7201 14.6917 82.7467 15.1063 82.7967 15.5177H89.5976C89.4684 15.099 89.3955 14.6513 89.3899 14.1785C89.3876 13.9304 89.4028 13.6871 89.4353 13.4487Z" fill="#153389"/>
<path d="M120.272 11.0754H114.261V3.06789H120.272V11.0754ZM120.272 14.2516H114.261V12.2247H120.272V14.2516ZM120.272 16.9542H114.261V15.4009H120.272V16.9542ZM120.272 19.117H114.261V17.9006H120.272V19.117ZM120.272 21.198L114.261 21.2022V20.0625H120.272V21.198ZM120.272 23.1037V23.1409H114.261V22.1581H120.272V23.1037ZM112.279 19.117H102.461C102.496 18.5957 102.527 18.152 102.544 17.9006C102.554 17.76 102.559 17.6784 102.559 17.6784C102.787 17.7495 103.079 17.8319 103.398 17.9006C104.08 18.0477 104.884 18.1302 105.447 17.9006H112.4C112.401 18.3104 112.362 18.7177 112.279 19.117ZM111.355 21.2036L102.319 21.2094C102.344 20.844 102.371 20.4505 102.397 20.0625H111.992C111.831 20.461 111.619 20.844 111.355 21.2036ZM109.66 22.6674C109.312 22.8475 108.948 22.9907 108.574 23.1037C107.313 23.4844 105.934 23.5104 104.644 23.3624C104.515 23.3478 103.727 23.2306 103.081 23.1037C102.603 23.0092 102.204 22.9091 102.209 22.8404C102.209 22.8404 102.227 22.5711 102.255 22.1581H110.441C110.197 22.3513 109.936 22.5234 109.66 22.6674ZM101.841 10.1978C101.382 8.63957 101.581 6.99327 102.412 5.5943C103.231 4.21552 104.539 3.41379 106.01 3.03476C107.513 2.64602 109.187 2.70016 110.685 3.03476C111.107 3.1285 111.514 3.24489 111.9 3.37986L111.562 8.07544C110.453 7.73277 108.344 7.46688 107.794 8.49248C107.316 9.38229 108.101 10.3844 108.719 11.0754H102.182C102.048 10.7982 101.931 10.5073 101.841 10.1978ZM104.523 14.2516C103.97 13.5671 103.381 12.9238 102.878 12.2247H109.753C109.826 12.3079 109.901 12.3912 109.974 12.476C110.458 13.0393 110.916 13.6253 111.308 14.2516H104.523ZM111.9 15.4009C112.103 15.9036 112.248 16.4265 112.327 16.9542H106.122C106.122 16.8872 106.118 16.8185 106.11 16.7506C106.047 16.2414 105.786 15.8058 105.473 15.4009H111.9ZM0.882202 0V2.20717H99.0523V25.104H122.914V0H0.882202Z" fill="#153389"/>
<path d="M114.261 23.1408H120.272V23.1035H114.261V23.1408Z" fill="#153389"/>
<path d="M13.8814 4.33936H15.0557L17.1837 8.07723V4.33936H18.2271V9.70009H17.1069L14.9248 5.89674V9.70009H13.8814V4.33936Z" fill="#153389"/>
<path d="M20.5886 7.67476H21.9609L21.2844 5.56537L20.5886 7.67476ZM20.6621 4.33936H21.9294L23.8261 9.70009H22.6115L22.2574 8.59852H20.2839L19.9203 9.70009H18.7484L20.6621 4.33936Z" fill="#153389"/>
<path d="M27.7051 4.33936V5.28897H26.101V9.70009H24.9736V5.28897H23.3628V4.33936H27.7051Z" fill="#153389"/>
<path d="M29.2328 9.70009H28.1199V4.33936H29.2328V9.70009Z" fill="#153389"/>
<path d="M33.5588 8.40907C33.8192 8.08176 33.9493 7.61625 33.9493 7.01252C33.9493 6.41122 33.8192 5.94652 33.5588 5.61759C33.2978 5.28946 32.9455 5.1246 32.5025 5.1246C32.0582 5.1246 31.7041 5.28865 31.4398 5.61596C31.1755 5.94329 31.0437 6.40881 31.0437 7.01252C31.0437 7.61625 31.1755 8.08176 31.4398 8.40907C31.7041 8.73639 32.0582 8.89965 32.5025 8.89965C32.9455 8.89965 33.2978 8.73639 33.5588 8.40907ZM34.2588 9.22373C33.854 9.64077 33.2679 9.84928 32.5025 9.84928C31.7356 9.84928 31.1505 9.64077 30.7457 9.22373C30.2025 8.71216 29.9308 7.97507 29.9308 7.01252C29.9308 6.03056 30.2025 5.2935 30.7457 4.80131C31.1505 4.38429 31.7356 4.17578 32.5025 4.17578C33.2679 4.17578 33.854 4.38429 34.2588 4.80131C34.7995 5.2935 35.0695 6.03056 35.0695 7.01252C35.0695 7.97507 34.7995 8.71216 34.2588 9.22373Z" fill="#153389"/>
<path d="M35.7573 4.33936H36.9316L39.0595 8.07723V4.33936H40.1037V9.70009H38.9835L36.8013 5.89674V9.70009H35.7573V4.33936Z" fill="#153389"/>
<path d="M42.4646 7.67476H43.8376L43.1604 5.56537L42.4646 7.67476ZM42.5389 4.33936H43.8062L45.7029 9.70009H44.4883L44.1342 8.59852H42.1599L41.7969 9.70009H40.6251L42.5389 4.33936Z" fill="#153389"/>
<path d="M46.2354 4.33936H47.3556V8.73672H50.0322V9.70009H46.2354V4.33936Z" fill="#153389"/>
<path d="M1.99508 17.1478H0.882202V11.7871H1.99508V17.1478Z" fill="#153389"/>
<path d="M2.87558 11.7871H4.04987L6.17785 15.525V11.7871H7.22204V17.1478H6.10188L3.91977 13.3445V17.1478H2.87558V11.7871Z" fill="#153389"/>
<path d="M8.1236 11.7949H11.9463V12.7373H9.23649V13.9698H11.6109V14.9008H9.23649V17.1484H8.1236V11.7949Z" fill="#153389"/>
<path d="M15.9519 15.8578C16.2129 15.5305 16.3431 15.065 16.3431 14.4613C16.3431 13.86 16.2129 13.3953 15.9519 13.0663C15.6917 12.7382 15.3393 12.5733 14.8956 12.5733C14.4519 12.5733 14.0979 12.7374 13.8336 13.0647C13.5694 13.392 13.4376 13.8576 13.4376 14.4613C13.4376 15.065 13.5694 15.5305 13.8336 15.8578C14.0979 16.1851 14.4519 16.3484 14.8956 16.3484C15.3393 16.3484 15.6917 16.1851 15.9519 15.8578ZM16.6526 16.6725C16.2477 17.0895 15.6618 17.298 14.8956 17.298C14.1294 17.298 13.5443 17.0895 13.1394 16.6725C12.5963 16.1609 12.3247 15.4238 12.3247 14.4613C12.3247 13.4793 12.5963 12.7423 13.1394 12.2501C13.5443 11.833 14.1294 11.6245 14.8956 11.6245C15.6618 11.6245 16.2477 11.833 16.6526 12.2501C17.1933 12.7423 17.4632 13.4793 17.4632 14.4613C17.4632 15.4238 17.1933 16.1609 16.6526 16.6725Z" fill="#153389"/>
<path d="M19.2889 12.7182V14.1583H20.4946C20.734 14.1583 20.9134 14.1292 21.0337 14.0711C21.2456 13.9692 21.3513 13.768 21.3513 13.4673C21.3513 13.1425 21.2487 12.9242 21.0443 12.8127C20.9288 12.7497 20.7558 12.7182 20.5254 12.7182H19.2889ZM21.6044 11.9253C21.8015 12.0102 21.9688 12.1354 22.1062 12.3003C22.2194 12.4361 22.3091 12.5864 22.3753 12.7513C22.4417 12.9162 22.4748 13.1037 22.4748 13.3146C22.4748 13.5692 22.4109 13.8197 22.2825 14.0662C22.1539 14.3119 21.9414 14.4857 21.6456 14.5875C21.8929 14.6869 22.0683 14.8283 22.1718 15.011C22.2744 15.1944 22.326 15.4741 22.326 15.8499V16.2095C22.326 16.4544 22.3358 16.6209 22.3551 16.7082C22.3851 16.8464 22.4538 16.9482 22.562 17.0137V17.1478H21.3255C21.2916 17.029 21.2674 16.9337 21.2529 16.8609C21.2237 16.7106 21.2083 16.5562 21.2058 16.3986L21.1987 15.9008C21.1938 15.5589 21.1349 15.331 21.0216 15.2171C20.9078 15.1031 20.6951 15.0457 20.3833 15.0457H19.2889V17.1478H18.1946V11.7871H20.7581C21.1251 11.7944 21.4071 11.8405 21.6044 11.9253Z" fill="#153389"/>
<path d="M26.9555 11.7871H28.5671V17.1478H27.5237V13.5223C27.5237 13.418 27.5245 13.2717 27.5268 13.0843C27.5293 12.8959 27.531 12.7513 27.531 12.6494L26.5151 17.1478H25.4263L24.4177 12.6494C24.4177 12.7513 24.4186 12.8959 24.421 13.0843C24.4233 13.2717 24.4242 13.418 24.4242 13.5223V17.1478H23.3808V11.7871H25.0109L25.9864 16.0026L26.9555 11.7871Z" fill="#153389"/>
<path d="M30.9137 15.1225H32.2862L31.6097 13.0131L30.9137 15.1225ZM30.9874 11.7871H32.2545L34.1514 17.1478H32.9366L32.5827 16.0463H30.609L30.2454 17.1478H29.0736L30.9874 11.7871Z" fill="#153389"/>
<path d="M38.0299 11.7871V12.7367H36.4265V17.1478H35.299V12.7367H33.6876V11.7871H38.0299Z" fill="#153389"/>
<path d="M39.5585 17.1478H38.4456V11.7871H39.5585V17.1478Z" fill="#153389"/>
<path d="M40.9684 12.347C41.4001 11.9057 41.9496 11.6851 42.6164 11.6851C43.5087 11.6851 44.1608 11.9809 44.5739 12.5725C44.8019 12.9046 44.9238 13.2384 44.9407 13.573H43.8207C43.7495 13.316 43.6573 13.122 43.5458 12.9911C43.3462 12.7583 43.0512 12.642 42.6593 12.642C42.2599 12.642 41.9448 12.806 41.7144 13.135C41.4842 13.4631 41.3693 13.9278 41.3693 14.5291C41.3693 15.1304 41.4907 15.5813 41.734 15.8804C41.9771 16.1794 42.2859 16.3297 42.6608 16.3297C43.0448 16.3297 43.338 16.2012 43.5393 15.9442C43.6509 15.806 43.7431 15.5983 43.8165 15.3219H44.9294C44.8333 15.9062 44.5883 16.3814 44.1939 16.7476C43.7997 17.1137 43.2937 17.2971 42.677 17.2971C41.9148 17.2971 41.3152 17.0498 40.8787 16.5552C40.4417 16.0582 40.2233 15.3769 40.2233 14.5113C40.2233 13.5754 40.4714 12.8537 40.9684 12.347Z" fill="#153389"/>
<path d="M46.4935 15.4937C46.5282 15.7386 46.5969 15.9212 46.6981 16.0424C46.8839 16.2631 47.2015 16.3738 47.6524 16.3738C47.9223 16.3738 48.1415 16.3447 48.3094 16.2865C48.6287 16.175 48.7888 15.9673 48.7888 15.6642C48.7888 15.4872 48.7103 15.3506 48.5544 15.2537C48.3977 15.1591 48.1496 15.075 47.8101 15.0023L47.229 14.8754C46.6591 14.7494 46.2672 14.612 46.0539 14.4641C45.6926 14.2167 45.5115 13.8304 45.5115 13.3043C45.5115 12.8242 45.6886 12.425 46.0418 12.1074C46.3956 11.7898 46.9145 11.6313 47.5991 11.6313C48.1712 11.6313 48.6587 11.7809 49.0627 12.0807C49.4669 12.3797 49.6777 12.8145 49.6979 13.3843H48.6214C48.6012 13.0619 48.4574 12.8323 48.1891 12.6966C48.0097 12.6068 47.7874 12.5624 47.5214 12.5624C47.2257 12.5624 46.9897 12.6206 46.8127 12.737C46.6365 12.8533 46.5484 13.0158 46.5484 13.2243C46.5484 13.4158 46.635 13.5589 46.8094 13.6534C46.921 13.7165 47.1587 13.79 47.5214 13.8749L48.4622 14.0971C48.8745 14.1941 49.184 14.3234 49.3892 14.4859C49.7093 14.738 49.8686 15.1033 49.8686 15.581C49.8686 16.0707 49.6794 16.4773 49.3012 16.8005C48.9222 17.1246 48.3871 17.2863 47.6961 17.2863C46.9905 17.2863 46.4354 17.1271 46.0312 16.8078C45.6264 16.4894 45.4243 16.0513 45.4243 15.4937H46.4935Z" fill="#153389"/>
<path d="M21.2892 19.7957C21.7208 19.3544 22.2705 19.1338 22.9372 19.1338C23.8294 19.1338 24.4815 19.4296 24.8938 20.0212C25.1217 20.3533 25.2445 20.6871 25.2616 21.0218H24.1414C24.0694 20.7647 23.978 20.5708 23.8667 20.4398C23.6669 20.2071 23.3711 20.0907 22.9792 20.0907C22.5808 20.0907 22.2655 20.2548 22.0353 20.5837C21.8049 20.9119 21.69 21.3764 21.69 21.9777C21.69 22.579 21.8114 23.0301 22.0547 23.3292C22.298 23.628 22.6066 23.7785 22.9809 23.7785C23.3655 23.7785 23.6581 23.6499 23.86 23.3931C23.9707 23.2549 24.0638 23.0471 24.1373 22.7707H25.2501C25.154 23.355 24.9092 23.8301 24.5148 24.1971C24.1196 24.5624 23.6144 24.7459 22.9977 24.7459C22.2349 24.7459 21.6351 24.4987 21.1988 24.0039C20.7624 23.5069 20.544 22.8257 20.544 21.9601C20.544 21.0241 20.7921 20.3024 21.2892 19.7957Z" fill="#153389"/>
<path d="M29.9705 20.1855H27.1339V21.3234H29.7378V22.2543H27.1339V23.6332H30.1015V24.5965H26.0395V19.2358H29.9705V20.1855Z" fill="#153389"/>
<path d="M30.8074 19.2358H31.9817L34.1097 22.9737V19.2358H35.1539V24.5965H34.0337L31.8516 20.7932V24.5965H30.8074V19.2358Z" fill="#153389"/>
<path d="M39.9514 19.2358V20.1855H38.3471V24.5965H37.2196V20.1855H35.6089V19.2358H39.9514Z" fill="#153389"/>
<path d="M41.5762 20.1669V21.607H42.7821C43.0213 21.607 43.2007 21.5779 43.3212 21.5198C43.5329 21.4179 43.6388 21.2168 43.6388 20.916C43.6388 20.5912 43.5362 20.373 43.331 20.2614C43.2161 20.1984 43.0431 20.1669 42.8127 20.1669H41.5762ZM43.8917 19.374C44.089 19.4589 44.2564 19.5842 44.3937 19.749C44.5067 19.8848 44.5964 20.0351 44.6628 20.2C44.729 20.3649 44.7621 20.5524 44.7621 20.7633C44.7621 21.0178 44.6984 21.2684 44.5698 21.5148C44.4414 21.7606 44.2289 21.9344 43.9329 22.0362C44.1804 22.1357 44.3556 22.277 44.4591 22.4598C44.5617 22.6431 44.6135 22.9229 44.6135 23.2985V23.6582C44.6135 23.9032 44.6231 24.0697 44.6426 24.1569C44.6724 24.2951 44.7411 24.3969 44.8495 24.4624V24.5965H43.613C43.5791 24.4778 43.5547 24.3823 43.5402 24.3097C43.511 24.1594 43.4958 24.005 43.4933 23.8474L43.486 23.3495C43.4813 23.0076 43.4222 22.7797 43.3083 22.6658C43.1951 22.5518 42.9826 22.4945 42.6706 22.4945H41.5762V24.5965H40.4821V19.2358H43.0456C43.4126 19.2431 43.6946 19.2892 43.8917 19.374Z" fill="#153389"/>
<path d="M49.6504 20.1855H46.8137V21.3234H49.4177V22.2543H46.8137V23.6332H49.7813V24.5965H45.7193V19.2358H49.6504V20.1855Z" fill="#153389"/>
<path d="M65.0521 26.6196V26.6896" stroke="#153389" stroke-miterlimit="10"/>
<path d="M87.6463 28.9302C87.3133 28.9302 87.0475 29.053 86.8496 29.2977C86.6514 29.5435 86.5522 29.8926 86.5522 30.3453C86.5522 30.7978 86.6514 31.1478 86.8496 31.3926C87.0475 31.6384 87.3133 31.7612 87.6463 31.7612C87.9785 31.7612 88.2428 31.6384 88.4385 31.3926C88.6339 31.1478 88.7317 30.7978 88.7317 30.3453C88.7317 29.8943 88.6339 29.5458 88.4385 29.2994C88.2428 29.053 87.9785 28.9302 87.6463 28.9302Z" fill="#153389"/>
<path d="M94.045 29.1094C93.9586 29.0617 93.8292 29.0376 93.6562 29.0376H92.7292V30.118H93.6337C93.8131 30.118 93.9472 30.0964 94.0377 30.0527C94.1961 29.9759 94.2754 29.8256 94.2754 29.6C94.2754 29.356 94.1986 29.1927 94.045 29.1094Z" fill="#153389"/>
<path d="M98.6937 30.8422H99.7233L99.2149 29.2598L98.6937 30.8422Z" fill="#153389"/>
<path d="M82.077 29.0376H81.3198V30.2223H82.077C82.2685 30.2223 82.4173 30.1738 82.5239 30.0768C82.6306 29.9807 82.6839 29.8279 82.6839 29.6195C82.6839 29.4102 82.6306 29.2607 82.5239 29.1716C82.4173 29.0828 82.2685 29.0376 82.077 29.0376Z" fill="#153389"/>
<path d="M76.9122 29.1094C76.8258 29.0617 76.6963 29.0376 76.5234 29.0376H75.5966V30.118H76.5009C76.6803 30.118 76.8144 30.0964 76.9049 30.0527C77.0633 29.9759 77.1426 29.8256 77.1426 29.6C77.1426 29.356 77.0658 29.1927 76.9122 29.1094Z" fill="#153389"/>
<path d="M70.5137 28.9302C70.1809 28.9302 69.9149 29.053 69.717 29.2977C69.5188 29.5435 69.4196 29.8926 69.4196 30.3453C69.4196 30.7978 69.5188 31.1478 69.717 31.3926C69.9149 31.6384 70.1809 31.7612 70.5137 31.7612C70.8459 31.7612 71.1102 31.6384 71.3059 31.3926C71.5013 31.1478 71.5991 30.7978 71.5991 30.3453C71.5991 29.8943 71.5013 29.5458 71.3059 29.2994C71.1102 29.053 70.8459 28.9302 70.5137 28.9302Z" fill="#153389"/>
<path d="M114.979 29.0376H114.202V31.6626H114.979C115.375 31.6626 115.653 31.4661 115.809 31.0758C115.894 30.8608 115.937 30.6055 115.937 30.3097C115.937 29.8999 115.873 29.5856 115.745 29.3673C115.616 29.1475 115.361 29.0376 114.979 29.0376Z" fill="#153389"/>
<path d="M20.1496 29.1094C20.0632 29.0617 19.9339 29.0376 19.761 29.0376H18.8331V30.118H19.7375C19.9169 30.118 20.052 30.0964 20.1417 30.0527C20.3007 29.9759 20.38 29.8256 20.38 29.6C20.38 29.356 20.3032 29.1927 20.1496 29.1094Z" fill="#153389"/>
<path d="M116.469 31.6102C116.178 32.1106 115.729 32.3603 115.12 32.3603H113.387V28.3396H115.12C115.37 28.3436 115.577 28.3727 115.742 28.4268C116.025 28.5199 116.253 28.6903 116.428 28.9376C116.568 29.1372 116.663 29.3538 116.715 29.5865C116.766 29.8192 116.791 30.0407 116.791 30.2526C116.791 30.7866 116.683 31.2393 116.469 31.6102ZM111.056 32.3603H108.01V28.3396H110.958V29.0523H108.831V29.9058H110.783V30.6041H108.831V31.6377H111.056V32.3603ZM105.818 29.0523H104.616V32.3603H103.77V29.0523H102.561V28.3396H105.818V29.0523ZM100.211 32.3603L99.9454 31.5343H98.4647L98.1925 32.3603H97.3131L98.7484 28.3396H99.699L101.121 32.3603H100.211ZM95.1835 32.3603H94.2565C94.2307 32.2715 94.213 32.1995 94.2015 32.1453C94.1797 32.0321 94.1684 31.9166 94.1659 31.7986L94.1612 31.4252C94.1572 31.1681 94.1127 30.9977 94.0277 30.9119C93.943 30.8272 93.7838 30.7843 93.5495 30.7843H92.729V32.3603H91.9079V28.3396H93.8306C94.1054 28.3461 94.3173 28.38 94.465 28.4437C94.613 28.5067 94.7389 28.6006 94.8418 28.7251C94.9265 28.8269 94.9943 28.9392 95.0436 29.0629C95.0938 29.1865 95.1181 29.328 95.1181 29.4856C95.1181 29.6762 95.0697 29.8646 94.9735 30.0488C94.8771 30.2338 94.7179 30.3641 94.4967 30.4407C94.6817 30.5144 94.8134 30.621 94.8903 30.7585C94.9677 30.8959 95.0066 31.1051 95.0066 31.3873V31.6571C95.0066 31.8406 95.0139 31.9651 95.0285 32.0304C95.0509 32.1339 95.1028 32.2107 95.1835 32.26V32.3603ZM88.9636 32.003C88.6598 32.3158 88.221 32.4725 87.6464 32.4725C87.0717 32.4725 86.6321 32.3158 86.3291 32.003C85.9218 31.62 85.718 31.0664 85.718 30.3446C85.718 29.6084 85.9218 29.0556 86.3291 28.6862C86.6321 28.3735 87.0717 28.2174 87.6464 28.2174C88.221 28.2174 88.6598 28.3735 88.9636 28.6862C89.3695 29.0556 89.5714 29.6084 89.5714 30.3446C89.5714 31.0664 89.3695 31.62 88.9636 32.003ZM83.1648 30.6203C82.9298 30.8166 82.5935 30.9153 82.157 30.9153H81.3199V32.3603H80.4849V28.3396H82.2112C82.6097 28.3396 82.9265 28.4437 83.1634 28.6508C83.4 28.8583 83.518 29.1792 83.518 29.614C83.518 30.0883 83.4008 30.4239 83.1648 30.6203ZM78.0508 32.3603H77.1237C77.0979 32.2715 77.08 32.1995 77.0688 32.1453C77.047 32.0321 77.0349 31.9166 77.0332 31.7986L77.0284 31.4252C77.0243 31.1681 76.9808 30.9977 76.895 30.9119C76.8101 30.8272 76.6509 30.7843 76.4165 30.7843H75.5963V32.3603H74.7752V28.3396H76.6977C76.9735 28.3461 77.1843 28.38 77.3323 28.4437C77.4809 28.5067 77.6062 28.6006 77.7088 28.7251C77.7937 28.8269 77.8616 28.9392 77.9109 29.0629C77.9611 29.1865 77.9852 29.328 77.9852 29.4856C77.9852 29.6762 77.9376 29.8646 77.8406 30.0488C77.7444 30.2338 77.5852 30.3641 77.3637 30.4407C77.5488 30.5144 77.6805 30.621 77.7573 30.7585C77.8349 30.8959 77.8737 31.1051 77.8737 31.3873V31.6571C77.8737 31.8406 77.8809 31.9651 77.8955 32.0304C77.9182 32.1339 77.9698 32.2107 78.0508 32.26V32.3603ZM71.8309 32.003C71.527 32.3158 71.0881 32.4725 70.5134 32.4725C69.939 32.4725 69.4992 32.3158 69.1961 32.003C68.7888 31.62 68.5851 31.0664 68.5851 30.3446C68.5851 29.6084 68.7888 29.0556 69.1961 28.6862C69.4992 28.3735 69.939 28.2174 70.5134 28.2174C71.0881 28.2174 71.527 28.3735 71.8309 28.6862C72.2366 29.0556 72.4387 29.6084 72.4387 30.3446C72.4387 31.0664 72.2366 31.62 71.8309 32.003ZM63.9826 31.4098C64.1651 31.6346 64.3972 31.7468 64.6784 31.7468C64.966 31.7468 65.1858 31.6506 65.3371 31.4575C65.421 31.354 65.4897 31.1989 65.5449 30.9912H66.3797C66.3077 31.4291 66.1235 31.7865 65.8277 32.0604C65.5317 32.3352 65.1527 32.4725 64.6905 32.4725C64.1183 32.4725 63.6689 32.2867 63.3415 31.9158C63.0144 31.5432 62.8501 31.0324 62.8501 30.3827C62.8501 29.681 63.0362 29.1405 63.4088 28.7607C63.7328 28.4293 64.1449 28.2636 64.6453 28.2636C65.3144 28.2636 65.8034 28.4857 66.1129 28.9286C66.2835 29.1784 66.3755 29.4281 66.3878 29.6796H65.548C65.4947 29.4864 65.426 29.3409 65.3419 29.2431C65.1923 29.0685 64.971 28.9813 64.6767 28.9813C64.3776 28.9813 64.1418 29.1041 63.9689 29.3505C63.7959 29.5972 63.7093 29.9454 63.7093 30.3972C63.7093 30.8474 63.8007 31.1852 63.9826 31.4098ZM60.5607 32.3603H59.7209L58.0843 29.5081V32.3603H57.3013V28.3396H58.1821L59.7775 31.1432V28.3396H60.5607V32.3603ZM54.8532 32.3603H54.0184V28.3396H54.8532V32.3603ZM46.0577 32.1C45.7732 32.3424 45.3723 32.4638 44.8543 32.4638C44.3248 32.4638 43.9087 32.3449 43.6049 32.1058C43.3018 31.8664 43.1505 31.5376 43.1505 31.1197H43.9522C43.9782 31.3032 44.029 31.4406 44.105 31.5311C44.244 31.6968 44.4834 31.7792 44.8212 31.7792C45.0231 31.7792 45.1881 31.7582 45.3141 31.7137C45.5534 31.6304 45.6729 31.4754 45.6729 31.2474C45.6729 31.1149 45.6148 31.0123 45.4976 30.9394C45.3796 30.8684 45.1938 30.8054 44.9392 30.7513L44.5036 30.6557C44.0759 30.5612 43.7818 30.4586 43.6217 30.3479C43.3509 30.162 43.2152 29.8719 43.2152 29.4775C43.2152 29.117 43.3486 28.8187 43.613 28.5804C43.8779 28.3419 44.2676 28.2224 44.7814 28.2224C45.2098 28.2224 45.5759 28.3354 45.8791 28.5602C46.1813 28.784 46.3406 29.1097 46.3551 29.5372H45.5478C45.5332 29.2956 45.4248 29.1234 45.2235 29.0217C45.0895 28.9546 44.9221 28.9205 44.7234 28.9205C44.5011 28.9205 44.3242 28.9651 44.1916 29.0523C44.059 29.1397 43.9928 29.2608 43.9928 29.4177C43.9928 29.5616 44.0582 29.6681 44.1891 29.7393C44.2723 29.787 44.4509 29.8419 44.7234 29.9058L45.4289 30.0723C45.7376 30.145 45.9695 30.242 46.1239 30.3641C46.363 30.5531 46.4836 30.8272 46.4836 31.1852C46.4836 31.5522 46.3414 31.8569 46.0577 32.1ZM41.0161 32.3603H37.9692V28.3396H40.9176V29.0523H38.7903V29.9058H40.743V30.6041H38.7903V31.6377H41.0161V32.3603ZM33.193 31.4098C33.3755 31.6346 33.6067 31.7468 33.8879 31.7468C34.1756 31.7468 34.3954 31.6506 34.5467 31.4575C34.6306 31.354 34.7001 31.1989 34.755 30.9912H35.59C35.5172 31.4291 35.3338 31.7865 35.0379 32.0604C34.7421 32.3352 34.3623 32.4725 33.9008 32.4725C33.3287 32.4725 32.8785 32.2867 32.5511 31.9158C32.2239 31.5432 32.0597 31.0324 32.0597 30.3827C32.0597 29.681 32.2464 29.1405 32.6191 28.7607C32.9424 28.4293 33.3545 28.2636 33.8548 28.2636C34.524 28.2636 35.0129 28.4857 35.3224 28.9286C35.4939 29.1784 35.585 29.4281 35.598 29.6796H34.7575C34.7042 29.4864 34.6355 29.3409 34.5523 29.2431C34.4026 29.0685 34.1806 28.9813 33.8863 28.9813C33.5872 28.9813 33.3514 29.1041 33.1784 29.3505C33.0054 29.5972 32.9197 29.9454 32.9197 30.3972C32.9197 30.8474 33.0102 31.1852 33.193 31.4098ZM29.7733 32.3603H28.9385V28.3396H29.7733V32.3603ZM25.4593 32.3603H24.6657L23.3062 28.3396H24.2033L25.0762 31.3921L25.9572 28.3396H26.8299L25.4593 32.3603ZM21.2881 32.3603H20.3605C20.3353 32.2715 20.3168 32.1995 20.3062 32.1453C20.2845 32.0321 20.2722 31.9166 20.2708 31.7986L20.265 31.4252C20.2618 31.1681 20.2173 30.9977 20.1326 30.9119C20.0477 30.8272 19.8876 30.7843 19.6541 30.7843H18.8329V32.3603H18.0126V28.3396H19.9353C20.21 28.3461 20.4219 28.38 20.5697 28.4437C20.7176 28.5067 20.8429 28.6006 20.9464 28.7251C21.0313 28.8269 21.0983 28.9392 21.1485 29.0629C21.1976 29.1865 21.2228 29.328 21.2228 29.4856C21.2228 29.6762 21.1743 29.8646 21.0781 30.0488C20.982 30.2338 20.8228 30.3641 20.6005 30.4407C20.7863 30.5144 20.9172 30.621 20.9949 30.7585C21.0725 30.8959 21.1112 31.1051 21.1112 31.3873V31.6571C21.1112 31.8406 21.1185 31.9651 21.1331 32.0304C21.1549 32.1339 21.2065 32.2107 21.2881 32.26V32.3603ZM15.6624 32.3603H12.6155V28.3396H15.5646V29.0523H13.4366V29.9058H15.39V30.6041H13.4366V31.6377H15.6624V32.3603ZM9.9 32.1C9.61631 32.3424 9.21547 32.4638 8.69661 32.4638C8.16724 32.4638 7.75102 32.3449 7.44795 32.1058C7.14487 31.8664 6.99293 31.5376 6.99293 31.1197H7.79466C7.82051 31.3032 7.87226 31.4406 7.94822 31.5311C8.08722 31.6968 8.32563 31.7792 8.66346 31.7792C8.86632 31.7792 9.03037 31.7582 9.15646 31.7137C9.3965 31.6304 9.5161 31.4754 9.5161 31.2474C9.5161 31.1149 9.45711 31.0123 9.33991 30.9394C9.22273 30.8684 9.03685 30.8054 8.78228 30.7513L8.34665 30.6557C7.91913 30.5612 7.62493 30.4586 7.46492 30.3479C7.19418 30.162 7.05839 29.8719 7.05839 29.4775C7.05839 29.117 7.19095 28.8187 7.45603 28.5804C7.72111 28.3419 8.11065 28.2224 8.62387 28.2224C9.05302 28.2224 9.41913 28.3354 9.72138 28.5602C10.0245 28.784 10.1829 29.1097 10.1982 29.5372H9.39084C9.37548 29.2956 9.26719 29.1234 9.06594 29.0217C8.93178 28.9546 8.7653 28.9205 8.56567 28.9205C8.34343 28.9205 8.16643 28.9651 8.03468 29.0523C7.90214 29.1397 7.83587 29.2608 7.83587 29.4177C7.83587 29.5616 7.90133 29.6681 8.03146 29.7393C8.1155 29.787 8.29331 29.8419 8.56567 29.9058L9.27123 30.0723C9.58076 30.145 9.8119 30.242 9.96627 30.3641C10.2063 30.5531 10.3259 30.8272 10.3259 31.1852C10.3259 31.5522 10.1845 31.8569 9.9 32.1ZM0.882202 34H122.914V26.6899H0.882202V34Z" fill="#153389"/>
</svg>
